<svg width="300" height="400" viewBox="0 0 300 400" fill="none" xmlns="http://www.w3.org/2000/svg">
<rect width="300" height="400" fill="white"/>
<path d="M125.919 93.5854C121.468 90.3463 116.206 88.7268 109.326 88.7268C106.493 88.7268 104.065 89.1317 101.232 89.5366C98.8035 89.9415 96.3752 91.1561 94.3517 92.3707C92.3281 93.5854 90.7092 95.2049 89.4951 97.6341C88.2809 99.6585 87.4715 102.493 87.4715 105.732C87.4715 108.566 88.2809 110.995 90.3045 113.02C91.9234 115.044 94.3517 116.259 97.1847 117.473C100.018 118.688 103.255 119.498 107.303 120.307C110.945 121.117 114.587 121.927 118.635 122.737C122.277 123.546 126.324 124.761 129.967 125.976C133.609 127.19 136.847 128.81 140.084 130.834C142.917 132.859 145.346 135.693 146.965 138.527C148.583 141.766 149.798 145.815 149.798 150.268C149.798 155.532 148.583 159.985 146.155 163.629C143.727 167.273 140.894 170.107 137.251 172.537C133.609 174.966 129.562 176.585 125.11 177.395C120.658 178.61 116.206 179.015 111.754 179.015C106.493 179.015 101.232 178.205 96.3752 176.99C91.5187 175.776 87.4715 173.751 83.8291 170.917C80.1866 168.083 77.3536 164.439 75.3301 160.39C73.3065 155.937 72.0923 151.078 72.0923 145.005H84.2338C84.2338 149.054 85.0432 152.698 86.6621 155.532C88.2809 158.366 90.3045 160.795 92.7328 162.82C95.1611 164.844 98.3988 166.059 101.637 166.868C104.874 167.678 108.517 168.083 112.159 168.083C114.992 168.083 117.825 167.678 121.063 167.273C123.896 166.868 126.729 165.654 129.157 164.439C131.585 163.224 133.204 161.2 134.823 159.176C136.442 156.746 136.847 153.912 136.847 150.673C136.847 147.434 136.037 144.6 134.014 142.576C132.395 140.551 129.967 138.932 127.134 137.312C124.301 136.098 121.063 134.883 117.016 134.073C113.373 133.263 109.731 132.454 105.684 131.644C102.041 130.834 97.9941 129.62 94.3517 128.81C90.7092 127.595 87.4715 126.38 84.2338 124.356C81.4008 122.332 78.9725 120.307 77.3536 117.068C75.7348 114.234 74.5206 110.59 74.5206 106.137C74.5206 101.278 75.3301 97.2293 77.3536 93.5854C79.3772 89.9415 81.8055 87.1073 85.4479 84.678C88.6857 82.2488 92.3281 80.6293 96.78 79.4146C100.827 78.2 105.279 77.7951 109.731 77.7951C114.587 77.7951 119.444 78.2 123.491 79.4146C127.538 80.6293 131.585 82.2488 134.823 85.0829C138.061 87.5122 140.489 90.7512 142.513 94.8C144.536 98.4439 145.346 103.302 145.75 108.566H133.609C132.8 101.683 130.371 96.8244 125.919 93.5854Z" fill="#444444"/>
<path d="M155.464 82.6537H170.033L193.102 118.688L216.98 82.6537H230.741L200.387 127.595L232.764 174.966H217.79L193.102 136.907L167.2 174.966H153.44L185.817 127.595L155.464 82.6537Z" fill="#444444"/>
<path d="M47 211H253V45H47V211ZM246.929 204.927H53.0707V51.0732H246.929V204.927Z" fill="#444444"/>
</svg>
