<svg width="300" height="400" viewBox="0 0 300 400" fill="none" xmlns="http://www.w3.org/2000/svg">
<rect width="300" height="400" fill="#464646"/>
<path d="M41.152 52.264C41.152 55.528 39.664 57.944 36.688 59.512C35.248 60.28 33.184 60.76 30.496 60.952C29.76 60.984 27.584 61 23.968 61H18.112C17.568 61 17.296 60.856 17.296 60.568C17.296 60.28 17.792 60.136 18.784 60.136C19.936 60.136 20.608 60.024 20.8 59.8C21.024 59.544 21.136 58.808 21.136 57.592V31.624C21.136 30.216 21.072 29.4 20.944 29.176C20.72 28.792 19.904 28.584 18.496 28.552C17.632 28.552 17.2 28.392 17.2 28.072C17.2 27.784 17.6 27.64 18.4 27.64C18.432 27.64 18.624 27.64 18.976 27.64C19.328 27.672 19.648 27.688 19.936 27.688L29.296 27.784C32.752 27.816 35.328 28.392 37.024 29.512C39.008 30.824 40 32.728 40 35.224C40 37.4 39.184 39.192 37.552 40.6C35.92 41.976 33.632 42.84 30.688 43.192V43.48C33.6 43.672 35.872 44.28 37.504 45.304C39.936 46.84 41.152 49.16 41.152 52.264ZM34.72 35.704C34.72 32.632 34.016 30.584 32.608 29.56C31.872 29.016 30.48 28.744 28.432 28.744C27.888 28.744 27.04 28.792 25.888 28.888V42.808H26.32L28.96 42.712C30.784 42.648 32.192 42.008 33.184 40.792C34.208 39.544 34.72 37.848 34.72 35.704ZM36.112 51.736C36.112 47.704 34.48 45.208 31.216 44.248C30.256 43.96 28.48 43.816 25.888 43.816V58.12C25.888 59.048 25.984 59.576 26.176 59.704C26.496 59.928 27.392 60.04 28.864 60.04C31.072 60.04 32.832 59.336 34.144 57.928C35.456 56.52 36.112 54.456 36.112 51.736ZM70.0619 57.208C70.0619 58.04 70.0139 59.416 69.9179 61.336H69.3899C69.1979 61.336 68.7339 61.304 67.9979 61.24C67.2619 61.176 66.4299 61.144 65.5019 61.144L45.5339 61C44.9899 61 44.7179 60.856 44.7179 60.568C44.7179 60.344 45.1499 60.2 46.0139 60.136C47.2299 60.072 47.9499 59.944 48.1739 59.752C48.4299 59.528 48.5579 58.92 48.5579 57.928V30.952C48.5579 29.768 48.4299 29.08 48.1739 28.888C47.9499 28.696 47.1019 28.6 45.6299 28.6C45.0219 28.6 44.7179 28.424 44.7179 28.072C44.7179 27.784 44.9099 27.64 45.2939 27.64H45.7259C46.7819 27.736 48.8779 27.784 52.0139 27.784C52.3019 27.784 52.8619 27.768 53.6939 27.736C54.5259 27.672 55.2139 27.64 55.7579 27.64H56.2859C56.8619 27.64 57.1499 27.8 57.1499 28.12C57.1499 28.312 57.0539 28.44 56.8619 28.504C56.7019 28.536 56.1579 28.568 55.2299 28.6C54.3019 28.632 53.7419 28.792 53.5499 29.08C53.3899 29.336 53.3099 30.168 53.3099 31.576V59.896C54.1739 59.928 55.3739 59.944 56.9099 59.944C60.6539 59.944 63.2939 59.752 64.8299 59.368C66.3659 58.984 67.4059 58.264 67.9499 57.208C68.4939 56.152 68.8139 54.728 68.9099 52.936C68.9419 52.52 69.1339 52.312 69.4859 52.312C69.9019 52.312 70.0939 52.552 70.0619 53.032L70.0139 54.232C70.0139 54.296 70.0139 54.44 70.0139 54.664C70.0459 54.888 70.0619 55.112 70.0619 55.336V57.208ZM101.572 60.664C101.572 60.952 101.332 61.096 100.852 61.096C100.532 61.096 100.244 61.08 99.9876 61.048L93.8916 60.952L87.7956 61.048C87.5716 61.08 87.3316 61.096 87.0756 61.096C86.4356 61.096 86.1156 60.936 86.1156 60.616C86.1156 60.264 86.5476 60.088 87.4116 60.088C90.2276 60.056 91.6356 59.768 91.6356 59.224C91.6356 59.192 91.6036 59.064 91.5396 58.84L91.1556 57.544L90.9156 56.872C90.6276 55.88 89.9236 53.688 88.8036 50.296H78.5316C76.6116 55.416 75.6516 58.36 75.6516 59.128C75.6516 59.576 75.8436 59.848 76.2276 59.944C76.3236 59.976 77.1236 60.04 78.6276 60.136C79.5556 60.168 80.0196 60.328 80.0196 60.616C80.0196 60.936 79.6036 61.096 78.7716 61.096C77.2996 61.096 75.5876 61.032 73.6356 60.904C73.1556 60.872 72.6596 60.856 72.1476 60.856C71.6356 60.856 71.1396 60.888 70.6596 60.952C70.4036 60.984 70.1956 61 70.0356 61C69.5876 61 69.3636 60.856 69.3636 60.568C69.3636 60.28 69.8596 60.12 70.8516 60.088C71.8756 60.056 72.6116 59.912 73.0596 59.656C73.5076 59.368 73.8596 58.84 74.1156 58.072C78.2436 46.296 81.6036 36.84 84.1956 29.704C84.2596 29.32 84.3876 28.888 84.5796 28.408L84.8196 27.544C84.9156 27.192 85.0436 27.016 85.2036 27.016C85.2996 27.016 85.3796 27.112 85.4436 27.304C85.8596 28.552 86.8036 31.16 88.2756 35.128C89.4276 38.232 92.2916 46.024 96.8676 58.504C97.1236 59.208 97.4436 59.656 97.8276 59.848C98.2436 60.04 99.0756 60.152 100.324 60.184C101.156 60.216 101.572 60.376 101.572 60.664ZM88.5156 49.192C88.0036 47.752 87.1556 45.368 85.9716 42.04L83.6676 35.464C82.3236 38.984 80.7076 43.56 78.8196 49.192H88.5156ZM128.575 50.296C128.575 50.232 128.543 50.664 128.479 51.592C128.351 53.448 128.287 55.24 128.287 56.968C128.287 57.16 128.319 57.56 128.383 58.168C128.447 58.744 128.479 59.448 128.479 60.28V60.712C128.479 61.128 128.351 61.336 128.095 61.336C127.839 61.336 127.615 61.096 127.423 60.616C126.975 59.56 126.527 58.872 126.079 58.552C123.775 60.568 121.007 61.576 117.775 61.576C113.071 61.576 109.167 59.944 106.063 56.68C102.991 53.384 101.455 49.24 101.455 44.248C101.455 39.224 102.863 35.128 105.679 31.96C108.527 28.76 112.191 27.16 116.671 27.16C118.303 27.16 119.599 27.304 120.559 27.592C121.551 27.848 122.767 28.392 124.207 29.224C124.911 29.64 125.439 29.848 125.791 29.848C126.079 29.848 126.351 29.592 126.607 29.08C127.023 28.184 127.359 27.736 127.615 27.736C127.871 27.736 127.999 27.864 127.999 28.12C127.999 28.248 127.967 28.456 127.903 28.744C127.551 30.28 127.375 33.16 127.375 37.384C127.375 37.992 127.327 38.344 127.231 38.44C127.135 38.536 127.007 38.584 126.847 38.584C126.527 38.584 126.319 38.28 126.223 37.672C125.807 35.112 125.215 33.208 124.447 31.96C122.879 29.4 120.415 28.12 117.055 28.12C114.463 28.12 112.415 28.984 110.911 30.712C108.191 33.816 106.831 38.36 106.831 44.344C106.831 49.688 107.951 53.832 110.191 56.776C112.143 59.336 114.735 60.616 117.967 60.616C119.631 60.616 121.151 60.216 122.527 59.416C123.903 58.584 124.959 57.464 125.695 56.056C126.527 54.424 127.119 52.648 127.471 50.728C127.599 49.96 127.807 49.576 128.095 49.576C128.415 49.576 128.575 49.816 128.575 50.296ZM164.062 60.616C164.062 60.904 163.838 61.048 163.39 61.048H163.006L157.246 61L151.63 61.048C151.438 61.08 151.23 61.096 151.006 61.096C150.398 61.096 150.094 60.968 150.094 60.712C150.094 60.456 150.494 60.296 151.294 60.232C152.958 60.072 153.79 59.8 153.79 59.416C153.79 59 149.422 53.8 140.686 43.816V57.688C140.686 58.808 140.862 59.512 141.214 59.8C141.566 60.056 142.51 60.184 144.046 60.184C144.398 60.184 144.574 60.344 144.574 60.664C144.574 60.952 144.35 61.096 143.902 61.096C143.582 61.096 143.294 61.08 143.038 61.048L136.366 60.952C135.95 60.952 135.454 60.968 134.878 61C134.334 61.064 133.774 61.096 133.198 61.096H132.766C132.286 61.096 132.046 60.952 132.046 60.664C132.046 60.344 132.638 60.168 133.822 60.136C134.91 60.104 135.55 59.864 135.742 59.416C135.838 59.256 135.886 58.248 135.886 56.392L135.838 29.656C135.806 28.984 134.942 28.648 133.246 28.648C132.478 28.648 132.094 28.472 132.094 28.12C132.094 27.832 132.366 27.688 132.91 27.688C133.07 27.688 133.278 27.704 133.534 27.736C134.046 27.8 135.47 27.832 137.806 27.832C140.302 27.832 141.886 27.8 142.558 27.736C142.91 27.704 143.278 27.688 143.662 27.688C144.238 27.688 144.526 27.864 144.526 28.216C144.526 28.408 144.43 28.536 144.238 28.6C144.078 28.632 143.534 28.664 142.606 28.696C141.678 28.728 141.118 28.856 140.926 29.08C140.766 29.304 140.686 30.024 140.686 31.24V42.952L144.766 38.872C150.942 32.696 154.03 29.48 154.03 29.224C154.03 28.808 153.278 28.616 151.774 28.648C150.814 28.68 150.334 28.52 150.334 28.168C150.334 27.944 150.558 27.816 151.006 27.784C151.454 27.752 153.006 27.736 155.662 27.736H158.302C159.422 27.736 160.062 27.752 160.222 27.784C160.542 27.848 160.702 28.008 160.702 28.264C160.702 28.616 160.35 28.792 159.646 28.792C158.174 28.76 157.23 28.792 156.814 28.888C156.398 28.984 155.982 29.24 155.566 29.656C153.486 31.832 150.318 35.096 146.062 39.448L144.814 40.696L144.19 41.368C144.382 41.592 145.182 42.456 146.59 43.96C149.278 46.744 153.134 51.208 158.158 57.352C159.214 58.632 159.934 59.4 160.318 59.656C160.734 59.912 161.518 60.072 162.67 60.136C163.598 60.2 164.062 60.36 164.062 60.616ZM43.408 88.184C43.408 88.6 43.216 88.808 42.832 88.808C42.448 88.808 42.176 88.392 42.016 87.56C41.952 86.984 41.888 86.408 41.824 85.832C41.6 84.68 41.232 83.704 40.72 82.904C40.048 81.848 38.944 81.176 37.408 80.888C36.416 80.696 35.616 80.616 35.008 80.648C33.504 80.712 32.592 80.76 32.272 80.792V109.736C32.272 110.888 32.576 111.608 33.184 111.896C33.504 112.056 34.4 112.152 35.872 112.184C36.256 112.216 36.448 112.36 36.448 112.616C36.448 112.904 36.192 113.048 35.68 113.048C35.424 113.048 35.2 113.032 35.008 113C33.088 112.936 31.728 112.904 30.928 112.904C29.872 112.904 28.88 112.92 27.952 112.952C27.024 112.984 25.84 113 24.4 113C23.664 113 23.296 112.872 23.296 112.616C23.296 112.328 23.984 112.168 25.36 112.136C26.352 112.136 26.992 111.928 27.28 111.512C27.44 111.256 27.52 110.6 27.52 109.544V80.792C24.352 80.824 22.384 80.984 21.616 81.272C19.6 82.008 18.416 83.976 18.064 87.176C17.968 88.136 17.744 88.616 17.392 88.616C17.008 88.616 16.816 88.28 16.816 87.608C16.816 87.256 16.832 86.904 16.864 86.552L16.96 85.448C17.056 83.976 17.2 82.04 17.392 79.64H19.552L29.344 79.784C30.496 79.816 32.288 79.8 34.72 79.736L42.688 79.592C42.752 81.384 42.96 84.04 43.312 87.56C43.312 87.656 43.328 87.784 43.36 87.944C43.392 88.072 43.408 88.152 43.408 88.184ZM76.957 112.568C76.957 112.856 76.653 113 76.045 113L69.421 112.952C68.973 112.952 68.317 112.968 67.453 113C66.589 113.032 65.949 113.048 65.533 113.048C64.893 113.048 64.573 112.92 64.573 112.664C64.573 112.408 65.325 112.232 66.829 112.136C67.629 112.072 68.093 111.944 68.221 111.752C68.349 111.528 68.413 110.776 68.413 109.496V95.48H53.965V109.064C53.965 110.504 54.077 111.352 54.301 111.608C54.525 111.864 55.277 112.04 56.557 112.136C57.389 112.2 57.805 112.344 57.805 112.568C57.805 112.856 57.485 113 56.845 113H56.413C55.645 113 54.829 112.984 53.965 112.952C53.133 112.92 52.637 112.904 52.477 112.904C52.029 112.904 51.357 112.92 50.461 112.952C49.565 112.984 48.221 113 46.429 113C45.789 113 45.469 112.872 45.469 112.616C45.469 112.36 45.789 112.2 46.429 112.136C46.845 112.104 47.277 112.072 47.725 112.04C48.429 111.976 48.877 111.816 49.069 111.56C49.165 111.4 49.213 110.504 49.213 108.872V83.528C49.213 82.088 49.133 81.24 48.973 80.984C48.845 80.728 48.349 80.584 47.485 80.552C46.493 80.488 45.901 80.44 45.709 80.408C45.549 80.376 45.469 80.248 45.469 80.024C45.469 79.768 45.677 79.64 46.093 79.64C46.221 79.64 46.493 79.656 46.909 79.688C47.709 79.752 49.597 79.784 52.573 79.784C54.205 79.784 55.341 79.768 55.981 79.736C56.205 79.704 56.493 79.688 56.845 79.688C57.421 79.688 57.709 79.848 57.709 80.168C57.709 80.456 57.181 80.6 56.125 80.6C55.101 80.6 54.477 80.728 54.253 80.984C54.061 81.208 53.965 81.96 53.965 83.24V94.28H68.413V83.96C68.413 82.264 68.285 81.272 68.029 80.984C67.773 80.664 66.877 80.52 65.341 80.552C64.861 80.552 64.621 80.408 64.621 80.12C64.621 79.832 64.893 79.688 65.437 79.688H65.677C66.125 79.688 66.909 79.688 68.029 79.688C69.181 79.72 70.045 79.736 70.621 79.736C72.573 79.736 73.885 79.72 74.557 79.688C75.261 79.656 75.709 79.64 75.901 79.64C76.573 79.64 76.909 79.784 76.909 80.072C76.909 80.36 76.205 80.52 74.797 80.552C74.381 80.552 74.077 80.584 73.885 80.648C73.565 80.744 73.357 80.92 73.261 81.176C73.197 81.432 73.165 82.184 73.165 83.432V108.968C73.165 110.504 73.245 111.4 73.405 111.656C73.725 112.008 74.653 112.184 76.189 112.184C76.701 112.12 76.957 112.248 76.957 112.568ZM105.273 105.224C105.273 105.352 105.241 106.136 105.177 107.576C105.113 109.016 105.081 110.392 105.081 111.704V113.288C101.945 113.128 95.7369 113.048 86.4569 113.048C85.3369 113.048 84.2329 113.064 83.1449 113.096C82.0569 113.096 81.3209 113.096 80.9369 113.096H80.4569C79.8489 113.096 79.5449 112.952 79.5449 112.664C79.5449 112.472 79.6409 112.36 79.8329 112.328C79.9289 112.328 80.5369 112.28 81.6569 112.184C82.4889 112.12 82.9849 111.944 83.1449 111.656C83.3369 111.368 83.4329 110.616 83.4329 109.4V82.424C83.4329 81.496 83.2889 80.952 83.0009 80.792C82.7449 80.6 81.8809 80.504 80.4089 80.504C79.8969 80.504 79.6409 80.36 79.6409 80.072C79.6409 79.784 79.9929 79.64 80.6969 79.64L88.9049 79.688C89.1929 79.688 91.0009 79.672 94.3289 79.64C97.6569 79.64 99.8969 79.64 101.049 79.64C102.009 79.64 102.889 79.576 103.689 79.448C103.753 80.824 103.897 82.728 104.121 85.16L104.313 87.224C104.345 87.384 104.361 87.592 104.361 87.848C104.361 88.168 104.217 88.328 103.929 88.328C103.577 88.328 103.321 87.928 103.161 87.128C102.553 84.248 101.561 82.424 100.185 81.656C99.1609 81.08 96.4729 80.792 92.1209 80.792H88.1849V94.856H89.3369C92.9209 94.856 95.0969 94.584 95.8649 94.04C96.6649 93.496 97.2089 91.912 97.4969 89.288C97.5609 88.616 97.7369 88.28 98.0249 88.28C98.3769 88.28 98.5529 88.568 98.5529 89.144C98.5529 89.72 98.5209 90.568 98.4569 91.688C98.3929 92.808 98.3609 93.656 98.3609 94.232C98.3609 97.656 98.4249 100.008 98.5529 101.288C98.5849 101.608 98.6009 101.88 98.6009 102.104C98.6009 102.52 98.4249 102.728 98.0729 102.728C97.8489 102.728 97.6889 102.6 97.5929 102.344C97.5289 102.056 97.4009 101.16 97.2089 99.656C96.9529 97.768 96.1689 96.6 94.8569 96.152C94.2809 95.96 92.7769 95.864 90.3449 95.864H88.1849V111.992C95.2249 111.992 99.3529 111.848 100.569 111.56C102.681 111.08 103.881 109.032 104.169 105.416C104.233 104.616 104.441 104.216 104.793 104.216C105.113 104.216 105.273 104.552 105.273 105.224ZM138.778 96.536C138.778 101.304 137.338 105.336 134.458 108.632C131.61 111.928 128.106 113.576 123.946 113.576C119.53 113.576 115.818 111.912 112.81 108.584C109.802 105.224 108.298 101.096 108.298 96.2C108.298 91.208 109.738 87.128 112.618 83.96C115.53 80.76 119.242 79.16 123.754 79.16C128.01 79.16 131.578 80.824 134.458 84.152C137.338 87.48 138.778 91.608 138.778 96.536ZM133.402 96.776C133.402 90.92 132.202 86.36 129.802 83.096C128.298 81.048 126.202 80.024 123.514 80.024C120.954 80.024 118.97 80.808 117.562 82.376C114.97 85.256 113.674 89.944 113.674 96.44C113.674 101.592 114.57 105.592 116.362 108.44C118.186 111.288 120.73 112.712 123.994 112.712C127.034 112.712 129.322 111.368 130.858 108.68C132.554 105.704 133.402 101.736 133.402 96.776ZM167.421 109.208C167.421 110.04 167.373 111.416 167.277 113.336H166.749C166.557 113.336 166.093 113.304 165.357 113.24C164.621 113.176 163.789 113.144 162.861 113.144L142.893 113C142.349 113 142.077 112.856 142.077 112.568C142.077 112.344 142.509 112.2 143.373 112.136C144.589 112.072 145.309 111.944 145.533 111.752C145.789 111.528 145.917 110.92 145.917 109.928V82.952C145.917 81.768 145.789 81.08 145.533 80.888C145.309 80.696 144.461 80.6 142.989 80.6C142.381 80.6 142.077 80.424 142.077 80.072C142.077 79.784 142.269 79.64 142.653 79.64H143.085C144.141 79.736 146.237 79.784 149.373 79.784C149.661 79.784 150.221 79.768 151.053 79.736C151.885 79.672 152.573 79.64 153.117 79.64H153.645C154.221 79.64 154.509 79.8 154.509 80.12C154.509 80.312 154.413 80.44 154.221 80.504C154.061 80.536 153.517 80.568 152.589 80.6C151.661 80.632 151.101 80.792 150.909 81.08C150.749 81.336 150.669 82.168 150.669 83.576V111.896C151.533 111.928 152.733 111.944 154.269 111.944C158.013 111.944 160.653 111.752 162.189 111.368C163.725 110.984 164.765 110.264 165.309 109.208C165.853 108.152 166.173 106.728 166.269 104.936C166.301 104.52 166.493 104.312 166.845 104.312C167.261 104.312 167.453 104.552 167.421 105.032L167.373 106.232C167.373 106.296 167.373 106.44 167.373 106.664C167.405 106.888 167.421 107.112 167.421 107.336V109.208ZM200.419 96.536C200.419 101.304 198.979 105.336 196.099 108.632C193.251 111.928 189.747 113.576 185.587 113.576C181.171 113.576 177.459 111.912 174.451 108.584C171.443 105.224 169.939 101.096 169.939 96.2C169.939 91.208 171.379 87.128 174.259 83.96C177.171 80.76 180.883 79.16 185.395 79.16C189.651 79.16 193.219 80.824 196.099 84.152C198.979 87.48 200.419 91.608 200.419 96.536ZM195.043 96.776C195.043 90.92 193.843 86.36 191.443 83.096C189.939 81.048 187.843 80.024 185.155 80.024C182.595 80.024 180.611 80.808 179.203 82.376C176.611 85.256 175.315 89.944 175.315 96.44C175.315 101.592 176.211 105.592 178.003 108.44C179.827 111.288 182.371 112.712 185.635 112.712C188.675 112.712 190.963 111.368 192.499 108.68C194.195 105.704 195.043 101.736 195.043 96.776ZM235.398 102.872C235.398 103.16 235.254 103.304 234.966 103.304L233.862 103.256C232.39 103.192 231.558 103.448 231.366 104.024C231.238 104.408 231.174 105.8 231.174 108.2V109.736C229.542 111.144 227.958 112.136 226.422 112.712C224.918 113.288 223.11 113.576 220.998 113.576C215.942 113.576 211.926 112.072 208.95 109.064C205.974 106.024 204.486 101.912 204.486 96.728C204.486 91.48 205.942 87.24 208.854 84.008C211.766 80.776 215.606 79.16 220.374 79.16C222.454 79.16 224.726 79.736 227.19 80.888C227.926 81.24 228.534 81.416 229.014 81.416C229.622 81.416 230.022 81.032 230.214 80.264C230.374 79.816 230.566 79.592 230.79 79.592C231.046 79.592 231.174 79.72 231.174 79.976C231.174 80.072 231.142 80.408 231.078 80.984C230.886 82.808 230.79 84.12 230.79 84.92L230.838 88.04C230.87 89.16 230.886 89.656 230.886 89.528C230.822 90.296 230.614 90.68 230.262 90.68C229.974 90.68 229.814 90.456 229.782 90.008C229.622 86.904 228.726 84.472 227.094 82.712C225.462 80.92 223.318 80.024 220.662 80.024C217.334 80.024 214.694 81.512 212.742 84.488C210.822 87.464 209.862 91.512 209.862 96.632C209.862 101.56 210.838 105.48 212.79 108.392C214.774 111.272 217.446 112.712 220.806 112.712C223.366 112.712 225.126 111.976 226.086 110.504C226.566 109.768 226.806 108.44 226.806 106.52C226.806 104.92 226.646 103.976 226.326 103.688C226.038 103.4 224.998 103.272 223.206 103.304C222.758 103.304 222.47 103.288 222.342 103.256C222.214 103.192 222.15 103.08 222.15 102.92C222.15 102.568 222.502 102.392 223.206 102.392H224.07C224.55 102.488 226.246 102.52 229.158 102.488L233.19 102.44C233.414 102.44 233.654 102.424 233.91 102.392C234.166 102.392 234.342 102.392 234.438 102.392C235.078 102.392 235.398 102.552 235.398 102.872ZM264.008 80.072C264.008 80.328 263.736 80.456 263.192 80.456C261.432 80.488 260.344 80.792 259.928 81.368C259.544 81.72 258.168 84.44 255.8 89.528C254.744 91.8 253.752 93.8 252.824 95.528C252.184 96.712 251.816 97.528 251.72 97.976C251.624 98.392 251.576 99.32 251.576 100.76V109.832C251.576 110.888 251.704 111.512 251.96 111.704C252.248 111.896 253.208 112.04 254.84 112.136C255.704 112.2 256.136 112.36 256.136 112.616C256.136 112.872 255.912 113 255.464 113H254.888L248.168 112.856C246.28 112.856 244.728 112.888 243.512 112.952C243.32 112.984 243.096 113 242.84 113C242.392 113 242.168 112.856 242.168 112.568C242.168 112.28 242.536 112.12 243.272 112.088C245.032 112.024 246.072 111.864 246.392 111.608C246.712 111.352 246.872 110.584 246.872 109.304V99.176C246.552 98.472 245.624 96.6 244.088 93.56L239.288 84.056C238.808 83.128 238.232 82.088 237.56 80.936C237.208 80.616 236.44 80.456 235.256 80.456C234.104 80.456 233.528 80.28 233.528 79.928C233.528 79.672 233.784 79.544 234.296 79.544C234.968 79.544 236.312 79.576 238.328 79.64C239.48 79.672 240.312 79.688 240.824 79.688L246.392 79.64C246.616 79.608 246.872 79.592 247.16 79.592C247.736 79.592 248.024 79.752 248.024 80.072C248.024 80.36 247.48 80.504 246.392 80.504C244.408 80.504 243.416 80.856 243.416 81.56C243.416 82.104 244.424 84.296 246.44 88.136L250.808 96.44C251.608 95 252.52 93.224 253.544 91.112L256.376 85.4C257.432 83.352 257.96 82.008 257.96 81.368C257.96 80.952 257.688 80.712 257.144 80.648C256.024 80.488 255.272 80.424 254.888 80.456C254.184 80.488 253.832 80.328 253.832 79.976C253.832 79.72 254.136 79.592 254.744 79.592L257.528 79.64L259.112 79.592C262.376 79.496 264.008 79.656 264.008 80.072ZM39.904 139.656C39.904 142.76 38.576 145.176 35.92 146.904C34.256 147.992 32.144 148.536 29.584 148.536C28.496 148.536 27.264 148.424 25.888 148.2V161.832C25.888 162.568 25.92 163.032 25.984 163.224C26.144 163.672 26.496 163.944 27.04 164.04C27.968 164.168 28.864 164.232 29.728 164.232C30.08 164.232 30.256 164.344 30.256 164.568C30.256 164.888 30.032 165.048 29.584 165.048C29.392 165.048 29.232 165.032 29.104 165C27.344 165.032 24.032 165.048 19.168 165.048H18.544C17.584 165.048 17.104 164.888 17.104 164.568C17.104 164.344 17.44 164.232 18.112 164.232C19.616 164.232 20.48 164.088 20.704 163.8C20.96 163.672 21.104 163.352 21.136 162.84V134.52C21.136 133.528 20.864 132.92 20.32 132.696C20 132.568 19.44 132.504 18.64 132.504H18.16C18.064 132.536 17.952 132.552 17.824 132.552C17.344 132.552 17.104 132.408 17.104 132.12C17.104 131.8 17.552 131.64 18.448 131.64H29.008C32.656 131.64 35.328 132.28 37.024 133.56C38.944 135 39.904 137.032 39.904 139.656ZM34.864 139.752C34.864 134.952 32.848 132.552 28.816 132.552C27.472 132.552 26.592 132.776 26.176 133.224C25.984 133.416 25.888 133.912 25.888 134.712V147.48C26.144 147.512 26.432 147.528 26.752 147.528C28.864 147.528 30.656 147.064 32.128 146.136C33.952 144.984 34.864 142.856 34.864 139.752ZM71.2435 164.664C71.2435 164.952 71.0035 165.096 70.5235 165.096C70.2035 165.096 69.9155 165.08 69.6595 165.048L63.5635 164.952L57.4675 165.048C57.2435 165.08 57.0035 165.096 56.7475 165.096C56.1075 165.096 55.7875 164.936 55.7875 164.616C55.7875 164.264 56.2195 164.088 57.0835 164.088C59.8995 164.056 61.3075 163.768 61.3075 163.224C61.3075 163.192 61.2755 163.064 61.2115 162.84L60.8275 161.544L60.5875 160.872C60.2995 159.88 59.5955 157.688 58.4755 154.296H48.2035C46.2835 159.416 45.3235 162.36 45.3235 163.128C45.3235 163.576 45.5155 163.848 45.8995 163.944C45.9955 163.976 46.7955 164.04 48.2995 164.136C49.2275 164.168 49.6915 164.328 49.6915 164.616C49.6915 164.936 49.2755 165.096 48.4435 165.096C46.9715 165.096 45.2595 165.032 43.3075 164.904C42.8275 164.872 42.3315 164.856 41.8195 164.856C41.3075 164.856 40.8115 164.888 40.3315 164.952C40.0755 164.984 39.8675 165 39.7075 165C39.2595 165 39.0355 164.856 39.0355 164.568C39.0355 164.28 39.5315 164.12 40.5235 164.088C41.5475 164.056 42.2835 163.912 42.7315 163.656C43.1795 163.368 43.5315 162.84 43.7875 162.072C47.9155 150.296 51.2755 140.84 53.8675 133.704C53.9315 133.32 54.0595 132.888 54.2515 132.408L54.4915 131.544C54.5875 131.192 54.7155 131.016 54.8755 131.016C54.9715 131.016 55.0515 131.112 55.1155 131.304C55.5315 132.552 56.4755 135.16 57.9475 139.128C59.0995 142.232 61.9635 150.024 66.5395 162.504C66.7955 163.208 67.1155 163.656 67.4995 163.848C67.9155 164.04 68.7475 164.152 69.9955 164.184C70.8275 164.216 71.2435 164.376 71.2435 164.664ZM58.1875 153.192C57.6755 151.752 56.8275 149.368 55.6435 146.04L53.3395 139.464C51.9955 142.984 50.3795 147.56 48.4915 153.192H58.1875ZM92.9665 139.656C92.9665 142.76 91.6385 145.176 88.9825 146.904C87.3185 147.992 85.2065 148.536 82.6465 148.536C81.5585 148.536 80.3265 148.424 78.9505 148.2V161.832C78.9505 162.568 78.9825 163.032 79.0465 163.224C79.2065 163.672 79.5585 163.944 80.1025 164.04C81.0305 164.168 81.9265 164.232 82.7905 164.232C83.1425 164.232 83.3185 164.344 83.3185 164.568C83.3185 164.888 83.0945 165.048 82.6465 165.048C82.4545 165.048 82.2945 165.032 82.1665 165C80.4065 165.032 77.0945 165.048 72.2305 165.048H71.6065C70.6465 165.048 70.1665 164.888 70.1665 164.568C70.1665 164.344 70.5025 164.232 71.1745 164.232C72.6785 164.232 73.5425 164.088 73.7665 163.8C74.0225 163.672 74.1665 163.352 74.1985 162.84V134.52C74.1985 133.528 73.9265 132.92 73.3825 132.696C73.0625 132.568 72.5025 132.504 71.7025 132.504H71.2225C71.1265 132.536 71.0145 132.552 70.8865 132.552C70.4065 132.552 70.1665 132.408 70.1665 132.12C70.1665 131.8 70.6145 131.64 71.5105 131.64H82.0705C85.7185 131.64 88.3905 132.28 90.0865 133.56C92.0065 135 92.9665 137.032 92.9665 139.656ZM87.9265 139.752C87.9265 134.952 85.9105 132.552 81.8785 132.552C80.5345 132.552 79.6545 132.776 79.2385 133.224C79.0465 133.416 78.9505 133.912 78.9505 134.712V147.48C79.2065 147.512 79.4945 147.528 79.8145 147.528C81.9265 147.528 83.7185 147.064 85.1905 146.136C87.0145 144.984 87.9265 142.856 87.9265 139.752ZM120.226 157.224C120.226 157.352 120.194 158.136 120.13 159.576C120.066 161.016 120.034 162.392 120.034 163.704V165.288C116.898 165.128 110.69 165.048 101.41 165.048C100.29 165.048 99.186 165.064 98.098 165.096C97.01 165.096 96.274 165.096 95.89 165.096H95.41C94.802 165.096 94.498 164.952 94.498 164.664C94.498 164.472 94.594 164.36 94.786 164.328C94.882 164.328 95.49 164.28 96.61 164.184C97.442 164.12 97.938 163.944 98.098 163.656C98.29 163.368 98.386 162.616 98.386 161.4V134.424C98.386 133.496 98.242 132.952 97.954 132.792C97.698 132.6 96.834 132.504 95.362 132.504C94.85 132.504 94.594 132.36 94.594 132.072C94.594 131.784 94.946 131.64 95.65 131.64L103.858 131.688C104.146 131.688 105.954 131.672 109.282 131.64C112.61 131.64 114.85 131.64 116.002 131.64C116.962 131.64 117.842 131.576 118.642 131.448C118.706 132.824 118.85 134.728 119.074 137.16L119.266 139.224C119.298 139.384 119.314 139.592 119.314 139.848C119.314 140.168 119.17 140.328 118.882 140.328C118.53 140.328 118.274 139.928 118.114 139.128C117.506 136.248 116.514 134.424 115.138 133.656C114.114 133.08 111.426 132.792 107.074 132.792H103.138V146.856H104.29C107.874 146.856 110.05 146.584 110.818 146.04C111.618 145.496 112.162 143.912 112.45 141.288C112.514 140.616 112.69 140.28 112.978 140.28C113.33 140.28 113.506 140.568 113.506 141.144C113.506 141.72 113.474 142.568 113.41 143.688C113.346 144.808 113.314 145.656 113.314 146.232C113.314 149.656 113.378 152.008 113.506 153.288C113.538 153.608 113.554 153.88 113.554 154.104C113.554 154.52 113.378 154.728 113.026 154.728C112.802 154.728 112.642 154.6 112.546 154.344C112.482 154.056 112.354 153.16 112.162 151.656C111.906 149.768 111.122 148.6 109.81 148.152C109.234 147.96 107.73 147.864 105.298 147.864H103.138V163.992C110.178 163.992 114.306 163.848 115.522 163.56C117.634 163.08 118.834 161.032 119.122 157.416C119.186 156.616 119.394 156.216 119.746 156.216C120.066 156.216 120.226 156.552 120.226 157.224ZM149.7 163.56C149.7 164.904 148.58 165.576 146.34 165.576C143.844 165.576 141.892 164.536 140.484 162.456C139.876 161.56 139.476 160.696 139.284 159.864C139.124 159.032 138.868 156.92 138.516 153.528C138.324 151.48 137.668 150.04 136.548 149.208C135.428 148.344 133.604 147.88 131.076 147.816V162.936C131.076 163.576 131.588 163.976 132.612 164.136C132.9 164.168 133.636 164.2 134.82 164.232C135.236 164.232 135.444 164.36 135.444 164.616C135.444 164.904 135.172 165.048 134.628 165.048H134.052C133.764 165.016 132.372 165 129.876 165C129.396 165 128.58 165.016 127.428 165.048C126.308 165.048 125.572 165.048 125.22 165.048H123.348C122.644 165.048 122.292 164.904 122.292 164.616C122.292 164.392 122.756 164.264 123.684 164.232C125.188 164.2 126.004 164.008 126.132 163.656C126.26 163.496 126.324 162.872 126.324 161.784V135.288C126.324 134.008 126.18 133.24 125.892 132.984C125.636 132.728 124.82 132.584 123.444 132.552C122.644 132.552 122.244 132.408 122.244 132.12C122.244 131.8 122.5 131.64 123.012 131.64C123.108 131.64 123.252 131.656 123.444 131.688L129.828 131.832C130.468 131.832 131.364 131.816 132.516 131.784C133.796 131.72 134.692 131.688 135.204 131.688C138.18 131.688 140.532 132.36 142.26 133.704C144.02 135.016 144.9 136.808 144.9 139.08C144.9 141.32 144.004 143.176 142.212 144.648C140.42 146.088 137.988 146.936 134.916 147.192C134.628 147.224 134.468 147.272 134.436 147.336C134.436 147.464 134.596 147.528 134.916 147.528C138.276 148.104 140.58 149.288 141.828 151.08C143.108 152.84 143.956 156.04 144.372 160.68C144.628 163.304 145.524 164.616 147.06 164.616C147.54 164.616 147.78 164.52 147.78 164.328C147.78 164.296 147.764 164.264 147.732 164.232C147.572 163.88 147.492 163.592 147.492 163.368C147.492 162.696 147.844 162.36 148.548 162.36C149.316 162.36 149.7 162.76 149.7 163.56ZM139.764 139.512C139.764 134.936 137.78 132.648 133.812 132.648C132.756 132.648 132.036 132.792 131.652 133.08C131.268 133.368 131.076 133.88 131.076 134.616V146.808C134.148 146.84 136.356 146.28 137.7 145.128C139.076 143.976 139.764 142.104 139.764 139.512ZM171.918 155.64C171.918 158.392 170.862 160.744 168.75 162.696C166.67 164.616 164.158 165.576 161.214 165.576C159.486 165.576 157.422 165.048 155.022 163.992C154.382 163.704 153.902 163.56 153.582 163.56C153.198 163.56 152.958 164.024 152.862 164.952C152.83 165.432 152.622 165.672 152.238 165.672C151.918 165.672 151.758 165.48 151.758 165.096C151.758 164.84 151.774 164.648 151.806 164.52C152.062 162.568 152.19 160.76 152.19 159.096C152.19 158.776 152.158 157.88 152.094 156.408C152.062 156.216 152.046 155.96 152.046 155.64C152.046 155.16 152.238 154.92 152.622 154.92C152.942 154.92 153.166 155.304 153.294 156.072C154.126 161.768 156.83 164.616 161.406 164.616C163.358 164.616 164.862 164.072 165.918 162.984C167.006 161.864 167.55 160.296 167.55 158.28C167.55 156.488 167.022 154.968 165.966 153.72C164.942 152.44 163.166 151.176 160.638 149.928C157.598 148.424 155.486 146.968 154.302 145.56C153.118 144.152 152.526 142.408 152.526 140.328C152.526 137.672 153.374 135.48 155.07 133.752C156.798 132.024 158.974 131.16 161.598 131.16C162.686 131.16 164.19 131.528 166.11 132.264C166.782 132.52 167.278 132.648 167.598 132.648C167.95 132.648 168.174 132.584 168.27 132.456C168.398 132.328 168.51 131.992 168.606 131.448C168.67 131.128 168.846 130.968 169.134 130.968C169.454 130.968 169.614 131.16 169.614 131.544C169.614 131.8 169.598 131.992 169.566 132.12C169.47 132.888 169.422 133.816 169.422 134.904C169.422 136.44 169.502 137.656 169.662 138.552L169.71 139.32C169.742 139.672 169.598 139.848 169.278 139.848C168.926 139.848 168.686 139.48 168.558 138.744C168.206 136.856 167.374 135.288 166.062 134.04C164.75 132.76 163.278 132.12 161.646 132.12C160.046 132.12 158.766 132.632 157.806 133.656C156.878 134.68 156.414 136.072 156.414 137.832C156.414 139.88 157.102 141.528 158.478 142.776C159.246 143.48 160.91 144.472 163.47 145.752C166.478 147.256 168.638 148.792 169.95 150.36C171.262 151.896 171.918 153.656 171.918 155.64ZM39.904 191.656C39.904 194.76 38.576 197.176 35.92 198.904C34.256 199.992 32.144 200.536 29.584 200.536C28.496 200.536 27.264 200.424 25.888 200.2V213.832C25.888 214.568 25.92 215.032 25.984 215.224C26.144 215.672 26.496 215.944 27.04 216.04C27.968 216.168 28.864 216.232 29.728 216.232C30.08 216.232 30.256 216.344 30.256 216.568C30.256 216.888 30.032 217.048 29.584 217.048C29.392 217.048 29.232 217.032 29.104 217C27.344 217.032 24.032 217.048 19.168 217.048H18.544C17.584 217.048 17.104 216.888 17.104 216.568C17.104 216.344 17.44 216.232 18.112 216.232C19.616 216.232 20.48 216.088 20.704 215.8C20.96 215.672 21.104 215.352 21.136 214.84V186.52C21.136 185.528 20.864 184.92 20.32 184.696C20 184.568 19.44 184.504 18.64 184.504H18.16C18.064 184.536 17.952 184.552 17.824 184.552C17.344 184.552 17.104 184.408 17.104 184.12C17.104 183.8 17.552 183.64 18.448 183.64H29.008C32.656 183.64 35.328 184.28 37.024 185.56C38.944 187 39.904 189.032 39.904 191.656ZM34.864 191.752C34.864 186.952 32.848 184.552 28.816 184.552C27.472 184.552 26.592 184.776 26.176 185.224C25.984 185.416 25.888 185.912 25.888 186.712V199.48C26.144 199.512 26.432 199.528 26.752 199.528C28.864 199.528 30.656 199.064 32.128 198.136C33.952 196.984 34.864 194.856 34.864 191.752ZM68.6995 215.56C68.6995 216.904 67.5795 217.576 65.3395 217.576C62.8435 217.576 60.8915 216.536 59.4835 214.456C58.8755 213.56 58.4755 212.696 58.2835 211.864C58.1235 211.032 57.8675 208.92 57.5155 205.528C57.3235 203.48 56.6675 202.04 55.5475 201.208C54.4275 200.344 52.6035 199.88 50.0755 199.816V214.936C50.0755 215.576 50.5875 215.976 51.6115 216.136C51.8995 216.168 52.6355 216.2 53.8195 216.232C54.2355 216.232 54.4435 216.36 54.4435 216.616C54.4435 216.904 54.1715 217.048 53.6275 217.048H53.0515C52.7635 217.016 51.3715 217 48.8755 217C48.3955 217 47.5795 217.016 46.4275 217.048C45.3075 217.048 44.5715 217.048 44.2195 217.048H42.3475C41.6435 217.048 41.2915 216.904 41.2915 216.616C41.2915 216.392 41.7555 216.264 42.6835 216.232C44.1875 216.2 45.0035 216.008 45.1315 215.656C45.2595 215.496 45.3235 214.872 45.3235 213.784V187.288C45.3235 186.008 45.1795 185.24 44.8915 184.984C44.6355 184.728 43.8195 184.584 42.4435 184.552C41.6435 184.552 41.2435 184.408 41.2435 184.12C41.2435 183.8 41.4995 183.64 42.0115 183.64C42.1075 183.64 42.2515 183.656 42.4435 183.688L48.8275 183.832C49.4675 183.832 50.3635 183.816 51.5155 183.784C52.7955 183.72 53.6915 183.688 54.2035 183.688C57.1795 183.688 59.5315 184.36 61.2595 185.704C63.0195 187.016 63.8995 188.808 63.8995 191.08C63.8995 193.32 63.0035 195.176 61.2115 196.648C59.4195 198.088 56.9875 198.936 53.9155 199.192C53.6275 199.224 53.4675 199.272 53.4355 199.336C53.4355 199.464 53.5955 199.528 53.9155 199.528C57.2755 200.104 59.5795 201.288 60.8275 203.08C62.1075 204.84 62.9555 208.04 63.3715 212.68C63.6275 215.304 64.5235 216.616 66.0595 216.616C66.5395 216.616 66.7795 216.52 66.7795 216.328C66.7795 216.296 66.7635 216.264 66.7315 216.232C66.5715 215.88 66.4915 215.592 66.4915 215.368C66.4915 214.696 66.8435 214.36 67.5475 214.36C68.3155 214.36 68.6995 214.76 68.6995 215.56ZM58.7635 191.512C58.7635 186.936 56.7795 184.648 52.8115 184.648C51.7555 184.648 51.0355 184.792 50.6515 185.08C50.2675 185.368 50.0755 185.88 50.0755 186.616V198.808C53.1475 198.84 55.3555 198.28 56.6995 197.128C58.0755 195.976 58.7635 194.104 58.7635 191.512ZM100.95 200.536C100.95 205.304 99.5103 209.336 96.6302 212.632C93.7823 215.928 90.2783 217.576 86.1183 217.576C81.7023 217.576 77.9903 215.912 74.9823 212.584C71.9743 209.224 70.4703 205.096 70.4703 200.2C70.4703 195.208 71.9103 191.128 74.7903 187.96C77.7023 184.76 81.4143 183.16 85.9263 183.16C90.1823 183.16 93.7503 184.824 96.6302 188.152C99.5103 191.48 100.95 195.608 100.95 200.536ZM95.5743 200.776C95.5743 194.92 94.3743 190.36 91.9743 187.096C90.4703 185.048 88.3743 184.024 85.6863 184.024C83.1263 184.024 81.1423 184.808 79.7343 186.376C77.1423 189.256 75.8463 193.944 75.8463 200.44C75.8463 205.592 76.7423 209.592 78.5343 212.44C80.3583 215.288 82.9023 216.712 86.1663 216.712C89.2063 216.712 91.4943 215.368 93.0303 212.68C94.7263 209.704 95.5743 205.736 95.5743 200.776ZM117.881 184.12C117.881 184.376 117.545 184.504 116.873 184.504C115.657 184.504 114.905 184.552 114.617 184.648C114.329 184.712 114.153 184.84 114.089 185.032C114.057 185.224 114.041 185.848 114.041 186.904V202.312C114.041 202.312 114.057 203.8 114.089 206.776C114.121 208.984 114.121 210.792 114.089 212.2C114.025 214.184 113.881 215.672 113.657 216.664C113.273 218.328 112.329 219.752 110.825 220.936C109.321 222.152 107.721 222.76 106.025 222.76C104.777 222.76 103.769 222.424 103.001 221.752C102.233 221.112 101.849 220.264 101.849 219.208C101.849 217.384 102.745 216.472 104.537 216.472C105.273 216.472 105.881 216.696 106.361 217.144C106.873 217.592 107.129 218.168 107.129 218.872C107.129 219.48 106.921 220.024 106.505 220.504C106.217 220.856 106.073 221.128 106.073 221.32C106.073 221.608 106.313 221.752 106.793 221.752C107.817 221.752 108.537 221.128 108.953 219.88C109.177 219.208 109.289 217.24 109.289 213.976V186.568C109.289 185.544 108.985 184.904 108.377 184.648C108.089 184.552 107.321 184.504 106.073 184.504C105.497 184.504 105.129 184.472 104.969 184.408C104.841 184.344 104.777 184.248 104.777 184.12C104.777 183.8 105.033 183.64 105.545 183.64C105.641 183.64 106.073 183.656 106.841 183.688C107.833 183.72 108.649 183.736 109.289 183.736L116.345 183.64C117.369 183.64 117.881 183.8 117.881 184.12ZM145.679 209.224C145.679 209.352 145.647 210.136 145.583 211.576C145.519 213.016 145.487 214.392 145.487 215.704V217.288C142.351 217.128 136.143 217.048 126.863 217.048C125.743 217.048 124.639 217.064 123.551 217.096C122.463 217.096 121.727 217.096 121.343 217.096H120.863C120.255 217.096 119.951 216.952 119.951 216.664C119.951 216.472 120.047 216.36 120.239 216.328C120.335 216.328 120.943 216.28 122.063 216.184C122.895 216.12 123.391 215.944 123.551 215.656C123.743 215.368 123.839 214.616 123.839 213.4V186.424C123.839 185.496 123.695 184.952 123.407 184.792C123.151 184.6 122.287 184.504 120.815 184.504C120.303 184.504 120.047 184.36 120.047 184.072C120.047 183.784 120.399 183.64 121.103 183.64L129.311 183.688C129.599 183.688 131.407 183.672 134.735 183.64C138.063 183.64 140.303 183.64 141.455 183.64C142.415 183.64 143.295 183.576 144.095 183.448C144.159 184.824 144.303 186.728 144.527 189.16L144.719 191.224C144.751 191.384 144.767 191.592 144.767 191.848C144.767 192.168 144.623 192.328 144.335 192.328C143.983 192.328 143.727 191.928 143.567 191.128C142.959 188.248 141.967 186.424 140.591 185.656C139.567 185.08 136.879 184.792 132.527 184.792H128.591V198.856H129.743C133.327 198.856 135.503 198.584 136.271 198.04C137.071 197.496 137.615 195.912 137.903 193.288C137.967 192.616 138.143 192.28 138.431 192.28C138.783 192.28 138.959 192.568 138.959 193.144C138.959 193.72 138.927 194.568 138.863 195.688C138.799 196.808 138.767 197.656 138.767 198.232C138.767 201.656 138.831 204.008 138.959 205.288C138.991 205.608 139.007 205.88 139.007 206.104C139.007 206.52 138.831 206.728 138.479 206.728C138.255 206.728 138.095 206.6 137.999 206.344C137.935 206.056 137.807 205.16 137.615 203.656C137.359 201.768 136.575 200.6 135.263 200.152C134.687 199.96 133.183 199.864 130.751 199.864H128.591V215.992C135.631 215.992 139.759 215.848 140.975 215.56C143.087 215.08 144.287 213.032 144.575 209.416C144.639 208.616 144.847 208.216 145.199 208.216C145.519 208.216 145.679 208.552 145.679 209.224ZM175.825 206.296C175.825 206.232 175.793 206.664 175.729 207.592C175.601 209.448 175.537 211.24 175.537 212.968C175.537 213.16 175.569 213.56 175.633 214.168C175.697 214.744 175.729 215.448 175.729 216.28V216.712C175.729 217.128 175.601 217.336 175.345 217.336C175.089 217.336 174.865 217.096 174.673 216.616C174.225 215.56 173.777 214.872 173.329 214.552C171.025 216.568 168.257 217.576 165.025 217.576C160.321 217.576 156.417 215.944 153.313 212.68C150.241 209.384 148.705 205.24 148.705 200.248C148.705 195.224 150.113 191.128 152.929 187.96C155.777 184.76 159.441 183.16 163.921 183.16C165.553 183.16 166.849 183.304 167.809 183.592C168.801 183.848 170.017 184.392 171.457 185.224C172.161 185.64 172.689 185.848 173.041 185.848C173.329 185.848 173.601 185.592 173.857 185.08C174.273 184.184 174.609 183.736 174.865 183.736C175.121 183.736 175.249 183.864 175.249 184.12C175.249 184.248 175.217 184.456 175.153 184.744C174.801 186.28 174.625 189.16 174.625 193.384C174.625 193.992 174.577 194.344 174.481 194.44C174.385 194.536 174.257 194.584 174.097 194.584C173.777 194.584 173.569 194.28 173.473 193.672C173.057 191.112 172.465 189.208 171.697 187.96C170.129 185.4 167.665 184.12 164.305 184.12C161.713 184.12 159.665 184.984 158.161 186.712C155.441 189.816 154.081 194.36 154.081 200.344C154.081 205.688 155.201 209.832 157.441 212.776C159.393 215.336 161.985 216.616 165.217 216.616C166.881 216.616 168.401 216.216 169.777 215.416C171.153 214.584 172.209 213.464 172.945 212.056C173.777 210.424 174.369 208.648 174.721 206.728C174.849 205.96 175.057 205.576 175.345 205.576C175.665 205.576 175.825 205.816 175.825 206.296ZM205.408 192.184C205.408 192.6 205.216 192.808 204.832 192.808C204.448 192.808 204.176 192.392 204.016 191.56C203.952 190.984 203.888 190.408 203.824 189.832C203.6 188.68 203.232 187.704 202.72 186.904C202.048 185.848 200.944 185.176 199.408 184.888C198.416 184.696 197.616 184.616 197.008 184.648C195.504 184.712 194.592 184.76 194.272 184.792V213.736C194.272 214.888 194.576 215.608 195.184 215.896C195.504 216.056 196.4 216.152 197.872 216.184C198.256 216.216 198.448 216.36 198.448 216.616C198.448 216.904 198.192 217.048 197.68 217.048C197.424 217.048 197.2 217.032 197.008 217C195.088 216.936 193.728 216.904 192.928 216.904C191.872 216.904 190.88 216.92 189.952 216.952C189.024 216.984 187.84 217 186.4 217C185.664 217 185.296 216.872 185.296 216.616C185.296 216.328 185.984 216.168 187.36 216.136C188.352 216.136 188.992 215.928 189.28 215.512C189.44 215.256 189.52 214.6 189.52 213.544V184.792C186.352 184.824 184.384 184.984 183.616 185.272C181.6 186.008 180.416 187.976 180.064 191.176C179.968 192.136 179.744 192.616 179.392 192.616C179.008 192.616 178.816 192.28 178.816 191.608C178.816 191.256 178.832 190.904 178.864 190.552L178.96 189.448C179.056 187.976 179.2 186.04 179.392 183.64H181.552L191.344 183.784C192.496 183.816 194.288 183.8 196.72 183.736L204.688 183.592C204.752 185.384 204.96 188.04 205.312 191.56C205.312 191.656 205.328 191.784 205.36 191.944C205.392 192.072 205.408 192.152 205.408 192.184Z" fill="white"/>
</svg>
