<svg width="300" height="400" viewBox="0 0 300 400" fill="none" xmlns="http://www.w3.org/2000/svg">
<g clip-path="url(#clip0)">
<rect width="300" height="400" fill="url(#paint0_linear)"/>
<path d="M12.1464 152.103C12.1464 154.955 12.1464 157.404 11.9914 158.706C11.8674 159.605 11.7124 160.287 11.0924 160.411C10.8134 160.473 10.4414 160.535 9.97638 160.535C9.60438 160.535 9.48038 160.628 9.48038 160.783C9.48038 161 9.69738 161.093 10.1004 161.093C10.7204 161.093 11.5264 161.031 12.2394 161.031C12.9834 161 13.6654 161 14.0064 161C14.9364 161 15.8974 161.031 17.2304 161.093C18.5634 161.124 20.2684 161.186 22.5934 161.186C23.7714 161.186 24.0504 161.186 24.2674 160.38C24.4224 159.76 24.6704 157.652 24.6704 156.939C24.6704 156.629 24.6704 156.381 24.4224 156.381C24.2054 156.381 24.1434 156.505 24.0814 156.846C23.8644 158.117 23.4924 158.768 22.6864 159.14C21.8804 159.512 20.5784 159.512 19.7724 159.512C16.6104 159.512 16.1144 159.047 16.0524 156.908C16.0214 156.009 16.0524 153.157 16.0524 152.103V149.654C16.0524 149.468 16.0834 149.344 16.2384 149.344C16.9824 149.344 20.0514 149.375 20.6404 149.437C21.7874 149.561 22.2214 150.026 22.3764 150.646C22.4694 151.049 22.4694 151.452 22.5004 151.762C22.5004 151.917 22.5624 152.041 22.7794 152.041C23.0584 152.041 23.0584 151.7 23.0584 151.452C23.0584 151.235 23.1514 149.995 23.1824 149.375C23.3064 147.794 23.4304 147.298 23.4304 147.112C23.4304 146.926 23.3374 146.864 23.2134 146.864C23.0584 146.864 22.9344 147.019 22.7174 147.267C22.4384 147.577 21.9734 147.67 21.2294 147.732C20.5164 147.794 16.9514 147.794 16.2694 147.794C16.0834 147.794 16.0524 147.67 16.0524 147.453V139.61C16.0524 139.393 16.1144 139.3 16.2694 139.3C16.8894 139.3 20.1444 139.362 20.6714 139.424C22.2214 139.61 22.5314 139.982 22.7484 140.54C22.9034 140.912 22.9344 141.439 22.9344 141.656C22.9344 141.935 22.9964 142.09 23.2134 142.09C23.4304 142.09 23.4924 141.904 23.5234 141.749C23.5854 141.377 23.6474 140.013 23.6784 139.703C23.7714 138.277 23.9264 137.905 23.9264 137.688C23.9264 137.533 23.8954 137.409 23.7404 137.409C23.5854 137.409 23.3994 137.502 23.2444 137.533C22.9964 137.595 22.5004 137.657 21.9114 137.719C21.3224 137.75 15.1534 137.75 14.1614 137.75C13.7274 137.75 13.0144 137.719 12.2084 137.688C11.4334 137.688 10.5344 137.657 9.69738 137.657C9.23238 137.657 9.01538 137.719 9.01538 137.936C9.01538 138.153 9.20138 138.215 9.54238 138.215C9.97638 138.215 10.5034 138.246 10.7514 138.308C11.7744 138.525 12.0224 139.021 12.0844 140.075C12.1464 141.067 12.1464 141.935 12.1464 146.647V152.103ZM31.9028 146.74H31.9958C32.5228 147.205 35.4058 150.398 38.3818 153.25C41.2338 156.009 44.6438 159.264 46.3488 160.845C46.6278 161.124 46.9998 161.403 47.4648 161.403C47.6818 161.403 47.8988 161.155 47.8988 160.566L48.2088 143.95C48.2398 142.462 48.4568 141.997 49.2008 141.78C49.5418 141.687 49.7588 141.687 50.0378 141.687C50.3478 141.687 50.5028 141.563 50.5028 141.408C50.5028 141.191 50.2548 141.16 49.8828 141.16C48.5498 141.16 47.5268 141.222 47.2168 141.222C46.6278 141.222 45.1708 141.16 43.7448 141.16C43.3418 141.16 43.0628 141.191 43.0628 141.408C43.0628 141.563 43.1558 141.687 43.4968 141.687C43.8688 141.687 44.5198 141.687 44.9228 141.842C45.5738 142.09 45.8218 142.555 45.8528 144.167L46.1318 155.885H46.0078C45.6048 155.513 41.9778 151.793 40.1178 149.964C36.1498 146.089 32.0578 141.904 31.7168 141.563C31.2518 141.098 30.8798 140.695 30.5388 140.695C30.2598 140.695 30.0738 141.067 30.0738 141.594L29.8258 157.218C29.7948 159.512 29.7018 160.225 28.9888 160.411C28.6168 160.504 28.1208 160.535 27.7488 160.535C27.5008 160.535 27.3148 160.659 27.3148 160.814C27.3148 161.062 27.5628 161.093 27.9348 161.093C29.3298 161.093 30.6318 161 30.8798 161C31.3758 161 32.6468 161.093 34.4138 161.093C34.7858 161.093 35.0338 161.031 35.0338 160.814C35.0338 160.659 34.8788 160.535 34.5688 160.535C34.1348 160.535 33.6078 160.504 33.1428 160.349C32.6158 160.163 32.2748 159.543 32.2128 157.497L31.9028 146.74ZM60.8823 159.853C61.4093 161.093 61.6263 161.434 61.9983 161.434C62.3703 161.434 62.6183 161.031 63.3003 159.512C63.9203 158.179 65.1913 155.296 66.9273 151.452C68.4153 148.228 69.1283 146.802 70.2133 144.322C70.9263 142.648 71.2983 142.245 71.6393 141.997C72.1043 141.656 72.6933 141.687 72.9723 141.687C73.2513 141.687 73.4063 141.594 73.4063 141.408C73.4063 141.222 73.1893 141.16 72.8483 141.16C72.0113 141.16 70.7403 141.222 70.2753 141.222C69.9343 141.222 68.7253 141.16 67.3613 141.16C66.8343 141.16 66.5863 141.222 66.5863 141.408C66.5863 141.594 66.8033 141.687 67.0513 141.687C67.3923 141.687 67.8263 141.718 68.1363 141.811C68.3843 141.904 68.5083 141.997 68.5083 142.276C68.5083 142.493 68.3843 142.896 68.2603 143.237C67.6093 144.973 64.1063 153.467 62.9283 156.195H62.8353L58.2473 144.384C57.8753 143.454 57.6273 142.741 57.6273 142.4C57.6273 142.152 57.7203 141.997 57.9063 141.873C58.1233 141.718 58.5263 141.687 58.9603 141.687C59.2083 141.687 59.3943 141.594 59.3943 141.408C59.3943 141.222 59.0843 141.16 58.7433 141.16C57.3793 141.16 55.9533 141.222 55.2713 141.222C54.3103 141.222 52.7603 141.16 51.3033 141.16C50.9003 141.16 50.6213 141.191 50.6213 141.408C50.6213 141.563 50.6833 141.687 50.9313 141.687C51.1483 141.687 51.5823 141.687 51.9853 141.78C52.9773 142.028 53.3803 142.276 54.0003 143.733L60.8823 159.853ZM76.3115 153.436C76.3115 155.978 76.3115 158.086 76.1875 159.171C76.0945 159.946 75.9395 160.318 75.3815 160.442C75.1335 160.504 74.8235 160.535 74.4205 160.535C74.0795 160.535 73.9865 160.69 73.9865 160.814C73.9865 161 74.1725 161.093 74.5135 161.093C75.5985 161.093 77.4585 161 78.0785 161C78.8225 161 80.6825 161.093 82.4805 161.093C82.7905 161.093 83.0075 161 83.0075 160.814C83.0075 160.69 82.8835 160.535 82.5735 160.535C82.1705 160.535 81.5505 160.504 81.1785 160.442C80.3725 160.318 80.1865 159.915 80.0935 159.202C79.9695 158.086 79.9695 155.978 79.9695 153.436V148.786C79.9695 144.787 79.9695 144.043 80.0315 143.206C80.0935 142.276 80.3105 141.904 81.0545 141.78C81.3645 141.718 81.5815 141.687 81.8605 141.687C82.1395 141.687 82.2945 141.625 82.2945 141.377C82.2945 141.222 82.0775 141.16 81.7365 141.16C80.6825 141.16 78.9155 141.222 78.2335 141.222C77.4585 141.222 75.5985 141.16 74.5755 141.16C74.1415 141.16 73.9245 141.222 73.9245 141.377C73.9245 141.625 74.0795 141.687 74.3585 141.687C74.6995 141.687 75.0405 141.718 75.3505 141.811C75.9395 141.997 76.2185 142.307 76.2805 143.206C76.3115 144.043 76.3115 144.787 76.3115 148.786V153.436ZM88.9356 153.436C88.9356 155.854 88.9356 157.931 88.8116 159.047C88.7186 159.822 88.5636 160.318 88.0056 160.442C87.7576 160.504 87.4476 160.535 87.0446 160.535C86.7036 160.535 86.6106 160.69 86.6106 160.814C86.6106 161 86.7966 161.093 87.1376 161.093C88.2226 161.093 89.9586 161 90.4856 161C90.8886 161 93.1516 161.093 94.7326 161.093C95.0736 161.093 95.2906 161 95.2906 160.814C95.2906 160.69 95.1666 160.535 94.9496 160.535C94.6086 160.535 94.0196 160.504 93.6166 160.442C92.7796 160.318 92.6556 159.822 92.5626 159.047C92.4386 157.931 92.4076 155.885 92.4076 153.436V153.064C92.4076 152.909 92.5006 152.847 92.6246 152.847L95.0736 152.909C95.2596 152.909 95.4146 152.94 95.5696 153.095C95.9106 153.498 97.0576 155.265 98.1426 156.691C99.6616 158.737 100.685 159.977 101.863 160.566C102.576 160.938 103.32 161.093 104.839 161.093H107.443C107.784 161.093 107.97 161.031 107.97 160.814C107.97 160.69 107.846 160.535 107.629 160.535C107.412 160.535 107.257 160.535 106.978 160.473C106.544 160.38 105.583 160.256 104.064 158.737C102.421 157.094 100.499 154.707 98.0806 151.731C100.747 149.592 101.863 147.856 101.863 145.903C101.863 144.136 100.716 142.803 99.9406 142.276C98.4836 141.315 96.4996 141.16 94.7636 141.16C93.9266 141.16 91.4466 141.222 90.5166 141.222C89.9586 141.222 88.2226 141.16 86.7966 141.16C86.3936 141.16 86.1766 141.222 86.1766 141.408C86.1766 141.594 86.3626 141.687 86.6416 141.687C87.0446 141.687 87.5096 141.718 87.7266 141.78C88.5946 142.028 88.8426 142.307 88.9046 143.206C88.9356 144.043 88.9356 144.787 88.9356 148.786V153.436ZM92.4076 142.989C92.4076 142.772 92.4696 142.679 92.6556 142.617C92.9346 142.555 93.5856 142.524 94.2676 142.524C95.8796 142.524 98.4216 143.485 98.4216 147.205C98.4216 149.375 97.4916 150.522 96.6546 151.111C96.1896 151.452 95.8176 151.545 94.7326 151.545C94.0506 151.545 93.2446 151.483 92.6556 151.297C92.4696 151.204 92.4076 151.111 92.4076 150.832V142.989ZM118.372 161.434C125.409 161.434 129.811 156.691 129.811 150.646C129.811 144.601 125.533 140.788 118.651 140.788C110.374 140.788 107.212 146.616 107.212 151.111C107.212 155.792 110.436 161.434 118.372 161.434ZM119.488 160.008C114.342 160.008 111.242 155.73 111.242 150.305C111.242 143.795 114.807 142.183 117.845 142.183C122.247 142.183 125.75 145.779 125.75 151.607C125.75 159.109 121.41 160.008 119.488 160.008ZM135.666 146.74H135.759C136.286 147.205 139.169 150.398 142.145 153.25C144.997 156.009 148.407 159.264 150.112 160.845C150.391 161.124 150.763 161.403 151.228 161.403C151.445 161.403 151.662 161.155 151.662 160.566L151.972 143.95C152.003 142.462 152.22 141.997 152.964 141.78C153.305 141.687 153.522 141.687 153.801 141.687C154.111 141.687 154.266 141.563 154.266 141.408C154.266 141.191 154.018 141.16 153.646 141.16C152.313 141.16 151.29 141.222 150.98 141.222C150.391 141.222 148.934 141.16 147.508 141.16C147.105 141.16 146.826 141.191 146.826 141.408C146.826 141.563 146.919 141.687 147.26 141.687C147.632 141.687 148.283 141.687 148.686 141.842C149.337 142.09 149.585 142.555 149.616 144.167L149.895 155.885H149.771C149.368 155.513 145.741 151.793 143.881 149.964C139.913 146.089 135.821 141.904 135.48 141.563C135.015 141.098 134.643 140.695 134.302 140.695C134.023 140.695 133.837 141.067 133.837 141.594L133.589 157.218C133.558 159.512 133.465 160.225 132.752 160.411C132.38 160.504 131.884 160.535 131.512 160.535C131.264 160.535 131.078 160.659 131.078 160.814C131.078 161.062 131.326 161.093 131.698 161.093C133.093 161.093 134.395 161 134.643 161C135.139 161 136.41 161.093 138.177 161.093C138.549 161.093 138.797 161.031 138.797 160.814C138.797 160.659 138.642 160.535 138.332 160.535C137.898 160.535 137.371 160.504 136.906 160.349C136.379 160.163 136.038 159.543 135.976 157.497L135.666 146.74ZM158.042 158.458C157.918 159.326 157.67 160.38 156.926 160.473C156.492 160.535 156.306 160.535 156.089 160.535C155.81 160.535 155.655 160.659 155.655 160.783C155.655 161.031 155.872 161.093 156.151 161.093C157.019 161.093 158.321 161 158.848 161C159.344 161 160.584 161.093 161.731 161.093C162.134 161.093 162.382 161.031 162.382 160.783C162.382 160.659 162.196 160.535 161.948 160.535C161.7 160.535 161.452 160.504 160.987 160.411C160.522 160.318 160.15 160.132 160.15 159.636C160.15 159.202 160.181 158.861 160.243 158.396L161.545 148.104H161.638C162.537 149.933 164.149 153.25 164.366 153.746C164.676 154.49 166.846 158.52 167.497 159.729C167.931 160.535 168.241 161.062 168.582 161.062C168.892 161.062 169.047 160.814 169.667 159.574L175.526 147.794H175.619L177.138 159.202C177.231 159.946 177.169 160.256 177.014 160.318C176.828 160.38 176.704 160.473 176.704 160.597C176.704 160.752 176.859 160.876 177.51 160.907C178.595 160.969 182.47 161.093 183.152 161.093C183.555 161.093 183.865 161 183.865 160.783C183.865 160.628 183.679 160.535 183.431 160.535C183.09 160.535 182.656 160.504 181.881 160.287C181.044 160.039 180.796 159.326 180.548 157.683L178.068 141.408C177.975 140.85 177.665 140.571 177.448 140.571C177.2 140.571 176.952 140.788 176.735 141.222L169.419 156.102L162.103 141.408C161.731 140.695 161.545 140.571 161.266 140.571C161.049 140.571 160.801 140.819 160.739 141.253L158.042 158.458ZM188.324 153.436C188.324 155.854 188.324 157.931 188.2 159.047C188.107 159.822 187.952 160.318 187.394 160.442C187.146 160.504 186.836 160.535 186.433 160.535C186.092 160.535 185.999 160.69 185.999 160.814C185.999 161 186.185 161.093 186.526 161.093C187.084 161.093 187.766 161.062 188.417 161.031C189.068 161.031 189.657 161 189.967 161C190.773 161 191.796 161.031 193.129 161.062C194.462 161.124 196.105 161.155 198.151 161.155C199.174 161.155 199.422 161.155 199.608 160.473C199.763 159.946 199.98 158.148 199.98 157.559C199.98 157.28 199.949 156.939 199.732 156.939C199.546 156.939 199.484 157.063 199.422 157.342C199.236 158.427 198.926 158.985 198.244 159.295C197.531 159.605 196.384 159.636 195.671 159.636C192.881 159.636 192.044 159.233 191.982 157.435C191.951 156.66 191.982 154.428 191.982 153.529V151.421C191.982 151.266 192.013 151.142 192.137 151.142C192.819 151.142 195.919 151.204 196.415 151.266C197.438 151.359 197.779 151.762 197.934 152.289C197.996 152.63 197.996 152.971 198.027 153.25C198.027 153.374 198.089 153.467 198.275 153.467C198.523 153.467 198.554 153.095 198.554 152.878C198.554 152.692 198.616 151.638 198.678 151.111C198.833 149.778 198.895 149.344 198.895 149.189C198.895 149.034 198.802 148.91 198.678 148.91C198.554 148.91 198.461 149.065 198.244 149.251C197.996 149.53 197.593 149.592 196.942 149.654C196.322 149.716 192.788 149.716 192.168 149.716C192.013 149.716 191.982 149.592 191.982 149.437V142.927C191.982 142.772 192.044 142.679 192.168 142.679C192.726 142.679 195.981 142.741 196.446 142.803C197.81 142.927 198.027 143.299 198.244 143.764C198.399 144.074 198.43 144.539 198.43 144.725C198.43 144.942 198.461 145.066 198.647 145.066C198.864 145.066 198.926 144.756 198.957 144.632C199.019 144.322 199.081 143.175 199.112 142.896C199.174 141.687 199.329 141.377 199.329 141.191C199.329 141.067 199.298 140.943 199.143 140.943C199.019 140.943 198.864 141.036 198.709 141.067C198.492 141.098 198.058 141.191 197.562 141.222C197.035 141.253 190.99 141.222 190.122 141.222C189.347 141.222 187.611 141.16 186.185 141.16C185.782 141.16 185.565 141.222 185.565 141.408C185.565 141.594 185.751 141.687 186.03 141.687C186.433 141.687 186.898 141.718 187.115 141.78C187.983 142.028 188.231 142.307 188.293 143.206C188.324 144.043 188.324 144.787 188.324 148.786V153.436ZM206.975 146.74H207.068C207.595 147.205 210.478 150.398 213.454 153.25C216.306 156.009 219.716 159.264 221.421 160.845C221.7 161.124 222.072 161.403 222.537 161.403C222.754 161.403 222.971 161.155 222.971 160.566L223.281 143.95C223.312 142.462 223.529 141.997 224.273 141.78C224.614 141.687 224.831 141.687 225.11 141.687C225.42 141.687 225.575 141.563 225.575 141.408C225.575 141.191 225.327 141.16 224.955 141.16C223.622 141.16 222.599 141.222 222.289 141.222C221.7 141.222 220.243 141.16 218.817 141.16C218.414 141.16 218.135 141.191 218.135 141.408C218.135 141.563 218.228 141.687 218.569 141.687C218.941 141.687 219.592 141.687 219.995 141.842C220.646 142.09 220.894 142.555 220.925 144.167L221.204 155.885H221.08C220.677 155.513 217.05 151.793 215.19 149.964C211.222 146.089 207.13 141.904 206.789 141.563C206.324 141.098 205.952 140.695 205.611 140.695C205.332 140.695 205.146 141.067 205.146 141.594L204.898 157.218C204.867 159.512 204.774 160.225 204.061 160.411C203.689 160.504 203.193 160.535 202.821 160.535C202.573 160.535 202.387 160.659 202.387 160.814C202.387 161.062 202.635 161.093 203.007 161.093C204.402 161.093 205.704 161 205.952 161C206.448 161 207.719 161.093 209.486 161.093C209.858 161.093 210.106 161.031 210.106 160.814C210.106 160.659 209.951 160.535 209.641 160.535C209.207 160.535 208.68 160.504 208.215 160.349C207.688 160.163 207.347 159.543 207.285 157.497L206.975 146.74ZM235.273 153.436C235.273 155.854 235.273 157.931 235.149 159.047C235.056 159.822 234.901 160.318 234.343 160.442C234.126 160.504 233.785 160.535 233.382 160.535C233.041 160.535 232.948 160.69 232.948 160.814C232.948 161 233.134 161.093 233.475 161.093C234.56 161.093 236.42 161 237.04 161C237.815 161 239.644 161.093 241.442 161.093C241.752 161.093 241.969 161 241.969 160.814C241.969 160.69 241.845 160.535 241.535 160.535C241.132 160.535 240.512 160.504 240.14 160.442C239.334 160.318 239.179 159.822 239.086 159.078C238.962 157.931 238.931 155.854 238.931 153.436V142.772L242.372 142.834C244.821 142.865 245.534 143.671 245.596 144.353L245.627 144.632C245.658 145.035 245.72 145.159 245.937 145.159C246.092 145.159 246.154 145.004 246.185 144.725C246.185 144.043 246.247 142.09 246.247 141.532C246.247 141.129 246.216 140.974 246.03 140.974C245.937 140.974 245.72 141.036 245.286 141.098C244.883 141.16 244.294 141.222 243.426 141.222H232.359C231.46 141.222 230.437 141.191 229.631 141.098C228.949 141.005 228.67 140.788 228.453 140.788C228.298 140.788 228.205 140.943 228.143 141.284C228.081 141.501 227.554 144.043 227.554 144.477C227.554 144.756 227.616 144.911 227.802 144.911C227.988 144.911 228.05 144.787 228.112 144.57C228.174 144.384 228.298 144.043 228.577 143.671C228.98 143.082 229.631 142.896 231.212 142.865L235.273 142.772V153.436ZM257.011 154.459C257.135 154.459 257.228 154.49 257.29 154.645L259.398 159.946C259.522 160.256 259.336 160.504 259.15 160.535C258.871 160.566 258.809 160.659 258.809 160.814C258.809 161 259.119 161 259.615 161.031C261.909 161.093 263.893 161.093 264.854 161.093C265.877 161.093 266.032 161.031 266.032 160.814C266.032 160.628 265.908 160.535 265.66 160.535C265.35 160.535 265.04 160.504 264.637 160.442C264.141 160.349 263.366 160.008 262.312 157.621C260.576 153.622 256.019 142.834 255.368 141.377C255.089 140.788 254.965 140.54 254.562 140.54C254.283 140.54 254.066 140.85 253.756 141.594L246.626 158.179C246.068 159.512 245.603 160.318 244.363 160.504C244.115 160.504 243.805 160.535 243.557 160.535C243.34 160.535 243.247 160.659 243.247 160.814C243.247 161.031 243.402 161.093 243.743 161.093C245.169 161.093 246.626 161 246.905 161C247.773 161 249.044 161.093 249.943 161.093C250.222 161.093 250.377 161.031 250.377 160.814C250.377 160.659 250.315 160.535 249.974 160.535H249.571C248.734 160.535 248.486 160.256 248.486 159.791C248.486 159.481 248.61 158.83 248.889 158.179L250.346 154.645C250.408 154.49 250.439 154.459 250.594 154.459H257.011ZM251.152 153.002C251.059 153.002 250.997 152.94 251.059 152.816L253.694 146.151C253.725 146.058 253.756 145.903 253.849 145.903C253.911 145.903 253.942 146.058 253.973 146.151L256.546 152.847C256.577 152.94 256.546 153.002 256.422 153.002H251.152ZM272.661 148.786C272.661 144.787 272.661 144.043 272.723 143.206C272.785 142.276 273.002 141.904 273.746 141.78C274.056 141.718 274.49 141.687 274.8 141.687C275.141 141.687 275.296 141.594 275.296 141.408C275.296 141.222 275.11 141.16 274.707 141.16C273.653 141.16 271.421 141.222 270.77 141.222C270.026 141.222 268.29 141.16 267.019 141.16C266.616 141.16 266.43 141.222 266.43 141.408C266.43 141.594 266.585 141.687 266.895 141.687C267.236 141.687 267.577 141.718 267.794 141.78C268.662 142.028 268.91 142.307 268.972 143.206C269.003 144.043 269.003 144.787 269.003 148.786V153.436C269.003 155.854 269.003 157.931 268.879 159.047C268.786 159.822 268.631 160.318 268.073 160.442C267.825 160.504 267.515 160.535 267.112 160.535C266.771 160.535 266.678 160.69 266.678 160.814C266.678 161 266.864 161.093 267.205 161.093C267.763 161.093 268.445 161.062 269.096 161.031C269.747 161.031 270.336 161 270.646 161C271.762 161 272.909 161.031 274.273 161.062C275.637 161.124 277.218 161.155 279.171 161.155C280.597 161.155 280.721 161.031 280.907 160.442C281.124 159.667 281.31 157.714 281.31 157.404C281.31 157.094 281.248 156.815 281.062 156.815C280.845 156.815 280.783 156.97 280.752 157.218C280.69 157.714 280.411 158.458 280.07 158.799C279.388 159.512 278.334 159.543 276.877 159.543C274.769 159.543 273.715 159.388 273.25 158.985C272.661 158.489 272.661 156.815 272.661 153.436V148.786ZM123.409 191.184C123.409 186.32 123.409 185.424 123.473 184.4C123.537 183.28 123.793 182.736 124.657 182.576C125.041 182.512 125.553 182.48 125.905 182.48C126.289 182.48 126.481 182.416 126.481 182.192C126.481 181.968 126.257 181.904 125.809 181.904C124.561 181.904 122.225 182 121.457 182C120.593 182 118.577 181.904 117.073 181.904C116.593 181.904 116.369 181.968 116.369 182.192C116.369 182.416 116.561 182.48 116.913 182.48C117.329 182.48 117.713 182.512 117.969 182.576C119.025 182.8 119.281 183.312 119.345 184.4C119.409 185.424 119.409 186.32 119.409 191.184V196.816C119.409 199.76 119.409 202.288 119.249 203.632C119.121 204.56 118.961 205.264 118.321 205.392C118.033 205.456 117.649 205.52 117.169 205.52C116.785 205.52 116.657 205.616 116.657 205.776C116.657 206 116.881 206.096 117.297 206.096C117.937 206.096 118.769 206.032 119.505 206.032C120.273 206 120.977 206 121.329 206C122.641 206 123.793 206.032 125.233 206.096C126.673 206.128 128.337 206.192 130.641 206.192C132.305 206.192 132.465 206.032 132.657 205.328C132.913 204.4 133.137 202 133.137 201.648C133.137 201.264 133.105 201.104 132.881 201.104C132.625 201.104 132.561 201.296 132.529 201.584C132.465 202.192 132.081 203.088 131.697 203.504C130.897 204.368 129.649 204.4 127.953 204.4C125.457 204.4 124.625 204.176 124.081 203.696C123.409 203.12 123.409 200.912 123.409 196.816V191.184ZM146.944 199.248C147.072 199.248 147.168 199.28 147.232 199.44L149.408 204.912C149.536 205.232 149.344 205.488 149.152 205.52C148.864 205.552 148.8 205.648 148.8 205.808C148.8 206 149.12 206 149.632 206.032C152 206.096 154.048 206.096 155.04 206.096C156.096 206.096 156.256 206.032 156.256 205.808C156.256 205.616 156.128 205.52 155.872 205.52C155.552 205.52 155.232 205.488 154.816 205.424C154.304 205.328 153.504 204.976 152.416 202.512C150.624 198.384 145.92 187.248 145.248 185.744C144.96 185.136 144.832 184.88 144.416 184.88C144.128 184.88 143.904 185.2 143.584 185.968L136.224 203.088C135.648 204.464 135.168 205.296 133.888 205.488C133.632 205.488 133.312 205.52 133.056 205.52C132.832 205.52 132.736 205.648 132.736 205.808C132.736 206.032 132.896 206.096 133.248 206.096C134.72 206.096 136.224 206 136.512 206C137.408 206 138.72 206.096 139.648 206.096C139.936 206.096 140.096 206.032 140.096 205.808C140.096 205.648 140.032 205.52 139.68 205.52H139.264C138.4 205.52 138.144 205.232 138.144 204.752C138.144 204.432 138.272 203.76 138.56 203.088L140.064 199.44C140.128 199.28 140.16 199.248 140.32 199.248H146.944ZM140.896 197.744C140.8 197.744 140.736 197.68 140.8 197.552L143.52 190.672C143.552 190.576 143.584 190.416 143.68 190.416C143.744 190.416 143.776 190.576 143.808 190.672L146.464 197.584C146.496 197.68 146.464 197.744 146.336 197.744H140.896ZM161.245 205.456C161.501 206.16 161.661 206.448 162.013 206.448C162.429 206.448 162.589 206.128 163.101 205.008C164.253 202.512 168.029 192.88 168.509 191.728H168.573L174.301 205.136C174.717 206.128 174.909 206.448 175.293 206.448C175.709 206.448 175.869 206.128 176.189 205.168C177.565 201.104 180.445 192.464 181.757 189.04C182.333 187.472 182.653 186.448 183.325 186.192C183.645 186.096 184.029 186.064 184.317 186.064C184.573 186.064 184.701 185.936 184.701 185.744C184.701 185.584 184.509 185.52 184.189 185.52C183.261 185.52 182.045 185.584 181.853 185.584C181.597 185.584 180.317 185.52 178.845 185.52C178.397 185.52 178.173 185.584 178.173 185.776C178.173 185.936 178.397 186.064 178.653 186.064C179.773 186.064 180.029 186.384 180.029 186.832C180.029 187.216 179.933 187.76 179.741 188.4C178.749 191.568 176.605 198.736 176.061 200.304H175.965L170.333 186.896C169.981 186.032 169.725 185.616 169.405 185.616C169.149 185.616 168.861 185.84 168.573 186.608L163.197 200.496H163.101C162.685 199.248 160.125 191.024 159.645 189.232C159.293 187.984 159.037 187.088 159.037 186.736C159.037 186.448 159.069 186.288 159.325 186.192C159.549 186.096 159.805 186.064 160.029 186.064C160.317 186.064 160.541 185.968 160.541 185.776C160.541 185.584 160.349 185.52 159.933 185.52C158.301 185.52 156.925 185.584 156.669 185.584C156.413 185.584 154.845 185.52 153.405 185.52C152.989 185.52 152.765 185.584 152.765 185.776C152.765 185.968 152.925 186.064 153.213 186.064C153.469 186.064 154.013 186.096 154.301 186.288C154.717 186.544 154.941 187.184 155.293 188.176L161.245 205.456Z" fill="#5A5448"/>
<path d="M30.4256 115.374C31.8336 115.374 33.5056 115.22 34.3856 114.868C34.7816 114.692 34.8256 114.648 34.9576 114.23C35.1776 113.482 35.4416 111.568 35.4416 111.414C35.4416 111.238 35.3976 111.084 35.2876 111.084C35.1556 111.084 35.1116 111.172 35.0676 111.414C35.0016 111.81 34.7156 112.778 34.2536 113.262C33.3736 114.164 32.0756 114.362 30.4256 114.362C25.7176 114.362 22.4836 110.512 22.4836 106.31C22.4836 104.066 22.8576 102.108 24.4636 100.568C25.2336 99.82 26.5976 98.962 29.5236 98.962C31.4596 98.962 33.1536 99.556 33.9236 100.216C34.4956 100.7 34.8476 101.602 34.8476 102.46C34.8476 102.768 34.8696 102.922 35.0236 102.922C35.1556 102.922 35.1996 102.79 35.2216 102.46C35.2436 102.13 35.2436 100.92 35.2876 100.194C35.3316 99.402 35.3976 99.138 35.3976 98.962C35.3976 98.83 35.3536 98.742 35.1116 98.72C34.4076 98.676 33.7036 98.544 32.8676 98.39C31.7896 98.192 30.5576 98.126 29.6776 98.126C26.2896 98.126 24.2876 99.16 22.9676 100.48C21.0096 102.438 20.5036 105.012 20.5036 106.486C20.5036 108.576 21.0316 111.084 23.1656 112.998C24.9036 114.56 27.1256 115.374 30.4256 115.374ZM38.0087 107.96C38.0087 111.326 40.2747 115.308 45.5767 115.308C50.2407 115.308 53.3427 111.854 53.3427 107.674C53.3427 103.318 50.0427 100.656 45.6867 100.656C40.3407 100.656 38.0087 104.946 38.0087 107.96ZM40.0107 107.454C40.0107 103.384 42.3427 101.36 45.5767 101.36C48.6347 101.36 51.3627 103.714 51.3627 108.202C51.3627 113.614 47.8647 114.538 46.1267 114.538C42.6287 114.538 40.0107 111.81 40.0107 107.454ZM58.8563 106.332C58.8563 103.428 58.8563 102.9 58.8783 102.306C58.9223 101.646 59.0323 101.36 59.6043 101.25C59.8243 101.228 60.1103 101.206 60.2423 101.206C60.3083 101.206 60.3963 101.14 60.3963 101.074C60.3963 100.964 60.2863 100.92 60.0883 100.92C59.4943 100.92 58.0423 100.964 57.9543 100.964C57.8443 100.964 56.6343 100.92 55.7543 100.92C55.5343 100.92 55.4463 100.964 55.4463 101.074C55.4463 101.14 55.5343 101.228 55.6003 101.228C55.7763 101.228 56.1063 101.25 56.2603 101.272C56.8983 101.36 57.0083 101.668 57.0523 102.306C57.0963 102.9 57.0963 103.428 57.0963 106.332V109.632C57.0963 111.436 57.0963 112.91 56.9863 113.68C56.8983 114.23 56.8543 114.582 56.4803 114.67C56.3043 114.714 56.0623 114.758 55.8863 114.758C55.7763 114.758 55.7323 114.846 55.7323 114.912C55.7323 115.022 55.8423 115.066 56.0403 115.066C56.3483 115.066 56.7663 115.044 57.1623 115.022C57.5363 115 57.8663 115 57.9543 115C58.5263 115 59.1863 115.022 60.0663 115.044C60.9683 115.088 62.0463 115.11 63.4323 115.11C64.4663 115.11 64.5323 115.044 64.6643 114.604C64.8183 114.054 64.9503 112.932 64.9503 112.734C64.9503 112.536 64.9063 112.448 64.8183 112.448C64.7083 112.448 64.6423 112.558 64.6203 112.69C64.5543 113.064 64.4003 113.46 64.1583 113.746C63.6963 114.296 62.8383 114.318 61.8263 114.318C60.3083 114.318 59.5603 114.186 59.2523 113.878C58.9003 113.548 58.8563 112.426 58.8563 109.676V106.332ZM67.7723 109.082C67.7723 111.81 68.5203 113.108 69.4663 113.988C70.8303 115.264 72.8543 115.308 73.4923 115.308C74.6363 115.308 76.1323 115.154 77.5403 113.944C79.0803 112.624 79.3443 110.358 79.3443 108.334V106.332C79.3443 103.428 79.3223 102.9 79.3663 102.306C79.4103 101.69 79.5203 101.382 80.0483 101.272C80.2903 101.228 80.4003 101.228 80.5323 101.228C80.6203 101.228 80.6863 101.14 80.6863 101.074C80.6863 100.964 80.5983 100.92 80.3783 100.92C79.8063 100.92 78.8823 100.964 78.7503 100.964C78.6403 100.964 77.5183 100.92 76.6603 100.92C76.4403 100.92 76.3523 100.964 76.3523 101.074C76.3523 101.14 76.4183 101.228 76.5063 101.228C76.6823 101.228 77.0123 101.25 77.1663 101.272C77.8043 101.36 77.9143 101.712 77.9363 102.306C77.9583 102.9 77.9803 103.428 77.9803 106.332V108.686C77.9803 110.6 77.7823 112.14 76.8803 113.218C76.2203 114.01 75.0763 114.538 73.8883 114.538C72.7883 114.538 71.9523 114.384 71.0063 113.526C70.1703 112.778 69.5763 111.656 69.5763 108.95V106.332C69.5763 103.428 69.5763 102.9 69.6203 102.306C69.6643 101.69 69.7743 101.36 70.2803 101.272C70.5223 101.228 70.6323 101.228 70.7643 101.228C70.8523 101.228 70.9403 101.14 70.9403 101.074C70.9403 100.964 70.8303 100.92 70.6103 100.92C70.0383 100.92 68.8283 100.964 68.6523 100.964C68.4763 100.964 67.3103 100.92 66.4303 100.92C66.2103 100.92 66.1223 100.964 66.1223 101.074C66.1223 101.14 66.2103 101.228 66.2763 101.228C66.4523 101.228 66.7823 101.25 66.9363 101.272C67.5743 101.36 67.6843 101.712 67.7283 102.306C67.7723 102.9 67.7723 103.428 67.7723 106.332V109.082ZM98.0536 101.162C98.0096 100.81 97.8996 100.656 97.7676 100.656C97.6356 100.656 97.5476 100.788 97.4596 100.964L91.8276 112.558L85.9756 100.942C85.8656 100.722 85.7116 100.656 85.5796 100.656C85.4696 100.656 85.3816 100.788 85.3596 100.986L83.9516 113.196C83.8636 113.9 83.8416 114.582 83.2036 114.692C82.9176 114.736 82.7856 114.758 82.6316 114.758C82.5216 114.758 82.4336 114.824 82.4336 114.89C82.4336 115.022 82.5656 115.066 82.7636 115.066C83.2916 115.066 84.2156 115 84.3916 115C84.5456 115 85.4696 115.066 86.1956 115.066C86.4156 115.066 86.5476 115.022 86.5476 114.89C86.5476 114.824 86.4596 114.758 86.3936 114.758C86.2616 114.758 85.9756 114.736 85.6456 114.648C85.3596 114.582 85.1836 114.406 85.1836 114.12C85.1836 113.812 85.1836 113.46 85.2056 113.174L85.9536 104.726H86.0416C86.3716 105.496 87.9336 108.642 88.5056 109.83C88.9896 110.842 90.2656 113.24 90.7716 114.164C91.1456 114.846 91.2556 115.022 91.4316 115.022C91.6076 115.022 91.7176 114.846 92.1136 114.032L96.7776 104.484H96.8216L97.7456 113.944C97.7896 114.296 97.7676 114.582 97.6576 114.604C97.5696 114.626 97.5256 114.692 97.5256 114.758C97.5256 114.846 97.6136 114.912 98.0756 114.956C98.7796 115.022 100.936 115.066 101.376 115.066C101.596 115.066 101.772 115 101.772 114.89C101.772 114.802 101.706 114.758 101.618 114.758C101.42 114.758 100.914 114.758 100.364 114.582C99.5716 114.318 99.4396 113.306 99.3736 112.646L98.0536 101.162ZM104.98 109.632C104.98 111.436 104.98 112.91 104.87 113.68C104.782 114.23 104.738 114.648 104.364 114.714C104.188 114.736 103.946 114.802 103.77 114.802C103.66 114.802 103.616 114.846 103.616 114.912C103.616 115.022 103.726 115.066 103.924 115.066C104.232 115.066 104.694 115.044 105.09 115.022C105.486 115.022 105.838 115 105.882 115C105.97 115 106.52 115.022 107.136 115.044C107.752 115.088 108.456 115.11 108.808 115.11C112.108 115.11 113.67 113.042 113.67 110.952C113.67 108.84 111.734 107.498 110.26 107.058C111.25 106.178 112.218 105.254 112.218 103.78C112.218 102.79 111.382 100.92 108.148 100.92C107.246 100.92 106.344 100.964 105.882 100.964C105.772 100.964 104.518 100.92 103.638 100.92C103.418 100.92 103.33 100.964 103.33 101.074C103.33 101.14 103.418 101.184 103.484 101.184C103.66 101.184 103.99 101.206 104.144 101.228C104.782 101.316 104.892 101.668 104.936 102.306C104.98 102.9 104.98 103.428 104.98 106.332V109.632ZM106.652 101.8C106.652 101.69 106.718 101.646 106.894 101.602C107.202 101.536 107.664 101.514 107.884 101.514C109.82 101.514 110.612 103.098 110.612 104.528C110.612 105.43 110.282 106.068 109.864 106.53C109.468 106.97 109.05 107.014 107.972 107.014C107.246 107.014 106.894 106.948 106.784 106.926C106.696 106.904 106.652 106.86 106.652 106.728V101.8ZM106.652 107.762C106.652 107.674 106.696 107.63 106.762 107.63C107.07 107.63 108.038 107.63 108.28 107.674C108.742 107.762 109.358 107.74 110.018 108.158C111.536 109.126 111.866 110.732 111.866 111.568C111.866 113.966 110.304 114.45 109.028 114.45C108.676 114.45 107.862 114.428 107.334 114.186C106.74 113.9 106.74 113.68 106.674 112.778C106.652 112.492 106.652 110.248 106.652 108.796V107.762ZM119.587 106.332C119.587 103.428 119.587 102.9 119.609 102.306C119.653 101.646 119.763 101.382 120.291 101.272C120.511 101.228 120.643 101.228 120.775 101.228C120.841 101.228 120.929 101.14 120.929 101.074C120.929 100.964 120.841 100.92 120.621 100.92C120.027 100.92 118.773 100.964 118.685 100.964C118.575 100.964 117.365 100.92 116.727 100.92C116.507 100.92 116.419 100.964 116.419 101.074C116.419 101.14 116.485 101.228 116.573 101.228C116.705 101.228 116.947 101.25 117.167 101.294C117.585 101.382 117.739 101.668 117.783 102.306C117.827 102.9 117.827 103.428 117.827 106.332V109.632C117.827 111.436 117.805 112.91 117.717 113.68C117.651 114.23 117.585 114.582 117.211 114.67C117.035 114.714 116.793 114.758 116.617 114.758C116.507 114.758 116.463 114.846 116.463 114.912C116.463 115.022 116.573 115.066 116.771 115.066C117.365 115.066 118.575 115 118.685 115C118.773 115 120.027 115.066 121.105 115.066C121.325 115.066 121.413 115 121.413 114.912C121.413 114.846 121.369 114.758 121.259 114.758C121.083 114.758 120.665 114.714 120.379 114.67C119.807 114.582 119.741 114.23 119.675 113.68C119.587 112.91 119.587 111.436 119.587 109.632V106.332ZM124.772 112.998C124.398 113.944 124.024 114.604 123.144 114.714C122.99 114.736 122.704 114.758 122.572 114.758C122.484 114.758 122.396 114.824 122.396 114.912C122.396 115.022 122.528 115.066 122.77 115.066C123.562 115.066 124.53 115 124.728 115C124.948 115 126.004 115.066 126.466 115.066C126.642 115.066 126.752 115.022 126.752 114.912C126.752 114.824 126.708 114.758 126.554 114.758H126.378C126.048 114.758 125.718 114.626 125.718 114.252C125.718 113.922 125.828 113.46 126.004 112.998L127.104 110.006C127.148 109.896 127.214 109.852 127.302 109.852H131.768C131.878 109.852 131.9 109.874 131.944 109.962L133.682 114.252C133.814 114.56 133.616 114.714 133.506 114.758C133.418 114.802 133.374 114.802 133.374 114.89C133.374 115 133.682 115 134.056 115.022C135.398 115.066 136.828 115.066 137.114 115.066C137.334 115.066 137.554 115.022 137.554 114.912C137.554 114.802 137.422 114.758 137.312 114.758C137.114 114.758 136.828 114.736 136.542 114.648C136.124 114.516 135.596 114.274 134.892 112.602C133.704 109.764 130.602 102.042 130.25 101.25C130.052 100.832 129.986 100.568 129.788 100.568C129.656 100.568 129.568 100.678 129.326 101.294L124.772 112.998ZM127.566 109.082C127.5 109.082 127.478 109.038 127.5 108.95L129.304 103.824C129.414 103.538 129.524 103.538 129.634 103.824L131.548 108.95C131.57 109.038 131.57 109.082 131.482 109.082H127.566ZM149.615 104.814C149.615 101.382 149.615 100.766 149.659 100.062C149.703 99.292 149.879 98.918 150.473 98.808C150.737 98.764 150.869 98.742 151.023 98.742C151.111 98.742 151.199 98.698 151.199 98.61C151.199 98.478 151.089 98.434 150.847 98.434C150.187 98.434 148.801 98.5 148.691 98.5C148.581 98.5 147.195 98.434 146.205 98.434C145.963 98.434 145.853 98.478 145.853 98.61C145.853 98.698 145.941 98.742 146.029 98.742C146.227 98.742 146.601 98.764 146.777 98.808C147.503 98.962 147.679 99.314 147.723 100.062C147.767 100.766 147.767 101.382 147.767 104.814V111.172C147.767 116.848 147.085 118.014 145.655 119.466C145.457 119.664 145.149 119.928 144.885 120.082C144.687 120.214 144.577 120.28 144.577 120.412C144.577 120.5 144.665 120.544 144.731 120.544C144.797 120.544 144.841 120.522 144.885 120.5C145.105 120.39 145.457 120.148 145.743 119.95C147.525 118.718 148.493 117.684 148.955 116.584C149.615 115.022 149.615 113.658 149.615 110.094V104.814ZM153.51 107.96C153.51 111.326 155.776 115.308 161.078 115.308C165.742 115.308 168.844 111.854 168.844 107.674C168.844 103.318 165.544 100.656 161.188 100.656C155.842 100.656 153.51 104.946 153.51 107.96ZM155.512 107.454C155.512 103.384 157.844 101.36 161.078 101.36C164.136 101.36 166.864 103.714 166.864 108.202C166.864 113.614 163.366 114.538 161.628 114.538C158.13 114.538 155.512 111.81 155.512 107.454ZM172.048 109.082C172.048 111.81 172.796 113.108 173.742 113.988C175.106 115.264 177.13 115.308 177.768 115.308C178.912 115.308 180.408 115.154 181.816 113.944C183.356 112.624 183.62 110.358 183.62 108.334V106.332C183.62 103.428 183.598 102.9 183.642 102.306C183.686 101.69 183.796 101.382 184.324 101.272C184.566 101.228 184.676 101.228 184.808 101.228C184.896 101.228 184.962 101.14 184.962 101.074C184.962 100.964 184.874 100.92 184.654 100.92C184.082 100.92 183.158 100.964 183.026 100.964C182.916 100.964 181.794 100.92 180.936 100.92C180.716 100.92 180.628 100.964 180.628 101.074C180.628 101.14 180.694 101.228 180.782 101.228C180.958 101.228 181.288 101.25 181.442 101.272C182.08 101.36 182.19 101.712 182.212 102.306C182.234 102.9 182.256 103.428 182.256 106.332V108.686C182.256 110.6 182.058 112.14 181.156 113.218C180.496 114.01 179.352 114.538 178.164 114.538C177.064 114.538 176.228 114.384 175.282 113.526C174.446 112.778 173.852 111.656 173.852 108.95V106.332C173.852 103.428 173.852 102.9 173.896 102.306C173.94 101.69 174.05 101.36 174.556 101.272C174.798 101.228 174.908 101.228 175.04 101.228C175.128 101.228 175.216 101.14 175.216 101.074C175.216 100.964 175.106 100.92 174.886 100.92C174.314 100.92 173.104 100.964 172.928 100.964C172.752 100.964 171.586 100.92 170.706 100.92C170.486 100.92 170.398 100.964 170.398 101.074C170.398 101.14 170.486 101.228 170.552 101.228C170.728 101.228 171.058 101.25 171.212 101.272C171.85 101.36 171.96 101.712 172.004 102.306C172.048 102.9 172.048 103.428 172.048 106.332V109.082ZM188.711 109.632C188.711 111.436 188.711 112.91 188.601 113.68C188.513 114.23 188.469 114.582 188.095 114.67C187.919 114.714 187.677 114.758 187.501 114.758C187.391 114.758 187.347 114.846 187.347 114.912C187.347 115.022 187.457 115.066 187.655 115.066C188.249 115.066 189.547 115 189.569 115C189.657 115 190.889 115.066 191.945 115.066C192.165 115.066 192.253 115 192.253 114.912C192.253 114.846 192.231 114.758 192.099 114.758C191.923 114.758 191.505 114.714 191.241 114.67C190.647 114.582 190.537 114.23 190.471 113.68C190.383 112.91 190.383 111.458 190.383 109.654V109.214C190.383 109.104 190.427 109.06 190.515 109.06L192.979 109.104C193.111 109.104 193.155 109.126 193.243 109.214C193.661 109.72 194.519 110.93 195.333 111.942C196.433 113.35 197.137 114.252 197.973 114.692C198.457 114.956 198.941 115.066 200.041 115.066H201.251C201.603 115.066 201.713 115.022 201.713 114.912C201.713 114.846 201.647 114.758 201.537 114.758C201.427 114.758 201.229 114.758 200.855 114.692C200.371 114.626 199.733 114.45 198.699 113.394C197.577 112.228 196.235 110.534 194.651 108.554C196.455 107.014 197.027 105.672 197.027 104.286C197.027 102.988 196.169 102.086 195.685 101.734C194.673 101.03 193.309 100.92 192.077 100.92C191.483 100.92 189.855 100.964 189.657 100.964C189.547 100.964 188.249 100.92 187.369 100.92C187.149 100.92 187.061 100.964 187.061 101.074C187.061 101.14 187.149 101.228 187.215 101.228C187.391 101.228 187.721 101.25 187.875 101.272C188.513 101.36 188.623 101.668 188.667 102.306C188.711 102.9 188.711 103.428 188.711 106.332V109.632ZM190.383 101.91C190.383 101.8 190.449 101.734 190.537 101.69C190.735 101.646 191.351 101.58 191.923 101.58C193.991 101.58 195.267 102.922 195.267 105.254C195.267 106.684 194.761 107.674 194.101 108.114C193.639 108.422 193.111 108.444 192.649 108.444C191.791 108.444 190.801 108.312 190.515 108.158C190.427 108.092 190.383 108.026 190.383 107.916V101.91ZM204.087 103.692C204.681 104.352 206.859 106.64 209.103 108.994C211.149 111.128 213.943 113.878 214.141 114.054C215.219 115.044 215.417 115.198 215.615 115.198C215.747 115.198 215.769 115.088 215.769 113.856L215.813 102.9C215.813 101.778 215.857 101.404 216.495 101.272C216.715 101.228 216.869 101.228 216.957 101.228C217.089 101.228 217.177 101.118 217.177 101.052C217.177 100.942 217.023 100.92 216.825 100.92C216.033 100.92 215.395 100.964 215.175 100.964C214.955 100.964 214.031 100.92 213.151 100.92C212.931 100.92 212.777 100.942 212.777 101.052C212.777 101.118 212.799 101.228 212.931 101.228C213.085 101.228 213.525 101.25 213.877 101.316C214.471 101.426 214.581 101.844 214.603 103.054L214.801 112.426C214.207 111.81 212.139 109.588 210.225 107.608C207.233 104.528 204.417 101.536 204.109 101.228C203.911 101.03 203.581 100.656 203.361 100.656C203.207 100.656 203.097 100.854 203.097 101.602V112.316C203.097 114.01 203.031 114.516 202.547 114.648C202.261 114.736 201.909 114.758 201.755 114.758C201.667 114.758 201.601 114.824 201.601 114.912C201.601 115.044 201.711 115.066 201.909 115.066C202.789 115.066 203.603 115 203.779 115C203.955 115 204.725 115.066 205.825 115.066C206.045 115.066 206.177 115.022 206.177 114.912C206.177 114.824 206.111 114.758 206.023 114.758C205.847 114.758 205.407 114.736 205.055 114.648C204.527 114.516 204.351 114.054 204.307 112.514L204.087 103.692ZM220.213 112.998C219.839 113.944 219.465 114.604 218.585 114.714C218.431 114.736 218.145 114.758 218.013 114.758C217.925 114.758 217.837 114.824 217.837 114.912C217.837 115.022 217.969 115.066 218.211 115.066C219.003 115.066 219.971 115 220.169 115C220.389 115 221.445 115.066 221.907 115.066C222.083 115.066 222.193 115.022 222.193 114.912C222.193 114.824 222.149 114.758 221.995 114.758H221.819C221.489 114.758 221.159 114.626 221.159 114.252C221.159 113.922 221.269 113.46 221.445 112.998L222.545 110.006C222.589 109.896 222.655 109.852 222.743 109.852H227.209C227.319 109.852 227.341 109.874 227.385 109.962L229.123 114.252C229.255 114.56 229.057 114.714 228.947 114.758C228.859 114.802 228.815 114.802 228.815 114.89C228.815 115 229.123 115 229.497 115.022C230.839 115.066 232.269 115.066 232.555 115.066C232.775 115.066 232.995 115.022 232.995 114.912C232.995 114.802 232.863 114.758 232.753 114.758C232.555 114.758 232.269 114.736 231.983 114.648C231.565 114.516 231.037 114.274 230.333 112.602C229.145 109.764 226.043 102.042 225.691 101.25C225.493 100.832 225.427 100.568 225.229 100.568C225.097 100.568 225.009 100.678 224.767 101.294L220.213 112.998ZM223.007 109.082C222.941 109.082 222.919 109.038 222.941 108.95L224.745 103.824C224.855 103.538 224.965 103.538 225.075 103.824L226.989 108.95C227.011 109.038 227.011 109.082 226.923 109.082H223.007ZM237.307 106.332C237.307 103.428 237.307 102.9 237.329 102.306C237.373 101.646 237.483 101.36 238.055 101.25C238.275 101.228 238.561 101.206 238.693 101.206C238.759 101.206 238.847 101.14 238.847 101.074C238.847 100.964 238.737 100.92 238.539 100.92C237.945 100.92 236.493 100.964 236.405 100.964C236.295 100.964 235.085 100.92 234.205 100.92C233.985 100.92 233.897 100.964 233.897 101.074C233.897 101.14 233.985 101.228 234.051 101.228C234.227 101.228 234.557 101.25 234.711 101.272C235.349 101.36 235.459 101.668 235.503 102.306C235.547 102.9 235.547 103.428 235.547 106.332V109.632C235.547 111.436 235.547 112.91 235.437 113.68C235.349 114.23 235.305 114.582 234.931 114.67C234.755 114.714 234.513 114.758 234.337 114.758C234.227 114.758 234.183 114.846 234.183 114.912C234.183 115.022 234.293 115.066 234.491 115.066C234.799 115.066 235.217 115.044 235.613 115.022C235.987 115 236.317 115 236.405 115C236.977 115 237.637 115.022 238.517 115.044C239.419 115.088 240.497 115.11 241.883 115.11C242.917 115.11 242.983 115.044 243.115 114.604C243.269 114.054 243.401 112.932 243.401 112.734C243.401 112.536 243.357 112.448 243.269 112.448C243.159 112.448 243.093 112.558 243.071 112.69C243.005 113.064 242.851 113.46 242.609 113.746C242.147 114.296 241.289 114.318 240.277 114.318C238.759 114.318 238.011 114.186 237.703 113.878C237.351 113.548 237.307 112.426 237.307 109.676V106.332ZM252.275 107.96C252.275 111.326 254.541 115.308 259.843 115.308C264.507 115.308 267.609 111.854 267.609 107.674C267.609 103.318 264.309 100.656 259.953 100.656C254.607 100.656 252.275 104.946 252.275 107.96ZM254.277 107.454C254.277 103.384 256.609 101.36 259.843 101.36C262.901 101.36 265.629 103.714 265.629 108.202C265.629 113.614 262.131 114.538 260.393 114.538C256.895 114.538 254.277 111.81 254.277 107.454ZM270.541 109.632C270.541 111.436 270.541 112.91 270.431 113.68C270.343 114.23 270.299 114.604 269.925 114.67C269.749 114.692 269.507 114.758 269.331 114.758C269.221 114.758 269.177 114.846 269.177 114.912C269.177 115.022 269.287 115.066 269.485 115.066C270.079 115.066 271.289 115 271.399 115C271.487 115 272.741 115.066 273.819 115.066C274.039 115.066 274.127 115 274.127 114.912C274.127 114.846 274.083 114.758 273.973 114.758C273.797 114.758 273.379 114.714 273.093 114.67C272.565 114.582 272.455 114.23 272.389 113.68C272.301 112.954 272.301 111.48 272.301 109.632V108.136C272.301 108.004 272.323 107.96 272.433 107.96C272.763 107.96 275.051 107.938 275.535 108.004C276.129 108.092 276.437 108.334 276.525 108.598C276.613 108.818 276.635 109.082 276.657 109.28C276.657 109.368 276.679 109.456 276.789 109.456C276.921 109.456 276.965 109.258 276.965 109.082C276.965 108.95 276.987 108.202 277.031 107.828C277.075 107.212 277.207 106.904 277.207 106.794C277.207 106.706 277.185 106.64 277.097 106.64C277.031 106.64 276.943 106.728 276.855 106.838C276.679 107.058 276.415 107.124 275.953 107.168C275.689 107.19 275.403 107.19 275.073 107.19L272.433 107.212C272.301 107.212 272.301 107.146 272.301 107.036V101.932C272.301 101.778 272.345 101.734 272.455 101.734L275.623 101.778C276.371 101.778 276.833 102.086 276.943 102.328C277.053 102.57 277.119 102.878 277.119 103.032C277.119 103.164 277.185 103.252 277.273 103.252C277.361 103.252 277.427 103.142 277.449 103.054C277.493 102.834 277.515 101.998 277.537 101.822C277.603 101.294 277.691 101.074 277.691 100.942C277.691 100.854 277.647 100.766 277.559 100.766C277.493 100.766 277.405 100.854 277.295 100.876C277.119 100.942 276.789 100.942 276.415 100.964C275.975 100.986 271.773 100.964 271.399 100.964C271.289 100.964 270.079 100.92 269.199 100.92C268.979 100.92 268.891 100.964 268.891 101.074C268.891 101.14 268.979 101.228 269.045 101.228C269.221 101.228 269.551 101.25 269.705 101.272C270.343 101.36 270.453 101.668 270.497 102.306C270.541 102.9 270.541 103.428 270.541 106.332V109.632Z" fill="#9B8B70"/>
</g>
<defs>
<linearGradient id="paint0_linear" x1="150" y1="0" x2="150" y2="400" gradientUnits="userSpaceOnUse">
<stop stop-color="white"/>
<stop offset="1" stop-color="#DEDAD2"/>
</linearGradient>
<clipPath id="clip0">
<rect width="300" height="400" fill="white"/>
</clipPath>
</defs>
</svg>
