<svg width="300" height="400" viewBox="0 0 300 400" fill="none" xmlns="http://www.w3.org/2000/svg">
<g clip-path="url(#clip0)">
<rect width="300" height="400" fill="white"/>
<rect width="300" height="400" fill="white" stroke="#64118B" stroke-width="3"/>
<path d="M78.3636 141.53C84.1236 141.53 90.9636 140.9 94.5636 139.46C96.0936 138.83 96.4536 138.38 96.9036 136.85C97.8036 133.79 98.8836 125.96 98.8836 124.88C98.8836 124.16 98.7036 123.53 98.0736 123.53C97.3536 123.53 97.1736 123.89 96.9036 125.33C96.5436 126.95 95.3736 129.56 93.8436 131.27C90.2436 135.41 85.3836 136.31 77.3736 136.31C65.3136 136.31 49.0236 125.69 49.0236 104.27C49.0236 95.54 50.7336 86.99 57.3036 80.96C61.2636 77.36 66.3936 75.38 74.2236 75.38C82.5036 75.38 89.5236 77.81 92.4936 80.96C94.7436 83.3 95.9136 86.45 96.0036 89.24C96.0036 90.5 96.1836 91.22 96.9036 91.22C97.7136 91.22 97.8936 90.5 97.9836 89.15C98.1636 87.35 98.0736 82.4 98.2536 79.43C98.4336 76.28 98.7036 75.2 98.7036 74.48C98.7036 73.94 98.3436 73.49 97.3536 73.4C94.6536 73.13 91.7736 72.32 88.3536 71.87C84.2136 71.33 80.8836 70.97 75.3036 70.97C61.8936 70.97 53.3436 74.57 46.8636 80.51C38.2236 88.43 36.3336 99.05 36.3336 105.17C36.3336 113.9 38.6736 123.98 47.4936 131.72C55.6836 138.83 66.0336 141.53 78.3636 141.53ZM116.326 124.16C116.326 141.8 116.416 150.8 109.576 157.73C107.776 159.53 106.426 160.52 105.256 161.15C103.726 161.96 103.276 162.32 103.276 162.77C103.276 163.22 103.636 163.49 103.996 163.49C104.446 163.49 105.166 163.31 105.796 162.95C107.686 162.05 109.126 161.33 110.296 160.61C118.936 155.3 123.706 149.09 125.596 143.6C127.396 138.56 127.756 132.8 127.756 127.67C127.756 123.17 127.486 118.85 127.486 114.98V98.33C127.486 84.65 127.486 82.13 127.666 79.25C127.846 76.1 128.566 74.57 130.996 74.12C132.076 73.94 132.616 73.85 133.606 73.85C134.686 73.85 135.226 73.67 135.226 73.04C135.226 72.41 134.596 72.23 133.336 72.23C129.826 72.23 124.156 72.5 121.996 72.5C119.656 72.5 113.986 72.23 109.216 72.23C107.866 72.23 107.236 72.41 107.236 73.04C107.236 73.67 107.776 73.85 108.766 73.85C110.026 73.85 111.556 73.94 112.276 74.12C115.246 74.75 115.966 76.19 116.146 79.25C116.326 82.13 116.326 84.65 116.326 98.33V124.16ZM206.597 124.34C206.597 119.84 206.597 116.24 206.687 113.54C206.777 110.39 207.677 108.86 210.107 108.41C211.187 108.23 211.817 108.14 212.537 108.14C213.167 108.14 213.707 107.96 213.707 107.42C213.707 106.7 213.077 106.52 211.907 106.52C208.937 106.52 204.167 106.79 201.377 106.79C198.677 106.79 193.007 106.52 188.327 106.52C187.067 106.52 186.437 106.7 186.437 107.42C186.437 107.96 186.977 108.14 187.787 108.14C189.047 108.14 190.577 108.23 191.297 108.41C194.267 109.04 195.077 110.48 195.167 113.54C195.257 116.24 195.257 119.66 195.257 124.16V132.62C195.257 134.15 194.897 135.32 193.547 135.95C191.387 136.94 188.237 136.94 185.897 136.94C166.907 136.94 154.577 122.45 154.577 103.1C154.577 92.03 157.817 85.28 162.857 81.05C169.157 75.83 175.727 75.47 180.677 75.47C190.847 75.47 198.047 79.61 200.747 82.49C203.087 85.01 203.537 87.89 203.807 89.96C203.897 90.68 204.077 91.13 204.707 91.13C205.427 91.13 205.697 90.68 205.697 89.24C205.697 77.99 206.327 75.47 206.327 74.48C206.327 73.85 206.147 73.49 205.067 73.4C202.997 73.31 199.847 72.77 197.957 72.41C196.157 72.05 188.237 70.97 182.027 70.97C174.467 70.97 166.457 71.6 157.817 76.82C149.627 81.77 142.157 91.85 142.157 106.25C142.157 131.09 161.687 141.53 183.737 141.53C190.757 141.53 199.577 140.54 205.427 137.48C206.507 136.85 206.597 136.67 206.597 134.24V124.34ZM241.134 98.33C241.134 84.65 241.134 82.13 241.314 79.25C241.494 76.1 242.214 74.57 244.644 74.12C245.724 73.94 247.164 73.85 248.154 73.85C249.234 73.85 249.774 73.67 249.774 73.04C249.774 72.41 249.144 72.23 247.884 72.23C244.374 72.23 237.804 72.5 235.644 72.5C233.214 72.5 227.544 72.23 223.314 72.23C221.964 72.23 221.334 72.41 221.334 73.04C221.334 73.67 221.874 73.85 222.864 73.85C224.034 73.85 225.114 73.94 225.834 74.12C228.804 74.75 229.524 76.19 229.704 79.25C229.884 82.13 229.884 84.65 229.884 98.33V114.17C229.884 122.45 229.884 129.56 229.434 133.34C229.074 135.95 228.624 137.93 226.824 138.29C226.014 138.47 224.934 138.65 223.584 138.65C222.504 138.65 222.144 138.92 222.144 139.37C222.144 140 222.774 140.27 223.944 140.27C225.744 140.27 228.084 140.09 230.154 140.09C232.314 140 234.294 140 235.284 140C238.974 140 242.214 140.09 246.264 140.27C250.314 140.36 254.994 140.54 261.474 140.54C266.154 140.54 266.604 140.09 267.144 138.11C267.864 135.5 268.494 128.75 268.494 127.76C268.494 126.68 268.404 126.23 267.774 126.23C267.054 126.23 266.874 126.77 266.784 127.58C266.604 129.29 265.524 131.81 264.444 132.98C262.194 135.41 258.684 135.5 253.914 135.5C246.894 135.5 244.554 134.87 243.024 133.52C241.134 131.9 241.134 125.69 241.134 114.17V98.33Z" fill="#CBCBCB"/>
</g>
<defs>
<clipPath id="clip0">
<rect width="300" height="400" fill="white"/>
</clipPath>
</defs>
</svg>
