<svg width="300" height="400" viewBox="0 0 300 400" fill="none" xmlns="http://www.w3.org/2000/svg">
<g clip-path="url(#clip0)">
<rect width="300" height="400" fill="#002B7F"/>
<path d="M17.034 134.934C17.034 145.274 24.178 149.128 32.074 149.128C40.252 149.128 49.746 144.616 52.472 130.61L61.872 82.2H42.226L41.474 85.96H57.078L48.618 130.046C46.456 141.514 38.466 145.274 32.074 145.274C23.99 145.274 21.17 140.668 21.17 134.276C21.17 132.866 21.358 131.456 21.64 130.046L22.016 127.978H17.974L17.598 130.046C17.222 132.114 17.034 133.43 17.034 134.934ZM67.772 114.63C67.772 133.712 81.59 149.128 100.766 149.128C116.746 149.128 125.582 139.164 125.582 139.164L123.044 136.344C123.044 136.344 114.866 145.274 100.766 145.274C84.222 145.274 72.002 131.738 72.002 114.63C72.002 97.616 84.316 84.926 100.484 84.926C113.644 84.926 121.446 92.352 121.446 92.352L123.89 89.344C123.89 89.344 115.994 81.072 100.39 81.072C81.872 81.072 67.772 95.548 67.772 114.63ZM137.461 148H175.249V144.24H141.503V116.698H167.729V112.938H141.503V85.96H173.463V82.2H137.461V148ZM187.402 148H191.444V120.74H209.022C220.49 120.74 229.044 113.314 229.044 101.376C229.044 89.438 220.49 82.2 209.022 82.2H187.402V148ZM191.444 116.98V85.96H208.834C218.422 85.96 224.814 91.506 224.814 101.376C224.814 111.246 218.422 116.98 208.834 116.98H191.444ZM254.405 148H258.447V85.96H282.981V82.2H229.871V85.96H254.405V148Z" fill="white"/>
<line x1="15.962" y1="181.5" x2="278.962" y2="177.5" stroke="#75AADB" stroke-width="5"/>
</g>
<defs>
<clipPath id="clip0">
<rect width="300" height="400" fill="white"/>
</clipPath>
</defs>
</svg>
