<svg width="300" height="400" viewBox="0 0 300 400" fill="none" xmlns="http://www.w3.org/2000/svg">
<rect width="300" height="400" fill="url(#paint0_linear)"/>
<path d="M62.12 176.576C62.12 178.592 61.88 180.704 61.4 182.912C60.968 185.12 60.128 187.16 58.88 189.032C57.68 190.856 55.976 192.368 53.768 193.568C51.608 194.768 48.8 195.368 45.344 195.368C41.024 195.368 37.424 194.264 34.544 192.056C31.664 189.8 29.744 186.92 28.784 183.416L39.656 179.744C39.992 181.088 40.592 182.168 41.456 182.984C42.368 183.8 43.472 184.208 44.768 184.208C46.784 184.208 48.104 183.512 48.728 182.12C49.4 180.728 49.736 178.904 49.736 176.648V143.024H62.12V176.576ZM118.589 194L118.877 157.928H118.661L105.413 194H96.7734L83.8854 157.928H83.6694L83.9574 194H72.3654V143.024H89.8614L101.453 175.712H101.741L112.829 143.024H130.613V194H118.589ZM141.131 194V143.024H175.403V153.464H153.011V163.04H174.179V172.904H153.011V183.488H176.699V194H141.131ZM206.681 153.536V194H194.369V153.536H179.969V143.024H221.081V153.536H206.681ZM269.378 186.944C267.122 189.536 264.338 191.6 261.026 193.136C257.714 194.624 253.898 195.368 249.578 195.368C245.642 195.368 241.994 194.72 238.634 193.424C235.322 192.128 232.442 190.304 229.994 187.952C227.546 185.552 225.626 182.696 224.234 179.384C222.842 176.072 222.146 172.424 222.146 168.44C222.146 164.36 222.842 160.664 224.234 157.352C225.674 154.04 227.642 151.232 230.138 148.928C232.634 146.576 235.562 144.776 238.922 143.528C242.282 142.28 245.906 141.656 249.794 141.656C253.394 141.656 256.922 142.304 260.378 143.6C263.882 144.848 266.714 146.696 268.874 149.144L260.522 157.496C259.37 155.912 257.858 154.736 255.986 153.968C254.114 153.2 252.194 152.816 250.226 152.816C248.066 152.816 246.074 153.224 244.25 154.04C242.474 154.808 240.938 155.888 239.642 157.28C238.346 158.672 237.338 160.328 236.618 162.248C235.898 164.12 235.538 166.184 235.538 168.44C235.538 170.744 235.898 172.856 236.618 174.776C237.338 176.696 238.322 178.352 239.57 179.744C240.866 181.088 242.402 182.144 244.178 182.912C245.954 183.68 247.898 184.064 250.01 184.064C252.458 184.064 254.594 183.584 256.418 182.624C258.242 181.664 259.706 180.416 260.81 178.88L269.378 186.944Z" fill="white"/>
<defs>
<linearGradient id="paint0_linear" x1="150" y1="0" x2="150" y2="400" gradientUnits="userSpaceOnUse">
<stop stop-color="#520005"/>
<stop offset="1" stop-color="#8A1017"/>
</linearGradient>
</defs>
</svg>
