<svg width="300" height="400" viewBox="0 0 300 400" fill="none" xmlns="http://www.w3.org/2000/svg">
<rect width="300" height="400" fill="#036AB4"/>
<path d="M98.8872 181.671C98.3309 182.697 97.8031 183.666 97.311 184.572C96.3624 186.382 95.6635 187.915 95.0287 189.177C94.0374 191.643 92.7678 195.179 92.7678 195.179L80.9714 185.719C80.9714 185.719 81.8985 183.845 82.2979 182.996C82.7116 182.162 83.3678 181.05 84.1808 179.575C84.9939 178.064 86.0352 176.446 87.2262 174.507C87.8253 173.523 88.4387 172.589 89.102 171.534L90.6068 168.94C91.7194 166.509 92.939 163.871 94.2228 161.07C95.5636 158.183 97.0257 155.111 98.7517 151.867C99.1867 151.055 99.6432 150.235 100.121 149.394C100.371 148.973 100.62 148.553 100.87 148.125L101.341 147.377C101.583 147.006 101.818 146.614 102.068 146.258C102.582 145.545 103.052 144.782 103.623 144.126C103.901 143.791 104.165 143.435 104.45 143.114L105.335 142.187C106.547 141.018 107.859 140.035 109.321 139.507C110.049 139.222 110.833 139.108 111.625 138.908C112.032 138.88 112.438 138.823 112.838 138.823C113.244 138.837 113.643 138.851 114.036 138.908C115.612 139.115 117.131 139.714 118.607 140.626C120.077 141.539 121.474 142.75 122.787 144.062C123.122 144.383 123.429 144.739 123.757 145.074L124.22 145.58L124.506 145.894C124.862 146.3 125.212 146.707 125.554 147.113C128.25 150.356 130.525 153.621 132.708 156.914C134.869 160.215 136.887 163.529 138.777 166.879C139.725 168.562 140.631 170.237 141.516 172.019C141.958 172.917 142.393 173.815 142.856 174.942C143.078 175.49 143.249 176.011 143.448 176.545L143.727 177.344C143.819 177.615 143.891 177.935 143.976 178.22L144.212 179.112L144.326 179.553C144.361 179.682 144.397 179.931 144.433 180.117C144.561 180.922 144.682 181.72 144.732 182.533C144.754 183.374 144.761 184.222 144.689 185.049C144.568 185.869 144.468 186.689 144.247 187.473C143.399 190.616 141.38 193.297 138.734 194.915C137.415 195.72 135.988 196.34 134.498 196.704C133.749 196.896 133.007 197.053 132.294 197.132C131.93 197.174 131.566 197.217 131.21 197.253C130.846 197.281 130.632 197.281 130.34 197.289C128.129 197.346 126.182 197.125 124.413 196.768C120.875 196.055 117.951 194.915 115.412 193.653C110.363 191.123 106.954 187.894 105.228 185.605C104.9 185.192 104.7 184.743 104.621 184.315C104.543 183.866 104.586 184.308 104.735 182.989C104.992 180.765 107.367 180.138 108.958 180.323C109.735 180.409 109.735 180.373 110.063 180.502C110.405 180.623 110.712 180.815 110.955 181.122C112.631 183.053 115.847 185.527 120.44 187.223C122.73 188.05 125.361 188.713 128.15 188.82C128.842 188.827 129.541 188.82 130.233 188.749C130.91 188.678 131.509 188.556 132.116 188.371C133.307 188.022 134.441 187.28 135.054 186.161C135.239 185.905 135.304 185.577 135.432 185.292C135.489 184.978 135.575 184.664 135.589 184.351C135.632 183.709 135.582 183.082 135.453 182.448C135.368 182.12 135.325 181.827 135.211 181.478C135.09 181.115 134.968 180.744 134.847 180.38C134.548 179.646 134.241 178.876 133.884 178.171C133.135 176.709 132.223 175.162 131.288 173.637C130.347 172.104 129.355 170.572 128.336 169.039C126.289 165.981 124.12 162.938 121.845 160.008C120.704 158.547 119.542 157.121 118.351 155.759C117.752 155.082 117.152 154.419 116.546 153.792L116.09 153.329L115.876 153.115L115.755 153.008C115.598 152.873 115.434 152.744 115.277 152.616C114.963 152.366 114.642 152.153 114.321 151.974C114 151.803 113.665 151.661 113.301 151.675C112.93 151.703 112.624 151.989 112.402 152.274C112.174 152.566 111.996 152.873 111.839 153.172C111.675 153.486 111.575 153.728 111.418 154.07C111.033 154.783 110.662 155.524 110.299 156.266C109.571 157.755 108.886 159.281 108.23 160.799C106.918 163.836 105.734 166.83 104.607 169.695L98.8872 181.671Z" fill="white"/>
<path d="M186.056 146.928C185.449 148.139 184.059 150.748 182.261 153.486C180.478 156.223 178.217 159.438 175.921 163.023C174.78 164.819 173.631 166.708 172.583 168.69C171.535 170.665 170.607 172.739 169.994 174.813C169.823 175.326 169.73 175.847 169.595 176.36C169.523 176.866 169.388 177.379 169.374 177.871C169.252 178.869 169.317 179.803 169.473 180.666C169.602 181.492 169.98 182.405 170.279 182.761C170.458 183.004 170.679 183.182 170.9 183.389C171.035 183.481 171.149 183.581 171.285 183.674C171.442 183.759 171.585 183.845 171.727 183.937C172.362 184.272 173.146 184.543 174.002 184.757C174.872 184.964 175.835 185.085 176.805 185.178C178.788 185.32 180.863 185.256 182.889 185.099C186.954 184.771 190.834 184.087 194.186 183.488C197.538 182.875 200.398 182.334 202.531 182.02C203.608 181.863 204.492 181.749 205.134 181.692C205.79 181.635 210.419 180.894 210.419 180.894L204.513 196.063C204.513 196.063 204.257 196.077 203.779 196.112C203.279 196.155 202.545 196.219 201.603 196.298C199.678 196.469 196.811 196.797 193.195 197.11C189.572 197.41 185.235 197.752 180.143 197.517C177.597 197.381 174.822 197.089 171.741 196.248C170.187 195.784 168.561 195.229 166.849 194.259C165.144 193.29 163.39 191.964 161.913 190.068C161.557 189.576 161.172 189.098 160.886 188.556L160.016 186.945C159.909 186.646 159.802 186.347 159.702 186.04L159.439 185.213C159.275 184.729 159.182 184.23 159.082 183.731C158.854 182.726 158.797 181.742 158.725 180.751C158.725 179.789 158.718 178.812 158.839 177.907C158.918 176.966 159.103 176.125 159.275 175.262C159.374 174.842 159.488 174.443 159.595 174.036C159.702 173.623 159.824 173.231 159.952 172.853C160.444 171.292 161.072 169.93 161.699 168.597C162.983 165.988 164.41 163.75 165.815 161.704C167.227 159.659 168.625 157.82 169.944 156.137C172.59 152.773 174.929 149.986 176.598 147.804C178.296 145.623 179.066 144.518 179.729 144.069C183.795 141.296 188.252 142.537 186.056 146.928Z" fill="white"/>
<path d="M223.642 148.253C225.168 147.476 227.343 146.236 230.053 145.195C232.749 144.062 235.944 143.071 239.396 142.159C240.259 141.924 241.129 141.76 242.021 141.546C242.905 141.36 243.818 141.118 244.717 140.968C246.528 140.64 248.39 140.277 250.23 140.02C257.647 138.887 265.107 138.295 271.041 137.711C276.99 137.148 281.404 136.556 283.073 136.314C291.66 136.934 289.877 142.102 284.257 143.492C281.889 144.212 276.847 145.438 270.621 146.749C264.401 148.068 257.041 149.572 250.294 151.475C246.949 152.48 243.718 153.493 240.93 154.69C240.231 154.99 239.525 155.232 238.89 155.553C238.248 155.859 237.628 156.166 237.021 156.458C236.722 156.601 236.422 156.743 236.13 156.886C235.852 157.043 235.581 157.199 235.317 157.349C234.789 157.656 234.275 157.948 233.791 158.226C233.548 158.368 233.306 158.497 233.084 158.639C232.87 158.789 232.664 158.939 232.457 159.081C232.05 159.359 231.665 159.63 231.309 159.88C230.959 160.136 230.602 160.336 230.324 160.578C230.046 160.813 229.789 161.034 229.561 161.234C228.648 162.004 226.708 163.144 226.708 163.144L223.642 148.253Z" fill="white"/>
<path d="M253.546 198.928L239.175 196.077C239.182 195.877 239.182 195.621 239.204 195.343C239.232 195.086 239.268 194.794 239.304 194.466C239.339 194.138 239.389 193.774 239.432 193.375C239.482 192.983 239.525 192.534 239.618 192.128C239.782 191.294 239.946 190.31 240.188 189.312C241.115 185.306 242.756 180.388 244.738 175.49C246.714 170.593 249.018 165.718 251.15 161.769C253.275 157.812 255.223 154.754 256.178 153.521C260.022 151.162 264.744 151.996 262.148 157.677C261.385 159.238 259.994 162.574 258.625 166.773C257.241 170.964 255.843 176.011 254.809 180.829C253.753 185.641 253.14 190.26 253.104 193.34C253.111 194.095 253.069 194.815 253.154 195.328C253.183 195.599 253.204 195.849 253.226 196.077C253.233 196.191 253.247 196.298 253.254 196.405L253.546 198.928Z" fill="white"/>
<path d="M72.8622 143.335C70.53 143.827 66.75 144.504 61.836 145.702C59.3897 146.308 56.6438 147.056 53.8124 148.161C53.1063 148.439 52.4002 148.753 51.7013 149.081C51.3661 149.259 51.0023 149.423 50.6743 149.622C50.3319 149.815 50.0823 149.972 49.8042 150.164C48.7343 150.891 47.6859 151.846 47.365 153.172C47.0155 154.52 47.472 156.016 48.4491 157C48.6702 157.264 48.9412 157.485 49.1837 157.713L49.5831 158.027C49.7114 158.126 49.8398 158.226 50.0324 158.362C50.7527 158.918 51.5943 159.459 52.443 160.03C53.3131 160.607 54.2118 161.184 55.1604 161.869C55.6239 162.19 56.1089 162.589 56.5939 162.966C57.086 163.401 57.5995 163.843 58.0132 164.307C59.7605 166.117 61.2868 168.277 62.2782 170.9C63.2624 173.495 63.5976 176.653 62.8059 179.604C62.6419 180.352 62.3566 181.044 62.0927 181.757C61.7718 182.427 61.4651 183.118 61.0729 183.724C60.7162 184.351 60.2669 184.95 59.8033 185.542C59.3255 186.09 58.8405 186.661 58.3199 187.131C56.2516 189.106 53.9693 190.389 51.7726 191.415C49.5688 192.427 47.4078 193.126 45.3323 193.703C41.1743 194.837 37.3301 195.428 33.8996 195.87C30.4691 196.298 27.4593 196.548 24.9702 196.726C20.0776 197.061 10 197.253 10 197.253L19.721 182.854C19.721 182.854 20.4485 182.854 21.7679 182.854C23.0802 182.854 24.9774 182.847 27.3024 182.797C29.6204 182.74 32.3662 182.648 35.3474 182.391C38.3144 182.127 41.5523 181.714 44.5549 180.915C46.0527 180.516 47.472 180.01 48.663 179.426C49.8256 178.834 50.7313 178.171 51.1593 177.615C51.2805 177.494 51.3875 177.308 51.5087 177.145C51.5872 177.059 51.6014 176.981 51.6442 176.902C51.6799 176.824 51.7512 176.745 51.7655 176.667C51.9153 176.368 51.958 176.09 52.0151 175.797C52.0793 175.227 51.9937 174.471 51.58 173.523C51.3732 173.053 51.0808 172.554 50.7385 172.048C50.553 171.805 50.3676 171.535 50.1679 171.307L49.8683 170.957C49.7685 170.836 49.69 170.786 49.6045 170.693L49.4761 170.565C49.4333 170.522 49.3548 170.458 49.2906 170.401L48.9055 170.059C48.5846 169.802 48.3064 169.567 47.9427 169.282C47.151 168.676 46.3665 168.07 45.5891 167.472C45.1683 167.151 44.6976 166.766 44.2625 166.409L43.5565 165.804C43.3568 165.632 43.0144 165.333 42.6578 164.984C42.3155 164.649 41.9803 164.307 41.6522 163.957C41.3312 163.608 41.0531 163.223 40.7607 162.867C40.1402 162.154 39.6766 161.363 39.2201 160.579C37.5584 157.385 37.2089 153.728 38.2716 150.57C38.4427 150.114 38.6068 149.665 38.8065 149.23L39.0918 148.575C39.1988 148.368 39.3271 148.161 39.4484 147.954L39.8121 147.349L40.2329 146.778L40.6537 146.215L41.1315 145.695C42.4296 144.34 43.9416 143.2 45.5677 142.323C45.7674 142.202 45.96 142.095 46.1597 141.995L46.6874 141.731C46.9727 141.589 47.2509 141.453 47.5148 141.339C48.0568 141.097 48.5846 140.876 49.0981 140.684C50.1251 140.284 51.0879 139.971 52.0151 139.686C55.7024 138.588 58.7763 138.032 61.4152 137.576C66.6929 136.713 70.1377 136.357 71.8851 136.129C79.6662 135.059 81.6846 141.004 72.8622 143.335Z" fill="white"/>
</svg>
