<svg width="300" height="400" viewBox="0 0 300 400" fill="none" xmlns="http://www.w3.org/2000/svg">
<rect width="300" height="400" fill="url(#paint0_linear)"/>
<path d="M78.8392 124.561C80.9512 124.561 83.4592 124.33 84.7792 123.802C85.3732 123.538 85.4392 123.472 85.6372 122.845C85.9672 121.723 86.3632 118.852 86.3632 118.621C86.3632 118.357 86.2972 118.126 86.1322 118.126C85.9342 118.126 85.8682 118.258 85.8022 118.621C85.7032 119.215 85.2742 120.667 84.5812 121.393C83.2612 122.746 81.3142 123.043 78.8392 123.043C71.7772 123.043 66.9262 117.268 66.9262 110.965C66.9262 107.599 67.4872 104.662 69.8962 102.352C71.0512 101.23 73.0972 99.943 77.4862 99.943C80.3902 99.943 82.9312 100.834 84.0862 101.824C84.9442 102.55 85.4722 103.903 85.4722 105.19C85.4722 105.652 85.5052 105.883 85.7362 105.883C85.9342 105.883 86.0002 105.685 86.0332 105.19C86.0662 104.695 86.0662 102.88 86.1322 101.791C86.1982 100.603 86.2972 100.207 86.2972 99.943C86.2972 99.745 86.2312 99.613 85.8682 99.58C84.8122 99.514 83.7562 99.316 82.5022 99.085C80.8852 98.788 79.0372 98.689 77.7172 98.689C72.6352 98.689 69.6322 100.24 67.6522 102.22C64.7152 105.157 63.9562 109.018 63.9562 111.229C63.9562 114.364 64.7482 118.126 67.9492 120.997C70.5562 123.34 73.8892 124.561 78.8392 124.561ZM89.8594 113.44C89.8594 118.489 93.2584 124.462 101.211 124.462C108.207 124.462 112.86 119.281 112.86 113.011C112.86 106.477 107.91 102.484 101.376 102.484C93.3574 102.484 89.8594 108.919 89.8594 113.44ZM92.8624 112.681C92.8624 106.576 96.3604 103.54 101.211 103.54C105.798 103.54 109.89 107.071 109.89 113.803C109.89 121.921 104.643 123.307 102.036 123.307C96.7894 123.307 92.8624 119.215 92.8624 112.681ZM121.548 110.998C121.548 106.642 121.548 105.85 121.581 104.959C121.647 103.969 121.812 103.54 122.67 103.375C123 103.342 123.429 103.309 123.627 103.309C123.726 103.309 123.858 103.21 123.858 103.111C123.858 102.946 123.693 102.88 123.396 102.88C122.505 102.88 120.327 102.946 120.195 102.946C120.03 102.946 118.215 102.88 116.895 102.88C116.565 102.88 116.433 102.946 116.433 103.111C116.433 103.21 116.565 103.342 116.664 103.342C116.928 103.342 117.423 103.375 117.654 103.408C118.611 103.54 118.776 104.002 118.842 104.959C118.908 105.85 118.908 106.642 118.908 110.998V115.948C118.908 118.654 118.908 120.865 118.743 122.02C118.611 122.845 118.545 123.373 117.984 123.505C117.72 123.571 117.357 123.637 117.093 123.637C116.928 123.637 116.862 123.769 116.862 123.868C116.862 124.033 117.027 124.099 117.324 124.099C117.786 124.099 118.413 124.066 119.007 124.033C119.568 124 120.063 124 120.195 124C121.053 124 122.043 124.033 123.363 124.066C124.716 124.132 126.333 124.165 128.412 124.165C129.963 124.165 130.062 124.066 130.26 123.406C130.491 122.581 130.689 120.898 130.689 120.601C130.689 120.304 130.623 120.172 130.491 120.172C130.326 120.172 130.227 120.337 130.194 120.535C130.095 121.096 129.864 121.69 129.501 122.119C128.808 122.944 127.521 122.977 126.003 122.977C123.726 122.977 122.604 122.779 122.142 122.317C121.614 121.822 121.548 120.139 121.548 116.014V110.998ZM134.922 115.123C134.922 119.215 136.044 121.162 137.463 122.482C139.509 124.396 142.545 124.462 143.502 124.462C145.218 124.462 147.462 124.231 149.574 122.416C151.884 120.436 152.28 117.037 152.28 114.001V110.998C152.28 106.642 152.247 105.85 152.313 104.959C152.379 104.035 152.544 103.573 153.336 103.408C153.699 103.342 153.864 103.342 154.062 103.342C154.194 103.342 154.293 103.21 154.293 103.111C154.293 102.946 154.161 102.88 153.831 102.88C152.973 102.88 151.587 102.946 151.389 102.946C151.224 102.946 149.541 102.88 148.254 102.88C147.924 102.88 147.792 102.946 147.792 103.111C147.792 103.21 147.891 103.342 148.023 103.342C148.287 103.342 148.782 103.375 149.013 103.408C149.97 103.54 150.135 104.068 150.168 104.959C150.201 105.85 150.234 106.642 150.234 110.998V114.529C150.234 117.4 149.937 119.71 148.584 121.327C147.594 122.515 145.878 123.307 144.096 123.307C142.446 123.307 141.192 123.076 139.773 121.789C138.519 120.667 137.628 118.984 137.628 114.925V110.998C137.628 106.642 137.628 105.85 137.694 104.959C137.76 104.035 137.925 103.54 138.684 103.408C139.047 103.342 139.212 103.342 139.41 103.342C139.542 103.342 139.674 103.21 139.674 103.111C139.674 102.946 139.509 102.88 139.179 102.88C138.321 102.88 136.506 102.946 136.242 102.946C135.978 102.946 134.229 102.88 132.909 102.88C132.579 102.88 132.447 102.946 132.447 103.111C132.447 103.21 132.579 103.342 132.678 103.342C132.942 103.342 133.437 103.375 133.668 103.408C134.625 103.54 134.79 104.068 134.856 104.959C134.922 105.85 134.922 106.642 134.922 110.998V115.123ZM179.861 103.243C179.795 102.715 179.63 102.484 179.432 102.484C179.234 102.484 179.102 102.682 178.97 102.946L170.522 120.337L161.744 102.913C161.579 102.583 161.348 102.484 161.15 102.484C160.985 102.484 160.853 102.682 160.82 102.979L158.708 121.294C158.576 122.35 158.543 123.373 157.586 123.538C157.157 123.604 156.959 123.637 156.728 123.637C156.563 123.637 156.431 123.736 156.431 123.835C156.431 124.033 156.629 124.099 156.926 124.099C157.718 124.099 159.104 124 159.368 124C159.599 124 160.985 124.099 162.074 124.099C162.404 124.099 162.602 124.033 162.602 123.835C162.602 123.736 162.47 123.637 162.371 123.637C162.173 123.637 161.744 123.604 161.249 123.472C160.82 123.373 160.556 123.109 160.556 122.68C160.556 122.218 160.556 121.69 160.589 121.261L161.711 108.589H161.843C162.338 109.744 164.681 114.463 165.539 116.245C166.265 117.763 168.179 121.36 168.938 122.746C169.499 123.769 169.664 124.033 169.928 124.033C170.192 124.033 170.357 123.769 170.951 122.548L177.947 108.226H178.013L179.399 122.416C179.465 122.944 179.432 123.373 179.267 123.406C179.135 123.439 179.069 123.538 179.069 123.637C179.069 123.769 179.201 123.868 179.894 123.934C180.95 124.033 184.184 124.099 184.844 124.099C185.174 124.099 185.438 124 185.438 123.835C185.438 123.703 185.339 123.637 185.207 123.637C184.91 123.637 184.151 123.637 183.326 123.373C182.138 122.977 181.94 121.459 181.841 120.469L179.861 103.243ZM190.58 115.948C190.58 118.654 190.58 120.865 190.415 122.02C190.283 122.845 190.217 123.472 189.656 123.571C189.392 123.604 189.029 123.703 188.765 123.703C188.6 123.703 188.534 123.769 188.534 123.868C188.534 124.033 188.699 124.099 188.996 124.099C189.458 124.099 190.151 124.066 190.745 124.033C191.339 124.033 191.867 124 191.933 124C192.065 124 192.89 124.033 193.814 124.066C194.738 124.132 195.794 124.165 196.322 124.165C201.272 124.165 203.615 121.063 203.615 117.928C203.615 114.76 200.711 112.747 198.5 112.087C199.985 110.767 201.437 109.381 201.437 107.17C201.437 105.685 200.183 102.88 195.332 102.88C193.979 102.88 192.626 102.946 191.933 102.946C191.768 102.946 189.887 102.88 188.567 102.88C188.237 102.88 188.105 102.946 188.105 103.111C188.105 103.21 188.237 103.276 188.336 103.276C188.6 103.276 189.095 103.309 189.326 103.342C190.283 103.474 190.448 104.002 190.514 104.959C190.58 105.85 190.58 106.642 190.58 110.998V115.948ZM193.088 104.2C193.088 104.035 193.187 103.969 193.451 103.903C193.913 103.804 194.606 103.771 194.936 103.771C197.84 103.771 199.028 106.147 199.028 108.292C199.028 109.645 198.533 110.602 197.906 111.295C197.312 111.955 196.685 112.021 195.068 112.021C193.979 112.021 193.451 111.922 193.286 111.889C193.154 111.856 193.088 111.79 193.088 111.592V104.2ZM193.088 113.143C193.088 113.011 193.154 112.945 193.253 112.945C193.715 112.945 195.167 112.945 195.53 113.011C196.223 113.143 197.147 113.11 198.137 113.737C200.414 115.189 200.909 117.598 200.909 118.852C200.909 122.449 198.566 123.175 196.652 123.175C196.124 123.175 194.903 123.142 194.111 122.779C193.22 122.35 193.22 122.02 193.121 120.667C193.088 120.238 193.088 116.872 193.088 114.694V113.143ZM212.492 110.998C212.492 106.642 212.492 105.85 212.525 104.959C212.591 103.969 212.756 103.573 213.548 103.408C213.878 103.342 214.076 103.342 214.274 103.342C214.373 103.342 214.505 103.21 214.505 103.111C214.505 102.946 214.373 102.88 214.043 102.88C213.152 102.88 211.271 102.946 211.139 102.946C210.974 102.946 209.159 102.88 208.202 102.88C207.872 102.88 207.74 102.946 207.74 103.111C207.74 103.21 207.839 103.342 207.971 103.342C208.169 103.342 208.532 103.375 208.862 103.441C209.489 103.573 209.72 104.002 209.786 104.959C209.852 105.85 209.852 106.642 209.852 110.998V115.948C209.852 118.654 209.819 120.865 209.687 122.02C209.588 122.845 209.489 123.373 208.928 123.505C208.664 123.571 208.301 123.637 208.037 123.637C207.872 123.637 207.806 123.769 207.806 123.868C207.806 124.033 207.971 124.099 208.268 124.099C209.159 124.099 210.974 124 211.139 124C211.271 124 213.152 124.099 214.769 124.099C215.099 124.099 215.231 124 215.231 123.868C215.231 123.769 215.165 123.637 215 123.637C214.736 123.637 214.109 123.571 213.68 123.505C212.822 123.373 212.723 122.845 212.624 122.02C212.492 120.865 212.492 118.654 212.492 115.948V110.998ZM220.269 120.997C219.708 122.416 219.147 123.406 217.827 123.571C217.596 123.604 217.167 123.637 216.969 123.637C216.837 123.637 216.705 123.736 216.705 123.868C216.705 124.033 216.903 124.099 217.266 124.099C218.454 124.099 219.906 124 220.203 124C220.533 124 222.117 124.099 222.81 124.099C223.074 124.099 223.239 124.033 223.239 123.868C223.239 123.736 223.173 123.637 222.942 123.637H222.678C222.183 123.637 221.688 123.439 221.688 122.878C221.688 122.383 221.853 121.69 222.117 120.997L223.767 116.509C223.833 116.344 223.932 116.278 224.064 116.278H230.763C230.928 116.278 230.961 116.311 231.027 116.443L233.634 122.878C233.832 123.34 233.535 123.571 233.37 123.637C233.238 123.703 233.172 123.703 233.172 123.835C233.172 124 233.634 124 234.195 124.033C236.208 124.099 238.353 124.099 238.782 124.099C239.112 124.099 239.442 124.033 239.442 123.868C239.442 123.703 239.244 123.637 239.079 123.637C238.782 123.637 238.353 123.604 237.924 123.472C237.297 123.274 236.505 122.911 235.449 120.403C233.667 116.146 229.014 104.563 228.486 103.375C228.189 102.748 228.09 102.352 227.793 102.352C227.595 102.352 227.463 102.517 227.1 103.441L220.269 120.997ZM224.46 115.123C224.361 115.123 224.328 115.057 224.361 114.925L227.067 107.236C227.232 106.807 227.397 106.807 227.562 107.236L230.433 114.925C230.466 115.057 230.466 115.123 230.334 115.123H224.46ZM46.7231 157.721C46.7231 152.573 46.7231 151.649 46.7891 150.593C46.8551 149.438 47.1191 148.877 48.0101 148.712C48.4061 148.646 48.6041 148.613 48.8351 148.613C48.9671 148.613 49.0991 148.547 49.0991 148.415C49.0991 148.217 48.9341 148.151 48.5711 148.151C47.5811 148.151 45.5021 148.25 45.3371 148.25C45.1721 148.25 43.0931 148.151 41.6081 148.151C41.2451 148.151 41.0801 148.217 41.0801 148.415C41.0801 148.547 41.2121 148.613 41.3441 148.613C41.6411 148.613 42.2021 148.646 42.4661 148.712C43.5551 148.943 43.8191 149.471 43.8851 150.593C43.9511 151.649 43.9511 152.573 43.9511 157.721V167.258C43.9511 175.772 42.9281 177.521 40.7831 179.699C40.4861 179.996 40.0241 180.392 39.6281 180.623C39.3311 180.821 39.1661 180.92 39.1661 181.118C39.1661 181.25 39.2981 181.316 39.3971 181.316C39.4961 181.316 39.5621 181.283 39.6281 181.25C39.9581 181.085 40.4861 180.722 40.9151 180.425C43.5881 178.577 45.0401 177.026 45.7331 175.376C46.7231 173.033 46.7231 170.987 46.7231 165.641V157.721ZM53.5309 160.592C53.5309 166.532 57.2929 173.561 66.3349 173.561C74.2879 173.561 79.5019 167.456 79.5019 160.064C79.5019 152.375 73.9579 147.689 66.5329 147.689C57.4249 147.689 53.5309 155.246 53.5309 160.592ZM56.6659 159.668C56.6659 152.441 60.7909 148.811 66.3019 148.811C71.5159 148.811 76.3339 153.068 76.3339 160.988C76.3339 170.591 70.1959 172.307 67.2259 172.307C61.2859 172.307 56.6659 167.357 56.6659 159.668ZM85.5752 162.539C85.5752 167.357 86.8292 169.667 88.4462 171.218C90.7892 173.429 94.1222 173.561 95.2442 173.561C97.1912 173.561 99.6662 173.231 102.042 171.119C104.682 168.776 105.078 164.816 105.078 161.252V157.721C105.078 152.573 105.078 151.649 105.144 150.593C105.21 149.438 105.474 148.91 106.365 148.712C106.761 148.646 106.959 148.613 107.19 148.613C107.322 148.613 107.454 148.547 107.454 148.415C107.454 148.217 107.289 148.151 106.926 148.151C105.936 148.151 104.385 148.25 104.154 148.25C103.956 148.25 102.141 148.151 100.656 148.151C100.293 148.151 100.128 148.217 100.128 148.415C100.128 148.547 100.26 148.613 100.392 148.613C100.689 148.613 101.25 148.646 101.514 148.712C102.603 148.943 102.867 149.471 102.933 150.593C102.999 151.649 102.999 152.573 102.999 157.721V161.846C102.999 165.245 102.603 168.05 101.085 169.931C99.8972 171.35 97.9172 172.307 95.9042 172.307C94.0232 172.307 92.5382 172.01 90.9212 170.492C89.5022 169.139 88.4462 167.093 88.4462 162.341V157.721C88.4462 152.573 88.4462 151.649 88.5122 150.593C88.5782 149.438 88.8422 148.844 89.7332 148.712C90.1292 148.646 90.3272 148.613 90.5582 148.613C90.6902 148.613 90.8222 148.547 90.8222 148.415C90.8222 148.217 90.6572 148.151 90.2942 148.151C89.3042 148.151 87.3242 148.25 87.0272 148.25C86.7302 148.25 84.7172 148.151 83.2322 148.151C82.8692 148.151 82.7042 148.217 82.7042 148.415C82.7042 148.547 82.8362 148.613 82.9682 148.613C83.2652 148.613 83.8262 148.646 84.0902 148.712C85.1792 148.943 85.4432 149.471 85.5092 150.593C85.5752 151.649 85.5752 152.573 85.5752 157.721V162.539ZM114.882 163.529C114.882 166.697 114.882 169.304 114.717 170.69C114.585 171.647 114.42 172.373 113.76 172.505C113.463 172.571 113.067 172.637 112.77 172.637C112.572 172.637 112.506 172.736 112.506 172.835C112.506 173.033 112.671 173.099 113.034 173.099C114.024 173.099 116.103 173 116.136 173C116.301 173 118.38 173.099 120.195 173.099C120.558 173.099 120.723 173 120.723 172.835C120.723 172.736 120.657 172.637 120.459 172.637C120.162 172.637 119.436 172.571 118.974 172.505C117.984 172.373 117.786 171.647 117.687 170.69C117.522 169.304 117.522 166.697 117.522 163.529V162.737C117.522 162.572 117.588 162.473 117.753 162.473L121.812 162.539C122.01 162.539 122.109 162.605 122.241 162.737C122.901 163.595 124.452 165.806 125.838 167.621C127.719 170.096 128.874 171.713 130.293 172.472C131.151 172.934 131.976 173.099 133.824 173.099H136.167C136.761 173.099 136.959 173.033 136.959 172.835C136.959 172.736 136.827 172.637 136.662 172.637C136.464 172.637 136.002 172.637 135.375 172.538C134.55 172.406 133.131 172.043 131.349 170.162C129.435 168.116 127.191 165.179 124.485 161.714C127.455 158.975 128.478 156.533 128.478 154.091C128.478 151.814 127.026 150.197 126.201 149.603C124.452 148.349 122.241 148.151 120.162 148.151C119.139 148.151 116.631 148.25 116.268 148.25C116.103 148.25 114.024 148.151 112.539 148.151C112.176 148.151 112.011 148.217 112.011 148.415C112.011 148.547 112.143 148.613 112.275 148.613C112.572 148.613 113.133 148.646 113.397 148.712C114.486 148.943 114.75 149.471 114.816 150.593C114.882 151.649 114.882 152.573 114.882 157.721V163.529ZM117.522 149.801C117.522 149.603 117.621 149.471 117.786 149.405C118.116 149.306 119.007 149.207 119.997 149.207C123.528 149.207 125.706 151.682 125.706 155.807C125.706 158.315 124.848 160.097 123.693 160.889C122.934 161.417 122.01 161.516 121.218 161.516C119.766 161.516 118.248 161.285 117.753 160.988C117.588 160.889 117.522 160.757 117.522 160.592V149.801ZM140.223 152.804C141.279 153.992 145.008 158.15 148.836 162.275C152.334 166.037 157.086 170.888 157.449 171.218C159.198 172.967 159.594 173.33 159.858 173.33C160.089 173.33 160.155 173.165 160.155 170.987L160.221 151.649C160.221 149.669 160.353 148.943 161.442 148.712C161.838 148.613 162.069 148.613 162.234 148.613C162.465 148.613 162.597 148.514 162.597 148.382C162.597 148.184 162.366 148.151 162.003 148.151C160.65 148.151 159.561 148.25 159.198 148.25C158.835 148.25 157.251 148.151 155.766 148.151C155.37 148.151 155.106 148.184 155.106 148.382C155.106 148.514 155.139 148.613 155.37 148.613C155.634 148.613 156.393 148.646 156.987 148.778C158.01 149.042 158.241 149.768 158.274 151.913L158.637 168.677C157.581 167.588 153.984 163.562 150.717 160.064C145.635 154.619 140.718 149.306 140.223 148.745C139.893 148.415 139.332 147.689 139.068 147.689C138.804 147.689 138.705 148.052 138.705 149.339L138.672 168.248C138.672 171.251 138.507 172.208 137.682 172.439C137.187 172.604 136.593 172.637 136.329 172.637C136.164 172.637 136.065 172.703 136.065 172.835C136.065 173.066 136.263 173.099 136.593 173.099C138.078 173.099 139.464 173 139.761 173C140.058 173 141.378 173.099 143.259 173.099C143.655 173.099 143.853 173.033 143.853 172.835C143.853 172.703 143.754 172.637 143.589 172.637C143.292 172.637 142.566 172.604 141.939 172.439C141.048 172.175 140.718 171.317 140.652 168.611L140.223 152.804ZM168.281 169.469C167.687 171.119 167.027 172.373 165.509 172.571C165.245 172.604 164.783 172.637 164.552 172.637C164.387 172.637 164.255 172.703 164.255 172.835C164.255 173.033 164.453 173.099 164.882 173.099C166.433 173.099 168.248 173 168.611 173C168.974 173 170.393 173.099 171.185 173.099C171.482 173.099 171.68 173.033 171.68 172.835C171.68 172.703 171.581 172.637 171.35 172.637H171.02C170.459 172.637 169.766 172.34 169.766 171.68C169.766 171.086 169.931 170.294 170.228 169.469L172.208 163.628C172.274 163.463 172.373 163.364 172.538 163.364H179.633C179.798 163.364 179.864 163.43 179.93 163.562L182.999 171.68C183.197 172.208 182.999 172.505 182.801 172.571C182.669 172.604 182.57 172.67 182.57 172.802C182.57 173 182.933 173 183.56 173.033C185.837 173.099 188.246 173.099 188.741 173.099C189.104 173.099 189.401 173.033 189.401 172.835C189.401 172.67 189.269 172.637 189.071 172.637C188.741 172.637 188.246 172.604 187.751 172.439C187.058 172.241 186.101 171.713 184.913 168.776C182.9 163.76 177.719 150.131 177.224 148.877C176.828 147.854 176.696 147.689 176.498 147.689C176.3 147.689 176.168 147.887 175.772 148.976L168.281 169.469ZM172.901 162.176C172.802 162.176 172.736 162.11 172.802 161.945L175.706 153.035C175.871 152.54 176.036 152.54 176.201 153.035L179.336 161.945C179.369 162.077 179.369 162.176 179.204 162.176H172.901ZM196.899 157.721C196.899 152.573 196.899 151.649 196.965 150.593C197.031 149.438 197.295 148.877 198.252 148.712C198.648 148.646 199.11 148.613 199.341 148.613C199.473 148.613 199.605 148.547 199.605 148.415C199.605 148.217 199.44 148.151 199.077 148.151C198.087 148.151 195.678 148.25 195.513 148.25C195.348 148.25 193.269 148.151 191.784 148.151C191.421 148.151 191.256 148.217 191.256 148.415C191.256 148.547 191.388 148.613 191.52 148.613C191.817 148.613 192.378 148.646 192.642 148.712C193.731 148.943 193.995 149.471 194.061 150.593C194.127 151.649 194.127 152.573 194.127 157.721V163.529C194.127 166.697 194.127 169.304 193.962 170.69C193.83 171.647 193.665 172.373 193.005 172.505C192.708 172.571 192.312 172.637 192.015 172.637C191.817 172.637 191.751 172.736 191.751 172.835C191.751 173.033 191.916 173.099 192.279 173.099C192.774 173.099 193.5 173.066 194.16 173.033C194.82 173.033 195.381 173 195.513 173C196.47 173 197.493 173.033 198.879 173.099C200.265 173.132 201.981 173.198 204.357 173.198C206.106 173.198 206.205 173.066 206.436 172.307C206.7 171.35 206.931 169.37 206.931 169.007C206.931 168.644 206.898 168.512 206.733 168.512C206.535 168.512 206.469 168.677 206.436 168.941C206.337 169.568 206.007 170.393 205.578 170.921C204.786 171.878 203.334 171.911 201.585 171.911C199.011 171.911 198.153 171.68 197.625 171.152C197.031 170.558 196.899 168.446 196.899 163.595V157.721ZM220.329 162.44C220.329 167.489 223.728 173.462 231.681 173.462C238.677 173.462 243.33 168.281 243.33 162.011C243.33 155.477 238.38 151.484 231.846 151.484C223.827 151.484 220.329 157.919 220.329 162.44ZM223.332 161.681C223.332 155.576 226.83 152.54 231.681 152.54C236.268 152.54 240.36 156.071 240.36 162.803C240.36 170.921 235.113 172.307 232.506 172.307C227.259 172.307 223.332 168.215 223.332 161.681ZM249.378 164.948C249.378 167.654 249.378 169.865 249.213 171.02C249.081 171.845 249.015 172.406 248.454 172.505C248.19 172.538 247.827 172.637 247.563 172.637C247.398 172.637 247.332 172.769 247.332 172.868C247.332 173.033 247.497 173.099 247.794 173.099C248.685 173.099 250.5 173 250.665 173C250.797 173 252.678 173.099 254.295 173.099C254.625 173.099 254.757 173 254.757 172.868C254.757 172.769 254.691 172.637 254.526 172.637C254.262 172.637 253.635 172.571 253.206 172.505C252.414 172.373 252.249 171.845 252.15 171.02C252.018 169.931 252.018 167.72 252.018 164.948V162.704C252.018 162.506 252.051 162.44 252.216 162.44C252.711 162.44 256.143 162.407 256.869 162.506C257.76 162.638 258.222 163.001 258.354 163.397C258.486 163.727 258.519 164.123 258.552 164.42C258.552 164.552 258.585 164.684 258.75 164.684C258.948 164.684 259.014 164.387 259.014 164.123C259.014 163.925 259.047 162.803 259.113 162.242C259.179 161.318 259.377 160.856 259.377 160.691C259.377 160.559 259.344 160.46 259.212 160.46C259.113 160.46 258.981 160.592 258.849 160.757C258.585 161.087 258.189 161.186 257.496 161.252C257.1 161.285 256.671 161.285 256.176 161.285L252.216 161.318C252.018 161.318 252.018 161.219 252.018 161.054V153.398C252.018 153.167 252.084 153.101 252.249 153.101L257.001 153.167C258.123 153.167 258.816 153.629 258.981 153.992C259.146 154.355 259.245 154.817 259.245 155.048C259.245 155.246 259.344 155.378 259.476 155.378C259.608 155.378 259.707 155.213 259.74 155.081C259.806 154.751 259.839 153.497 259.872 153.233C259.971 152.441 260.103 152.111 260.103 151.913C260.103 151.781 260.037 151.649 259.905 151.649C259.806 151.649 259.674 151.781 259.509 151.814C259.245 151.913 258.75 151.913 258.189 151.946C257.529 151.979 251.226 151.946 250.665 151.946C250.5 151.946 248.685 151.88 247.365 151.88C247.035 151.88 246.903 151.946 246.903 152.111C246.903 152.21 247.035 152.342 247.134 152.342C247.398 152.342 247.893 152.375 248.124 152.408C249.081 152.54 249.246 153.002 249.312 153.959C249.378 154.85 249.378 155.642 249.378 159.998V164.948ZM69.5064 218.659C69.5064 222.615 69.5064 226.012 69.2914 227.818C69.1624 229.065 68.9044 230.011 68.0444 230.183C67.6574 230.269 67.1414 230.355 66.4964 230.355C65.9804 230.355 65.8084 230.484 65.8084 230.699C65.8084 231 66.1094 231.129 66.6684 231.129C68.3884 231.129 71.0974 231 72.0864 231C73.2904 231 75.9994 231.129 78.8374 231.129C79.3104 231.129 79.6544 231 79.6544 230.699C79.6544 230.484 79.4394 230.355 78.9664 230.355C78.3214 230.355 77.3754 230.269 76.7734 230.183C75.4834 230.011 75.2254 229.065 75.0964 227.861C74.8814 226.012 74.8814 222.615 74.8814 218.659V201.029L80.2994 201.158C84.1264 201.244 85.2874 202.448 85.3734 203.566L85.4164 204.039C85.4594 204.684 85.5454 204.899 85.8894 204.899C86.1474 204.899 86.2334 204.641 86.2764 204.211C86.2764 203.093 86.4054 200.126 86.4054 199.223C86.4054 198.578 86.3624 198.32 86.0614 198.32C85.8894 198.32 85.5454 198.406 84.9004 198.535C84.2554 198.621 83.3094 198.75 81.9334 198.75H64.9054C63.4864 198.75 61.8524 198.664 60.6054 198.535C59.5304 198.449 59.1004 198.019 58.7564 198.019C58.4984 198.019 58.3694 198.277 58.2404 198.836C58.1544 199.18 57.3374 203.093 57.3374 203.781C57.3374 204.254 57.4234 204.469 57.7244 204.469C57.9824 204.469 58.1114 204.297 58.1974 203.953C58.2834 203.609 58.4984 203.093 58.9284 202.448C59.5734 201.502 60.6054 201.287 63.0994 201.201L69.5064 201.029V218.659ZM100.547 221.927C100.719 221.927 100.848 221.97 100.934 222.185L103.858 229.538C104.03 229.968 103.772 230.312 103.514 230.355C103.127 230.398 103.041 230.527 103.041 230.742C103.041 231 103.471 231 104.159 231.043C107.341 231.129 110.093 231.129 111.426 231.129C112.845 231.129 113.06 231.043 113.06 230.742C113.06 230.484 112.888 230.355 112.544 230.355C112.114 230.355 111.684 230.312 111.125 230.226C110.437 230.097 109.362 229.624 107.9 226.313C105.492 220.766 99.1713 205.802 98.2683 203.781C97.8813 202.964 97.7093 202.62 97.1503 202.62C96.7633 202.62 96.4623 203.05 96.0323 204.082L86.1423 227.087C85.3683 228.936 84.7233 230.054 83.0033 230.312C82.6593 230.312 82.2293 230.355 81.8853 230.355C81.5843 230.355 81.4553 230.527 81.4553 230.742C81.4553 231.043 81.6703 231.129 82.1433 231.129C84.1213 231.129 86.1423 231 86.5293 231C87.7333 231 89.4963 231.129 90.7433 231.129C91.1303 231.129 91.3453 231.043 91.3453 230.742C91.3453 230.527 91.2593 230.355 90.7863 230.355H90.2273C89.0663 230.355 88.7223 229.968 88.7223 229.323C88.7223 228.893 88.8943 227.99 89.2813 227.087L91.3023 222.185C91.3883 221.97 91.4313 221.927 91.6463 221.927H100.547ZM92.4203 219.906C92.2913 219.906 92.2053 219.82 92.2913 219.648L95.9463 210.403C95.9893 210.274 96.0323 210.059 96.1613 210.059C96.2473 210.059 96.2903 210.274 96.3333 210.403L99.9023 219.691C99.9453 219.82 99.9023 219.906 99.7303 219.906H92.4203ZM132.085 207.221C133.246 205.63 133.934 204.641 134.794 204.426C135.31 204.297 135.783 204.211 136.17 204.211C136.557 204.211 136.772 204.039 136.772 203.824C136.772 203.566 136.514 203.48 136.084 203.48C134.665 203.48 133.117 203.566 132.386 203.566C131.655 203.566 129.892 203.48 128.43 203.48C127.871 203.48 127.613 203.566 127.613 203.824C127.613 204.082 127.871 204.211 128.086 204.211C128.387 204.211 128.903 204.211 129.29 204.34C129.677 204.426 129.935 204.684 129.935 204.942C129.935 205.243 129.806 205.759 129.505 206.275C128.86 207.307 125.506 212.252 124.388 213.886C122.883 211.392 121.335 208.855 119.658 205.931C119.443 205.544 119.271 205.071 119.271 204.856C119.271 204.641 119.443 204.426 119.787 204.34C120.088 204.254 120.475 204.211 120.69 204.211C121.034 204.211 121.292 204.082 121.292 203.824C121.292 203.566 121.034 203.48 120.518 203.48C119.099 203.48 116.777 203.566 116.261 203.566C114.455 203.566 111.402 203.48 110.499 203.48C110.026 203.48 109.725 203.566 109.725 203.781C109.725 204.039 109.897 204.211 110.112 204.211C110.499 204.211 111.101 204.297 111.703 204.469C113.036 204.899 113.81 205.673 114.756 207.135L121.421 217.541L114.025 227.517C112.735 229.28 112.133 229.882 111.015 230.183C110.456 230.312 109.897 230.355 109.639 230.355C109.338 230.355 109.123 230.57 109.123 230.785C109.123 231 109.295 231.129 109.682 231.129H110.327C110.929 231.129 112.778 231 113.509 231C114.455 231 116.949 231.129 117.164 231.129H117.852C118.368 231.129 118.626 231.043 118.626 230.785C118.626 230.57 118.368 230.355 118.153 230.355C117.852 230.355 117.551 230.312 117.336 230.312C116.992 230.312 116.648 230.097 116.605 229.753C116.562 229.366 116.777 228.807 117.164 228.205L122.711 219.605C124.431 222.4 126.495 225.84 128.688 229.409C128.989 229.882 128.731 230.14 128.559 230.183C128.215 230.269 128.043 230.441 128.043 230.656C128.043 230.914 128.387 231 129.376 231.043C132.472 231.129 135.482 231.129 136.385 231.129H137.503C137.933 231.129 138.234 231 138.234 230.742C138.234 230.527 138.019 230.355 137.761 230.355C137.417 230.355 136.815 230.312 136.299 230.14C135.482 229.882 134.88 229.495 134.235 228.678C133.289 227.517 127.011 217.584 125.807 215.778L132.085 207.221ZM162.511 211.091C162.511 204.555 162.511 203.351 162.597 201.975C162.683 200.47 163.027 199.739 164.188 199.524C164.704 199.438 165.392 199.395 165.865 199.395C166.381 199.395 166.639 199.309 166.639 199.008C166.639 198.707 166.338 198.621 165.736 198.621C164.059 198.621 160.92 198.75 159.888 198.75C158.727 198.75 156.018 198.621 153.997 198.621C153.352 198.621 153.051 198.707 153.051 199.008C153.051 199.309 153.309 199.395 153.782 199.395C154.341 199.395 154.857 199.438 155.201 199.524C156.62 199.825 156.964 200.513 157.05 201.975C157.136 203.351 157.136 204.555 157.136 211.091V218.659C157.136 222.615 157.136 226.012 156.921 227.818C156.749 229.065 156.534 230.011 155.674 230.183C155.287 230.269 154.771 230.355 154.126 230.355C153.61 230.355 153.438 230.484 153.438 230.699C153.438 231 153.739 231.129 154.298 231.129C155.158 231.129 156.276 231.043 157.265 231.043C158.297 231 159.243 231 159.716 231C161.479 231 163.027 231.043 164.962 231.129C166.897 231.172 169.133 231.258 172.229 231.258C174.465 231.258 174.68 231.043 174.938 230.097C175.282 228.85 175.583 225.625 175.583 225.152C175.583 224.636 175.54 224.421 175.239 224.421C174.895 224.421 174.809 224.679 174.766 225.066C174.68 225.883 174.164 227.087 173.648 227.646C172.573 228.807 170.896 228.85 168.617 228.85C165.263 228.85 164.145 228.549 163.414 227.904C162.511 227.13 162.511 224.163 162.511 218.659V211.091ZM193.686 221.927C193.858 221.927 193.987 221.97 194.073 222.185L196.997 229.538C197.169 229.968 196.911 230.312 196.653 230.355C196.266 230.398 196.18 230.527 196.18 230.742C196.18 231 196.61 231 197.298 231.043C200.48 231.129 203.232 231.129 204.565 231.129C205.984 231.129 206.199 231.043 206.199 230.742C206.199 230.484 206.027 230.355 205.683 230.355C205.253 230.355 204.823 230.312 204.264 230.226C203.576 230.097 202.501 229.624 201.039 226.313C198.631 220.766 192.31 205.802 191.407 203.781C191.02 202.964 190.848 202.62 190.289 202.62C189.902 202.62 189.601 203.05 189.171 204.082L179.281 227.087C178.507 228.936 177.862 230.054 176.142 230.312C175.798 230.312 175.368 230.355 175.024 230.355C174.723 230.355 174.594 230.527 174.594 230.742C174.594 231.043 174.809 231.129 175.282 231.129C177.26 231.129 179.281 231 179.668 231C180.872 231 182.635 231.129 183.882 231.129C184.269 231.129 184.484 231.043 184.484 230.742C184.484 230.527 184.398 230.355 183.925 230.355H183.366C182.205 230.355 181.861 229.968 181.861 229.323C181.861 228.893 182.033 227.99 182.42 227.087L184.441 222.185C184.527 221.97 184.57 221.927 184.785 221.927H193.686ZM185.559 219.906C185.43 219.906 185.344 219.82 185.43 219.648L189.085 210.403C189.128 210.274 189.171 210.059 189.3 210.059C189.386 210.059 189.429 210.274 189.472 210.403L193.041 219.691C193.084 219.82 193.041 219.906 192.869 219.906H185.559ZM212.903 230.269C213.247 231.215 213.462 231.602 213.935 231.602C214.494 231.602 214.709 231.172 215.397 229.667C216.945 226.313 222.019 213.37 222.664 211.822H222.75L230.447 229.839C231.006 231.172 231.264 231.602 231.78 231.602C232.339 231.602 232.554 231.172 232.984 229.882C234.833 224.421 238.703 212.811 240.466 208.21C241.24 206.103 241.67 204.727 242.573 204.383C243.003 204.254 243.519 204.211 243.906 204.211C244.25 204.211 244.422 204.039 244.422 203.781C244.422 203.566 244.164 203.48 243.734 203.48C242.487 203.48 240.853 203.566 240.595 203.566C240.251 203.566 238.531 203.48 236.553 203.48C235.951 203.48 235.65 203.566 235.65 203.824C235.65 204.039 235.951 204.211 236.295 204.211C237.8 204.211 238.144 204.641 238.144 205.243C238.144 205.759 238.015 206.49 237.757 207.35C236.424 211.607 233.543 221.239 232.812 223.346H232.683L225.115 205.329C224.642 204.168 224.298 203.609 223.868 203.609C223.524 203.609 223.137 203.91 222.75 204.942L215.526 223.604H215.397C214.838 221.927 211.398 210.876 210.753 208.468C210.28 206.791 209.936 205.587 209.936 205.114C209.936 204.727 209.979 204.512 210.323 204.383C210.624 204.254 210.968 204.211 211.269 204.211C211.656 204.211 211.957 204.082 211.957 203.824C211.957 203.566 211.699 203.48 211.14 203.48C208.947 203.48 207.098 203.566 206.754 203.566C206.41 203.566 204.303 203.48 202.368 203.48C201.809 203.48 201.508 203.566 201.508 203.824C201.508 204.082 201.723 204.211 202.11 204.211C202.454 204.211 203.185 204.254 203.572 204.512C204.131 204.856 204.432 205.716 204.905 207.049L212.903 230.269Z" fill="#650006"/>
<defs>
<linearGradient id="paint0_linear" x1="150" y1="0" x2="150" y2="400" gradientUnits="userSpaceOnUse">
<stop stop-color="white"/>
<stop offset="1" stop-color="white" stop-opacity="0"/>
</linearGradient>
</defs>
</svg>
