<svg width="1067" height="50" fill="none" xmlns="http://www.w3.org/2000/svg"><path d="M21.72 37.816c3.072 0 6.72-.336 8.64-1.104.864-.384.96-.48 1.248-1.392.48-1.632 1.056-5.808 1.056-6.144 0-.384-.096-.72-.336-.72-.288 0-.384.192-.48.72-.144.864-.768 2.976-1.776 4.032-1.92 1.968-4.752 2.4-8.352 2.4-10.272 0-17.328-8.4-17.328-17.568 0-4.896.816-9.168 4.32-12.528 1.68-1.632 4.656-3.504 11.04-3.504 4.224 0 7.92 1.296 9.6 2.736C30.6 5.8 31.368 7.768 31.368 9.64c0 .672.048 1.008.384 1.008.288 0 .384-.288.432-1.008.048-.72.048-3.36.144-4.944.096-1.728.24-2.304.24-2.688 0-.288-.096-.48-.624-.528-1.536-.096-3.072-.384-4.896-.72-2.352-.432-5.04-.576-6.96-.576-7.392 0-11.76 2.256-14.64 5.136C1.176 9.592.072 15.208.072 18.424c0 4.56 1.152 10.032 5.808 14.208 3.792 3.408 8.64 5.184 15.84 5.184zM37.75 21.64c0 7.344 4.943 16.032 16.511 16.032 10.176 0 16.944-7.536 16.944-16.656 0-9.504-7.2-15.312-16.704-15.312-11.664 0-16.752 9.36-16.752 15.936zm4.367-1.104c0-8.88 5.088-13.296 12.144-13.296 6.672 0 12.624 5.136 12.624 14.928 0 11.808-7.632 13.824-11.424 13.824-7.632 0-13.344-5.952-13.344-15.456zM83.843 18.088c0-6.336 0-7.488.047-8.784.097-1.44.337-2.064 1.585-2.304a18.51 18.51 0 011.392-.096c.143 0 .335-.144.335-.288 0-.24-.24-.336-.671-.336-1.297 0-4.465.096-4.657.096-.24 0-2.88-.096-4.8-.096-.48 0-.671.096-.671.336 0 .144.191.336.335.336.385 0 1.105.048 1.44.096 1.392.192 1.633.864 1.728 2.256.096 1.296.096 2.448.096 8.784v7.2c0 3.936 0 7.152-.24 8.832-.192 1.2-.287 1.968-1.103 2.16-.385.096-.913.192-1.297.192-.24 0-.335.192-.335.336 0 .24.24.336.671.336.673 0 1.585-.048 2.449-.096C80.963 37 81.681 37 81.874 37c1.249 0 2.689.048 4.609.096 1.968.096 4.32.144 7.343.144 2.257 0 2.4-.144 2.689-1.104.335-1.2.623-3.648.623-4.08 0-.432-.096-.624-.288-.624-.24 0-.383.24-.431.528-.144.816-.48 1.68-1.008 2.304-1.008 1.2-2.88 1.248-5.088 1.248-3.313 0-4.944-.288-5.616-.96-.768-.72-.864-3.168-.864-9.168v-7.296zM103.296 24.088c0 5.952 1.632 8.784 3.696 10.704 2.976 2.784 7.392 2.88 8.784 2.88 2.496 0 5.76-.336 8.832-2.976 3.36-2.88 3.936-7.824 3.936-12.24v-4.368c0-6.336-.048-7.488.048-8.784.096-1.344.336-2.016 1.488-2.256.528-.096.768-.096 1.056-.096.192 0 .336-.192.336-.336 0-.24-.192-.336-.672-.336-1.248 0-3.264.096-3.552.096-.24 0-2.688-.096-4.56-.096-.48 0-.672.096-.672.336 0 .144.144.336.336.336.384 0 1.104.048 1.44.096 1.392.192 1.632.96 1.68 2.256.048 1.296.096 2.448.096 8.784v5.136c0 4.176-.432 7.536-2.4 9.888-1.44 1.728-3.936 2.88-6.528 2.88-2.4 0-4.224-.336-6.288-2.208-1.824-1.632-3.12-4.08-3.12-9.984v-5.712c0-6.336 0-7.488.096-8.784.096-1.344.336-2.064 1.44-2.256.528-.096.768-.096 1.056-.096.192 0 .384-.192.384-.336 0-.24-.24-.336-.72-.336-1.248 0-3.888.096-4.272.096-.384 0-2.928-.096-4.848-.096-.48 0-.672.096-.672.336 0 .144.192.336.336.336.384 0 1.104.048 1.44.096 1.392.192 1.632.96 1.728 2.256.096 1.296.096 2.448.096 8.784v6zM168.661 6.808c-.096-.768-.336-1.104-.624-1.104s-.48.288-.672.672l-12.288 25.296-12.768-25.344c-.24-.48-.576-.624-.864-.624-.24 0-.432.288-.48.72l-3.072 26.64c-.192 1.536-.24 3.024-1.632 3.264-.624.096-.912.144-1.248.144-.24 0-.432.144-.432.288 0 .288.288.384.72.384 1.152 0 3.168-.144 3.552-.144.336 0 2.352.144 3.936.144.48 0 .768-.096.768-.384 0-.144-.192-.288-.336-.288-.288 0-.912-.048-1.632-.24-.624-.144-1.008-.528-1.008-1.152 0-.672 0-1.44.048-2.064l1.632-18.432h.192c.72 1.68 4.128 8.544 5.376 11.136 1.056 2.208 3.84 7.44 4.944 9.456.816 1.488 1.056 1.872 1.44 1.872.384 0 .624-.384 1.488-2.16l10.176-20.832h.096l2.016 20.64c.096.768.048 1.392-.192 1.44-.192.048-.288.192-.288.336 0 .192.192.336 1.2.432 1.536.144 6.24.24 7.2.24.48 0 .864-.144.864-.384 0-.192-.144-.288-.336-.288-.432 0-1.536 0-2.736-.384-1.728-.576-2.016-2.784-2.16-4.224l-2.88-25.056zM184.252 25.288c0 3.936 0 7.152-.24 8.832-.192 1.2-.288 2.112-1.104 2.256-.384.048-.912.192-1.296.192-.24 0-.336.096-.336.24 0 .24.24.336.672.336.672 0 1.68-.048 2.544-.096.864 0 1.632-.048 1.728-.048.192 0 1.392.048 2.736.096 1.344.096 2.88.144 3.648.144 7.2 0 10.608-4.512 10.608-9.072 0-4.608-4.224-7.536-7.44-8.496 2.16-1.92 4.272-3.936 4.272-7.152 0-2.16-1.824-6.24-8.88-6.24-1.968 0-3.936.096-4.944.096-.24 0-2.976-.096-4.896-.096-.48 0-.672.096-.672.336 0 .144.192.24.336.24.384 0 1.104.048 1.44.096 1.392.192 1.632.96 1.728 2.352.096 1.296.096 2.448.096 8.784v7.2zM187.9 8.2c0-.24.144-.336.528-.432.672-.144 1.68-.192 2.16-.192 4.224 0 5.952 3.456 5.952 6.576 0 1.968-.72 3.36-1.632 4.368-.864.96-1.776 1.056-4.128 1.056-1.584 0-2.352-.144-2.592-.192-.192-.048-.288-.144-.288-.432V8.2zm0 13.008c0-.192.096-.288.24-.288.672 0 2.784 0 3.312.096 1.008.192 2.352.144 3.792 1.056 3.312 2.112 4.032 5.616 4.032 7.44 0 5.232-3.408 6.288-6.192 6.288-.768 0-2.544-.048-3.696-.576-1.296-.624-1.296-1.104-1.44-3.072-.048-.624-.048-5.52-.048-8.688v-2.256zM216.124 18.088c0-6.336 0-7.488.048-8.784.096-1.44.336-2.016 1.488-2.256.48-.096.768-.096 1.056-.096.144 0 .336-.192.336-.336 0-.24-.192-.336-.672-.336-1.296 0-4.032.096-4.224.096-.24 0-2.88-.096-4.272-.096-.48 0-.672.096-.672.336 0 .144.144.336.336.336.288 0 .816.048 1.296.144.912.192 1.248.816 1.344 2.208.096 1.296.096 2.448.096 8.784v7.2c0 3.936-.048 7.152-.24 8.832-.144 1.2-.288 1.968-1.104 2.16-.384.096-.912.192-1.296.192-.24 0-.336.192-.336.336 0 .24.24.336.672.336 1.296 0 3.936-.144 4.176-.144.192 0 2.928.144 5.28.144.48 0 .672-.144.672-.336 0-.144-.096-.336-.336-.336-.384 0-1.296-.096-1.92-.192-1.248-.192-1.392-.96-1.536-2.16-.192-1.68-.192-4.896-.192-8.832v-7.2zM227.436 32.632c-.816 2.064-1.632 3.504-3.552 3.744-.336.048-.96.096-1.248.096-.192 0-.384.144-.384.336 0 .24.288.336.816.336 1.728 0 3.84-.144 4.272-.144.48 0 2.784.144 3.792.144.384 0 .624-.096.624-.336 0-.192-.096-.336-.432-.336h-.384c-.72 0-1.44-.288-1.44-1.104 0-.72.24-1.728.624-2.736l2.4-6.528c.096-.24.24-.336.432-.336h9.744c.24 0 .288.048.384.24l3.792 9.36c.288.672-.144 1.008-.384 1.104-.192.096-.288.096-.288.288 0 .24.672.24 1.488.288 2.928.096 6.048.096 6.672.096.48 0 .96-.096.96-.336 0-.24-.288-.336-.528-.336a5.87 5.87 0 01-1.68-.24c-.912-.288-2.064-.816-3.6-4.464-2.592-6.192-9.36-23.04-10.128-24.768-.432-.912-.576-1.488-1.008-1.488-.288 0-.48.24-1.008 1.584l-9.936 25.536zm6.096-8.544c-.144 0-.192-.096-.144-.288l3.936-11.184c.24-.624.48-.624.72 0L242.22 23.8c.048.192.048.288-.144.288h-8.544zM274.822 21.784c0 7.008 1.825 10.368 4.177 12.624 3.408 3.216 8.256 3.408 9.888 3.408 2.832 0 6.432-.48 9.888-3.552 3.84-3.408 4.415-9.168 4.415-14.352v-5.136c0-7.488 0-8.832.096-10.368.096-1.68.48-2.448 1.776-2.736.576-.096.864-.144 1.2-.144.192 0 .384-.096.384-.288 0-.288-.24-.384-.768-.384-1.44 0-3.696.144-4.032.144-.288 0-2.928-.144-5.088-.144-.528 0-.768.096-.768.384 0 .192.192.288.384.288.432 0 1.248.048 1.633.144 1.583.336 1.967 1.104 2.063 2.736.096 1.536.097 2.88.097 10.368v6c0 4.944-.576 9.024-2.784 11.76-1.728 2.064-4.609 3.456-7.537 3.456-2.736 0-4.896-.432-7.248-2.64-2.064-1.968-3.599-4.944-3.599-11.856v-6.72c0-7.488-.001-8.832.095-10.368.096-1.68.48-2.544 1.776-2.736.576-.096.864-.144 1.2-.144.192 0 .384-.096.384-.288 0-.288-.24-.384-.768-.384-1.44 0-4.32.144-4.752.144-.432 0-3.36-.144-5.52-.144-.528 0-.768.096-.768.384 0 .192.192.288.384.288.432 0 1.249.048 1.633.144 1.584.336 1.968 1.104 2.064 2.736.096 1.536.095 2.88.095 10.368v7.008zM316.189 12.328c1.296 1.44 6.048 6.432 10.944 11.568 4.464 4.656 10.56 10.656 10.992 11.04 2.352 2.16 2.784 2.496 3.216 2.496.288 0 .336-.24.336-2.928l.096-23.904c0-2.448.096-3.264 1.488-3.552.48-.096.816-.096 1.008-.096.288 0 .48-.24.48-.384 0-.24-.336-.288-.768-.288-1.728 0-3.12.096-3.6.096s-2.496-.096-4.416-.096c-.48 0-.816.048-.816.288 0 .144.048.384.336.384.336 0 1.296.048 2.064.192 1.296.24 1.536 1.152 1.584 3.792l.432 20.448c-1.296-1.344-5.808-6.192-9.984-10.512-6.528-6.72-12.672-13.248-13.344-13.92-.432-.432-1.152-1.248-1.632-1.248-.336 0-.576.432-.576 2.064v23.376c0 3.696-.144 4.8-1.2 5.088-.624.192-1.392.24-1.728.24a.328.328 0 00-.336.336c0 .288.24.336.672.336 1.92 0 3.696-.144 4.08-.144.384 0 2.064.144 4.464.144.48 0 .768-.096.768-.336a.328.328 0 00-.336-.336c-.384 0-1.344-.048-2.112-.24-1.152-.288-1.536-1.296-1.632-4.656l-.48-19.248zM357.78 18.088c0-6.336 0-7.488.048-8.784.096-1.44.336-2.016 1.488-2.256.48-.096.768-.096 1.056-.096.144 0 .336-.192.336-.336 0-.24-.192-.336-.672-.336-1.296 0-4.032.096-4.224.096-.24 0-2.88-.096-4.272-.096-.48 0-.672.096-.672.336 0 .144.144.336.336.336.288 0 .816.048 1.296.144.912.192 1.248.816 1.344 2.208.096 1.296.096 2.448.096 8.784v7.2c0 3.936-.048 7.152-.24 8.832-.144 1.2-.288 1.968-1.104 2.16-.384.096-.912.192-1.296.192-.24 0-.336.192-.336.336 0 .24.24.336.672.336 1.296 0 3.936-.144 4.176-.144.192 0 2.928.144 5.28.144.48 0 .672-.144.672-.336 0-.144-.096-.336-.336-.336-.384 0-1.296-.096-1.92-.192-1.248-.192-1.392-.96-1.536-2.16-.192-1.68-.192-4.896-.192-8.832v-7.2zM373.892 11.272c-.624-1.632-1.152-2.88-1.152-3.408 0-.288.048-.528.48-.72.384-.144 1.056-.192 1.536-.192.288 0 .432-.192.432-.384s-.384-.288-1.152-.288c-1.632 0-3.504.096-3.936.096-.528 0-2.928-.096-4.944-.096-.672 0-1.104.048-1.104.288 0 .144.096.384.336.384.24 0 .96 0 1.632.144 1.392.336 1.968.768 2.928 3.072l10.368 25.008c.816 1.968 1.104 2.496 1.584 2.496.432 0 .672-.624 1.824-3.072.96-2.016 2.832-6.432 5.424-12.384 2.16-4.992 4.224-9.888 4.704-11.04 1.104-2.784 1.776-3.36 2.352-3.744.768-.48 1.728-.48 2.016-.48.336 0 .48-.192.48-.384s-.24-.288-.672-.288c-1.248 0-3.072.096-3.312.096-.528 0-2.448-.096-4.128-.096-.672 0-.96.096-.96.336 0 .192.24.336.48.336.48 0 .96 0 1.44.144.432.144.576.528.576.864 0 .336-.192.912-.384 1.536-.912 2.928-6.432 16.848-8.88 22.32l-7.968-20.544zM403.956 25.288c0 3.936 0 7.152-.24 8.832-.192 1.2-.288 2.016-1.104 2.16-.384.048-.912.192-1.296.192-.24 0-.336.192-.336.336 0 .24.24.336.672.336.672 0 1.632-.048 2.448-.096.912-.048 1.728-.048 1.824-.048.624 0 1.728 0 3.504.096 1.728.048 4.176.144 7.344.144 1.632 0 2.064 0 2.352-1.056.24-.864.576-3.648.576-3.936 0-.288-.048-.624-.288-.624s-.336.144-.432.624c-.24 1.632-.816 2.352-1.92 2.832-1.104.432-3.12.432-4.224.432-4.176 0-4.944-.528-5.04-3.264-.048-.816 0-5.568 0-6.96V21.88c0-.144.048-.288.288-.288.72 0 5.232.048 6.384.192 1.632.192 2.016.672 2.16 1.248.192.528.192.96.192 1.344 0 .24.096.384.288.384.288 0 .384-.432.384-.768 0-.288.096-1.824.192-2.64.096-1.344.336-2.016.336-2.256 0-.24-.096-.336-.24-.336s-.336.24-.624.528c-.432.432-1.056.48-2.064.576-.96.096-6.528.096-7.056.096-.24 0-.24-.144-.24-.432V8.44c0-.288.048-.432.24-.432.48 0 5.376.048 6.096.144 2.304.288 2.736.576 3.024 1.248.192.48.24 1.152.24 1.44 0 .336.096.528.336.528.192 0 .336-.24.384-.432.096-.48.192-2.304.24-2.688.096-1.152.336-1.632.336-1.92 0-.192-.048-.384-.192-.384-.192 0-.384.144-.576.192-.336.048-1.104.192-1.92.24-.96.048-9.792 0-10.08 0-.24 0-2.976-.096-4.896-.096-.48 0-.672.096-.672.336 0 .144.192.336.336.336.384 0 1.104.048 1.44.096 1.392.192 1.632.864 1.728 2.256.096 1.296.096 2.448.096 8.784v7.2zM430.393 25.288c0 3.936 0 7.152-.24 8.832-.192 1.2-.288 1.968-1.104 2.16-.384.096-.912.192-1.296.192-.24 0-.336.192-.336.336 0 .24.24.336.672.336 1.296 0 4.128-.144 4.176-.144.192 0 2.88.144 5.184.144.48 0 .672-.144.672-.336 0-.144-.048-.336-.336-.336-.384 0-1.296-.096-1.872-.192-1.296-.192-1.536-.96-1.68-2.16-.192-1.68-.192-4.848-.192-8.784v-.96c0-.24.096-.336.288-.336l5.376.096c.288 0 .384.048.576.24.912 1.104 2.784 3.744 4.56 5.952 2.4 3.072 3.936 5.04 5.76 6 1.056.576 2.112.816 4.512.816h2.64c.768 0 1.008-.096 1.008-.336 0-.144-.144-.336-.384-.336-.24 0-.672 0-1.488-.144-1.056-.144-2.448-.528-4.704-2.832-2.448-2.544-5.376-6.24-8.832-10.56 3.936-3.36 5.184-6.288 5.184-9.312 0-2.832-1.872-4.8-2.928-5.568-2.208-1.536-5.184-1.776-7.872-1.776-1.296 0-4.848.096-5.28.096-.24 0-3.072-.096-4.992-.096-.48 0-.672.096-.672.336 0 .144.192.336.336.336.384 0 1.104.048 1.44.096 1.392.192 1.632.864 1.728 2.256.096 1.296.096 2.448.096 8.784v7.2zm3.648-16.848c0-.24.144-.384.336-.48.432-.096 1.776-.24 3.024-.24 4.512 0 7.296 2.928 7.296 8.016 0 3.12-1.104 5.28-2.544 6.24-1.008.672-2.16.72-3.168.72-1.872 0-4.032-.288-4.656-.624-.192-.144-.288-.288-.288-.528V8.44z" fill="#2C6BAC"/><path d="M464.813 37.672c2.304 0 4.944-.288 6.72-1.44 3.024-1.968 3.936-4.56 3.936-6.96 0-3.504-1.776-6.336-6.912-9.84l-1.2-.816c-4.176-2.832-5.472-4.32-5.472-6.912 0-2.88 2.544-4.416 5.616-4.416 3.792 0 5.184 1.536 5.472 2.016.24.432.576 1.536.624 2.016.048.336.096.528.384.528.288 0 .336-.288.336-.912 0-2.784.192-4.128.192-4.32 0-.24-.096-.288-.432-.288-.336 0-.672 0-1.488-.192-1.008-.24-2.688-.48-4.368-.48-5.568 0-9.36 2.88-9.36 7.68 0 2.832 1.488 5.328 6.048 8.736l1.92 1.44c3.744 2.784 5.328 4.176 5.328 7.104 0 3.072-2.16 5.424-6.336 5.424-2.832 0-6-1.056-6.672-4.032-.144-.576-.144-1.152-.144-1.488 0-.336-.144-.48-.384-.48-.24 0-.336.24-.336.672-.048.672-.24 2.304-.24 4.32 0 1.104.048 1.248.624 1.536 1.728.816 4.176 1.104 6.144 1.104zM490.296 18.088c0-6.336 0-7.488.048-8.784.096-1.44.336-2.016 1.488-2.256.48-.096.768-.096 1.056-.096.144 0 .336-.192.336-.336 0-.24-.192-.336-.672-.336-1.296 0-4.032.096-4.224.096-.24 0-2.88-.096-4.272-.096-.48 0-.672.096-.672.336 0 .144.144.336.336.336.288 0 .816.048 1.296.144.912.192 1.248.816 1.344 2.208.096 1.296.096 2.448.096 8.784v7.2c0 3.936-.048 7.152-.24 8.832-.144 1.2-.288 1.968-1.104 2.16-.384.096-.912.192-1.296.192-.24 0-.336.192-.336.336 0 .24.24.336.672.336 1.296 0 3.936-.144 4.176-.144.192 0 2.928.144 5.28.144.48 0 .672-.144.672-.336 0-.144-.096-.336-.336-.336-.384 0-1.296-.096-1.92-.192-1.248-.192-1.392-.96-1.536-2.16-.192-1.68-.192-4.896-.192-8.832v-7.2zM514.328 8.152l5.28.096c4.032.096 4.944 1.008 5.088 2.256l.048.432c.048.576.144.72.336.72.192 0 .384-.192.384-.528 0-.48.144-3.408.144-4.656 0-.24 0-.48-.192-.48s-.576.096-1.2.192c-.672.096-1.632.192-3.024.192h-15.936c-.48 0-2.112-.048-3.312-.192-1.152-.144-1.584-.48-1.872-.48-.144 0-.336.528-.432.768-.048.336-.912 3.984-.912 4.416 0 .24.192.336.288.336.192 0 .336-.048.432-.384.144-.288.192-.576.672-1.296.624-.96 1.632-1.248 4.272-1.296l6.096-.096v17.136c0 3.936 0 7.152-.192 8.832-.144 1.2-.384 2.016-1.248 2.208-.384.096-.864.192-1.248.192-.24 0-.336.144-.336.288 0 .24.192.336.672.336 1.248 0 4.176-.144 4.368-.144.24 0 2.928.144 5.232.144.48 0 .672-.144.672-.336 0-.144-.048-.336-.336-.336-.384 0-1.344-.096-1.92-.192-1.296-.192-1.488-.96-1.632-2.16-.192-1.68-.192-4.896-.192-8.832V8.152zM540.146 30.04c0 .672 0 2.4-.096 4.08-.096 1.2-.384 1.968-1.248 2.16-.384.096-.864.192-1.248.192-.24 0-.336.192-.336.336 0 .24.192.336.672.336 1.248 0 3.936-.144 4.128-.144.24 0 2.976.144 5.328.144.432 0 .672-.144.672-.336 0-.144-.096-.336-.336-.336-.384 0-1.344-.096-1.92-.192-1.248-.192-1.536-.96-1.632-2.16-.144-1.68-.144-3.408-.144-4.08v-3.504c0-1.344-.192-2.64.528-4.08.864-1.728 6.816-11.328 8.208-12.96.912-1.104 1.296-1.536 2.112-2.016a4.324 4.324 0 011.968-.528c.336 0 .528-.24.528-.432 0-.144-.24-.24-.528-.24-.816 0-3.84.096-4.128.096-.336 0-1.824-.096-2.928-.096-.432 0-.672.096-.672.24 0 .192.24.384.624.48.48.144.672.48.672 1.056 0 .528-.192 1.2-.72 2.112-.768 1.344-6.048 10.08-6.912 11.808l-7.68-12.72c-.288-.528-.576-1.008-.576-1.584 0-.336.192-.528.528-.672.384-.144.672-.288.672-.432 0-.192-.096-.288-.576-.288-1.632 0-3.36.096-3.648.096-.192 0-3.36-.096-4.176-.096-.384 0-.528.096-.528.288 0 .192.192.384.432.384.336 0 1.152.192 1.776.576.768.528 1.776 1.44 2.784 2.976 1.44 2.16 7.152 11.232 7.488 11.856.624 1.152.912 1.968.912 4.176v3.504zM583.748 14.776c0-7.488 0-8.832.096-10.368.096-1.68.48-2.496 1.872-2.736a11.273 11.273 0 011.584-.144c.192 0 .384-.096.384-.288 0-.288-.24-.384-.768-.384-1.44 0-4.944.144-5.184.144-.24 0-3.264-.144-5.424-.144-.528 0-.768.096-.768.384 0 .192.192.288.384.288.432 0 1.248.048 1.632.144 1.584.336 1.968 1.104 2.064 2.736.096 1.536.096 2.88.096 10.368v8.448c0 4.608 0 8.4-.24 10.416-.192 1.392-.432 2.448-1.392 2.64-.432.096-1.008.192-1.44.192-.288 0-.384.144-.384.288 0 .288.24.384.768.384.72 0 1.776-.048 2.736-.096.96 0 1.776-.048 1.968-.048 1.392 0 2.88.048 4.896.144 2.016.048 4.512.144 7.968.144 2.544 0 2.688-.192 3.024-1.296.384-1.392.72-4.272.72-4.8 0-.528-.048-.72-.288-.72-.288 0-.384.24-.432.624-.144.912-.624 2.112-1.248 2.88-1.152 1.392-3.264 1.44-5.808 1.44-3.744 0-4.992-.336-5.76-1.104-.864-.864-1.056-3.936-1.056-10.992v-8.544zM610.858 18.088c0-6.336 0-7.488.048-8.784.096-1.44.336-2.016 1.488-2.256.48-.096.768-.096 1.056-.096.144 0 .336-.192.336-.336 0-.24-.192-.336-.672-.336-1.296 0-4.032.096-4.224.096-.24 0-2.88-.096-4.272-.096-.48 0-.672.096-.672.336 0 .144.144.336.336.336.288 0 .816.048 1.296.144.912.192 1.248.816 1.344 2.208.096 1.296.096 2.448.096 8.784v7.2c0 3.936-.048 7.152-.24 8.832-.144 1.2-.288 1.968-1.104 2.16-.384.096-.912.192-1.296.192-.24 0-.336.192-.336.336 0 .24.24.336.672.336 1.296 0 3.936-.144 4.176-.144.192 0 2.928.144 5.28.144.48 0 .672-.144.672-.336 0-.144-.096-.336-.336-.336-.384 0-1.296-.096-1.92-.192-1.248-.192-1.392-.96-1.536-2.16-.192-1.68-.192-4.896-.192-8.832v-7.2zM624.737 25.288c0 3.936 0 7.152-.24 8.832-.192 1.2-.288 2.112-1.104 2.256-.384.048-.912.192-1.296.192-.24 0-.336.096-.336.24 0 .24.24.336.672.336.672 0 1.68-.048 2.544-.096.864 0 1.632-.048 1.728-.048.192 0 1.392.048 2.736.096 1.344.096 2.88.144 3.648.144 7.2 0 10.608-4.512 10.608-9.072 0-4.608-4.224-7.536-7.44-8.496 2.16-1.92 4.272-3.936 4.272-7.152 0-2.16-1.824-6.24-8.88-6.24-1.968 0-3.936.096-4.944.096-.24 0-2.976-.096-4.896-.096-.48 0-.672.096-.672.336 0 .144.192.24.336.24.384 0 1.104.048 1.44.096 1.392.192 1.632.96 1.728 2.352.096 1.296.096 2.448.096 8.784v7.2zM628.385 8.2c0-.24.144-.336.528-.432.672-.144 1.68-.192 2.16-.192 4.224 0 5.952 3.456 5.952 6.576 0 1.968-.72 3.36-1.632 4.368-.864.96-1.776 1.056-4.128 1.056-1.584 0-2.352-.144-2.592-.192-.192-.048-.288-.144-.288-.432V8.2zm0 13.008c0-.192.096-.288.24-.288.672 0 2.784 0 3.312.096 1.008.192 2.352.144 3.792 1.056 3.312 2.112 4.032 5.616 4.032 7.44 0 5.232-3.408 6.288-6.192 6.288-.768 0-2.544-.048-3.696-.576-1.296-.624-1.296-1.104-1.44-3.072-.048-.624-.048-5.52-.048-8.688v-2.256zM652.768 25.288c0 3.936 0 7.152-.24 8.832-.192 1.2-.288 1.968-1.104 2.16-.384.096-.912.192-1.296.192-.24 0-.336.192-.336.336 0 .24.24.336.672.336 1.296 0 4.128-.144 4.176-.144.192 0 2.88.144 5.184.144.48 0 .672-.144.672-.336 0-.144-.048-.336-.336-.336-.384 0-1.296-.096-1.872-.192-1.296-.192-1.536-.96-1.68-2.16-.192-1.68-.192-4.848-.192-8.784v-.96c0-.24.096-.336.288-.336l5.376.096c.288 0 .384.048.576.24.912 1.104 2.784 3.744 4.56 5.952 2.4 3.072 3.936 5.04 5.76 6 1.056.576 2.112.816 4.512.816h2.64c.768 0 1.008-.096 1.008-.336 0-.144-.144-.336-.384-.336-.24 0-.672 0-1.488-.144-1.056-.144-2.448-.528-4.704-2.832-2.448-2.544-5.376-6.24-8.832-10.56 3.936-3.36 5.184-6.288 5.184-9.312 0-2.832-1.872-4.8-2.928-5.568-2.208-1.536-5.184-1.776-7.872-1.776-1.296 0-4.848.096-5.28.096-.24 0-3.072-.096-4.992-.096-.48 0-.672.096-.672.336 0 .144.192.336.336.336.384 0 1.104.048 1.44.096 1.392.192 1.632.864 1.728 2.256.096 1.296.096 2.448.096 8.784v7.2zm3.648-16.848c0-.24.144-.384.336-.48.432-.096 1.776-.24 3.024-.24 4.512 0 7.296 2.928 7.296 8.016 0 3.12-1.104 5.28-2.544 6.24-1.008.672-2.16.72-3.168.72-1.872 0-4.032-.288-4.656-.624-.192-.144-.288-.288-.288-.528V8.44z" fill="#2C6BAC"/><path d="M681.749 32.632c-.816 2.064-1.632 3.504-3.552 3.744-.336.048-.96.096-1.248.096-.192 0-.385.144-.385.336 0 .24.288.336.816.336 1.728 0 3.84-.144 4.272-.144.48 0 2.784.144 3.792.144.384 0 .625-.096.625-.336 0-.192-.096-.336-.432-.336h-.385c-.72 0-1.44-.288-1.44-1.104 0-.72.24-1.728.624-2.736l2.401-6.528c.096-.24.239-.336.431-.336h9.744c.24 0 .289.048.385.24l3.792 9.36c.288.672-.145 1.008-.385 1.104-.192.096-.287.096-.287.288 0 .24.671.24 1.487.288 2.928.096 6.048.096 6.672.096.48 0 .961-.096.961-.336 0-.24-.289-.336-.529-.336a5.87 5.87 0 01-1.68-.24c-.912-.288-2.063-.816-3.599-4.464C701.237 25.576 694.468 8.728 693.7 7c-.432-.912-.576-1.488-1.008-1.488-.288 0-.48.24-1.008 1.584l-9.935 25.536zm6.096-8.544c-.144 0-.193-.096-.145-.288l3.937-11.184c.24-.624.479-.624.719 0l4.177 11.184c.048.192.048.288-.144.288h-8.544zM715.206 25.288c0 3.936 0 7.152-.24 8.832-.192 1.2-.288 1.968-1.104 2.16-.384.096-.912.192-1.296.192-.24 0-.336.192-.336.336 0 .24.24.336.672.336 1.296 0 4.128-.144 4.176-.144.192 0 2.88.144 5.184.144.48 0 .672-.144.672-.336 0-.144-.048-.336-.336-.336-.384 0-1.296-.096-1.872-.192-1.296-.192-1.536-.96-1.68-2.16-.192-1.68-.192-4.848-.192-8.784v-.96c0-.24.096-.336.288-.336l5.376.096c.288 0 .384.048.576.24.912 1.104 2.784 3.744 4.56 5.952 2.4 3.072 3.936 5.04 5.76 6 1.056.576 2.112.816 4.512.816h2.64c.768 0 1.008-.096 1.008-.336 0-.144-.144-.336-.384-.336-.24 0-.672 0-1.488-.144-1.056-.144-2.448-.528-4.704-2.832-2.448-2.544-5.376-6.24-8.832-10.56 3.936-3.36 5.184-6.288 5.184-9.312 0-2.832-1.872-4.8-2.928-5.568-2.208-1.536-5.184-1.776-7.872-1.776-1.296 0-4.848.096-5.28.096-.24 0-3.072-.096-4.992-.096-.48 0-.672.096-.672.336 0 .144.192.336.336.336.384 0 1.104.048 1.44.096 1.392.192 1.632.864 1.728 2.256.096 1.296.096 2.448.096 8.784v7.2zm3.648-16.848c0-.24.144-.384.336-.48.432-.096 1.776-.24 3.024-.24 4.512 0 7.296 2.928 7.296 8.016 0 3.12-1.104 5.28-2.544 6.24-1.008.672-2.16.72-3.168.72-1.872 0-4.032-.288-4.656-.624-.192-.144-.288-.288-.288-.528V8.44zM751.296 18.088c0-6.336 0-7.488.048-8.784.096-1.44.336-2.016 1.488-2.256.48-.096.768-.096 1.056-.096.144 0 .336-.192.336-.336 0-.24-.192-.336-.672-.336-1.296 0-4.032.096-4.224.096-.24 0-2.88-.096-4.272-.096-.48 0-.672.096-.672.336 0 .144.144.336.336.336.288 0 .816.048 1.296.144.912.192 1.248.816 1.344 2.208.096 1.296.096 2.448.096 8.784v7.2c0 3.936-.048 7.152-.24 8.832-.144 1.2-.288 1.968-1.104 2.16-.384.096-.912.192-1.296.192-.24 0-.336.192-.336.336 0 .24.24.336.672.336 1.296 0 3.936-.144 4.176-.144.192 0 2.928.144 5.28.144.48 0 .672-.144.672-.336 0-.144-.096-.336-.336-.336-.384 0-1.296-.096-1.92-.192-1.248-.192-1.392-.96-1.536-2.16-.192-1.68-.192-4.896-.192-8.832v-7.2zM765.174 25.288c0 3.936 0 7.152-.24 8.832-.192 1.2-.288 2.016-1.104 2.16-.384.048-.912.192-1.296.192-.24 0-.336.192-.336.336 0 .24.24.336.672.336.672 0 1.632-.048 2.448-.096.912-.048 1.728-.048 1.824-.048.624 0 1.728 0 3.504.096 1.728.048 4.176.144 7.344.144 1.632 0 2.064 0 2.352-1.056.24-.864.576-3.648.576-3.936 0-.288-.048-.624-.288-.624s-.336.144-.432.624c-.24 1.632-.816 2.352-1.92 2.832-1.104.432-3.12.432-4.224.432-4.176 0-4.944-.528-5.04-3.264-.048-.816 0-5.568 0-6.96V21.88c0-.144.048-.288.288-.288.72 0 5.232.048 6.384.192 1.632.192 2.016.672 2.16 1.248.192.528.192.96.192 1.344 0 .24.096.384.288.384.288 0 .384-.432.384-.768 0-.288.096-1.824.192-2.64.096-1.344.336-2.016.336-2.256 0-.24-.096-.336-.24-.336s-.336.24-.624.528c-.432.432-1.056.48-2.064.576-.96.096-6.528.096-7.056.096-.24 0-.24-.144-.24-.432V8.44c0-.288.048-.432.24-.432.48 0 5.376.048 6.096.144 2.304.288 2.736.576 3.024 1.248.192.48.24 1.152.24 1.44 0 .336.096.528.336.528.192 0 .336-.24.384-.432.096-.48.192-2.304.24-2.688.096-1.152.336-1.632.336-1.92 0-.192-.048-.384-.192-.384-.192 0-.384.144-.576.192-.336.048-1.104.192-1.92.24-.96.048-9.792 0-10.08 0-.24 0-2.976-.096-4.896-.096-.48 0-.672.096-.672.336 0 .144.192.336.336.336.384 0 1.104.048 1.44.096 1.392.192 1.632.864 1.728 2.256.096 1.296.096 2.448.096 8.784v7.2zM794.204 37.672c2.304 0 4.944-.288 6.72-1.44 3.024-1.968 3.936-4.56 3.936-6.96 0-3.504-1.776-6.336-6.912-9.84l-1.2-.816c-4.176-2.832-5.472-4.32-5.472-6.912 0-2.88 2.544-4.416 5.616-4.416 3.792 0 5.184 1.536 5.472 2.016.24.432.576 1.536.624 2.016.048.336.096.528.384.528.288 0 .336-.288.336-.912 0-2.784.192-4.128.192-4.32 0-.24-.096-.288-.432-.288-.336 0-.672 0-1.488-.192-1.008-.24-2.688-.48-4.368-.48-5.568 0-9.36 2.88-9.36 7.68 0 2.832 1.488 5.328 6.048 8.736l1.92 1.44c3.744 2.784 5.328 4.176 5.328 7.104 0 3.072-2.16 5.424-6.336 5.424-2.832 0-6-1.056-6.672-4.032-.144-.576-.144-1.152-.144-1.488 0-.336-.144-.48-.384-.48-.24 0-.336.24-.336.672-.048.672-.24 2.304-.24 4.32 0 1.104.048 1.248.624 1.536 1.728.816 4.176 1.104 6.144 1.104zM837.529 14.776c0-7.488 0-8.832.096-10.368.096-1.68.48-2.496 1.776-2.736.576-.096.864-.144 1.2-.144.192 0 .384-.096.384-.288 0-.288-.24-.384-.768-.384-1.44 0-4.464.144-4.704.144-.24 0-3.264-.144-5.424-.144-.528 0-.768.096-.768.384 0 .192.192.288.384.288.432 0 1.248.048 1.632.144 1.584.336 1.968 1.104 2.064 2.736.096 1.536.096 2.88.096 10.368v13.872c0 12.384-1.488 14.928-4.608 18.096-.432.432-1.104 1.008-1.68 1.344-.432.288-.672.432-.672.72 0 .192.192.288.336.288.144 0 .24-.048.336-.096.48-.24 1.248-.768 1.872-1.2 3.888-2.688 6-4.944 7.008-7.344 1.44-3.408 1.44-6.384 1.44-14.16v-11.52zM846.952 21.64c0 7.344 4.945 16.032 16.513 16.032 10.176 0 16.943-7.536 16.943-16.656 0-9.504-7.2-15.312-16.704-15.312-11.664 0-16.752 9.36-16.752 15.936zm4.368-1.104c0-8.88 5.089-13.296 12.145-13.296 6.672 0 12.623 5.136 12.623 14.928 0 11.808-7.631 13.824-11.423 13.824-7.632 0-13.345-5.952-13.345-15.456zM888.358 24.088c0 5.952 1.632 8.784 3.696 10.704 2.976 2.784 7.392 2.88 8.784 2.88 2.496 0 5.76-.336 8.832-2.976 3.36-2.88 3.936-7.824 3.936-12.24v-4.368c0-6.336-.048-7.488.048-8.784.096-1.344.336-2.016 1.488-2.256.528-.096.768-.096 1.056-.096.192 0 .336-.192.336-.336 0-.24-.192-.336-.672-.336-1.248 0-3.264.096-3.552.096-.24 0-2.688-.096-4.56-.096-.48 0-.672.096-.672.336 0 .144.144.336.336.336.384 0 1.104.048 1.44.096 1.392.192 1.632.96 1.68 2.256.048 1.296.096 2.448.096 8.784v5.136c0 4.176-.432 7.536-2.4 9.888-1.44 1.728-3.936 2.88-6.528 2.88-2.4 0-4.224-.336-6.288-2.208-1.824-1.632-3.12-4.08-3.12-9.984v-5.712c0-6.336 0-7.488.096-8.784.096-1.344.336-2.064 1.44-2.256.528-.096.768-.096 1.056-.096.192 0 .384-.192.384-.336 0-.24-.24-.336-.72-.336-1.248 0-3.888.096-4.272.096-.384 0-2.928-.096-4.848-.096-.48 0-.672.096-.672.336 0 .144.192.336.336.336.384 0 1.104.048 1.44.096 1.392.192 1.632.96 1.728 2.256.096 1.296.096 2.448.096 8.784v6zM925.674 25.288c0 3.936 0 7.152-.24 8.832-.192 1.2-.288 1.968-1.104 2.16-.384.096-.912.192-1.296.192-.24 0-.336.192-.336.336 0 .24.24.336.672.336 1.296 0 4.128-.144 4.176-.144.192 0 2.88.144 5.184.144.48 0 .672-.144.672-.336 0-.144-.048-.336-.336-.336-.384 0-1.296-.096-1.872-.192-1.296-.192-1.536-.96-1.68-2.16-.192-1.68-.192-4.848-.192-8.784v-.96c0-.24.096-.336.288-.336l5.376.096c.288 0 .384.048.576.24.912 1.104 2.784 3.744 4.56 5.952 2.4 3.072 3.936 5.04 5.76 6 1.056.576 2.112.816 4.512.816h2.64c.768 0 1.008-.096 1.008-.336 0-.144-.144-.336-.384-.336-.24 0-.672 0-1.488-.144-1.056-.144-2.448-.528-4.704-2.832-2.448-2.544-5.376-6.24-8.832-10.56 3.936-3.36 5.184-6.288 5.184-9.312 0-2.832-1.872-4.8-2.928-5.568-2.208-1.536-5.184-1.776-7.872-1.776-1.296 0-4.848.096-5.28.096-.24 0-3.072-.096-4.992-.096-.48 0-.672.096-.672.336 0 .144.192.336.336.336.384 0 1.104.048 1.44.096 1.392.192 1.632.864 1.728 2.256.096 1.296.096 2.448.096 8.784v7.2zm3.648-16.848c0-.24.144-.384.336-.48.432-.096 1.776-.24 3.024-.24 4.512 0 7.296 2.928 7.296 8.016 0 3.12-1.104 5.28-2.544 6.24-1.008.672-2.16.72-3.168.72-1.872 0-4.032-.288-4.656-.624-.192-.144-.288-.288-.288-.528V8.44z" fill="#2C6BAC"/><path d="M959.22 12.328c1.296 1.44 6.048 6.432 10.944 11.568 4.464 4.656 10.56 10.656 10.992 11.04 2.352 2.16 2.784 2.496 3.216 2.496.288 0 .336-.24.336-2.928l.096-23.904c0-2.448.096-3.264 1.488-3.552.48-.096.816-.096 1.008-.096.288 0 .48-.24.48-.384 0-.24-.336-.288-.768-.288-1.728 0-3.12.096-3.6.096s-2.496-.096-4.416-.096c-.48 0-.816.048-.816.288 0 .144.048.384.336.384.336 0 1.296.048 2.064.192 1.296.24 1.536 1.152 1.584 3.792l.432 20.448c-1.296-1.344-5.808-6.192-9.984-10.512-6.528-6.72-12.672-13.248-13.344-13.92-.432-.432-1.152-1.248-1.632-1.248-.336 0-.576.432-.576 2.064v23.376c0 3.696-.144 4.8-1.2 5.088-.624.192-1.392.24-1.728.24a.328.328 0 00-.336.336c0 .288.24.336.672.336 1.92 0 3.696-.144 4.08-.144.384 0 2.064.144 4.464.144.48 0 .768-.096.768-.336a.328.328 0 00-.336-.336c-.384 0-1.344-.048-2.112-.24-1.152-.288-1.536-1.296-1.632-4.656l-.48-19.248zM994.405 32.632c-.816 2.064-1.632 3.504-3.552 3.744-.336.048-.96.096-1.248.096-.192 0-.384.144-.384.336 0 .24.288.336.816.336 1.728 0 3.84-.144 4.272-.144.48 0 2.784.144 3.792.144.384 0 .624-.096.624-.336 0-.192-.096-.336-.432-.336h-.384c-.72 0-1.44-.288-1.44-1.104 0-.72.24-1.728.624-2.736l2.4-6.528c.096-.24.24-.336.432-.336h9.745c.24 0 .29.048.38.24l3.79 9.36c.29.672-.14 1.008-.38 1.104-.19.096-.29.096-.29.288 0 .24.67.24 1.49.288 2.93.096 6.05.096 6.67.096.48 0 .96-.096.96-.336 0-.24-.29-.336-.53-.336-.43 0-1.05-.048-1.68-.24-.91-.288-2.06-.816-3.6-4.464-2.59-6.192-9.36-23.04-10.12-24.768-.44-.912-.58-1.488-1.01-1.488-.29 0-.48.24-1.01 1.584l-9.935 25.536zm6.095-8.544c-.14 0-.19-.096-.14-.288l3.93-11.184c.24-.624.48-.624.72 0l4.18 11.184c.05.192.05.288-.15.288h-8.54zM1031.7 18.088c0-6.336 0-7.488.05-8.784.1-1.44.34-2.064 1.58-2.304.48-.048 1.11-.096 1.4-.096.14 0 .33-.144.33-.288 0-.24-.24-.336-.67-.336-1.3 0-4.46.096-4.66.096-.24 0-2.88-.096-4.8-.096-.48 0-.67.096-.67.336 0 .144.19.336.34.336.38 0 1.1.048 1.44.096 1.39.192 1.63.864 1.73 2.256.09 1.296.09 2.448.09 8.784v7.2c0 3.936 0 7.152-.24 8.832-.19 1.2-.29 1.968-1.1 2.16-.39.096-.91.192-1.3.192-.24 0-.33.192-.33.336 0 .24.24.336.67.336.67 0 1.58-.048 2.45-.096.81-.048 1.53-.048 1.72-.048 1.25 0 2.69.048 4.61.096 1.97.096 4.32.144 7.35.144 2.25 0 2.4-.144 2.68-1.104.34-1.2.63-3.648.63-4.08 0-.432-.1-.624-.29-.624-.24 0-.38.24-.43.528-.15.816-.48 1.68-1.01 2.304-1.01 1.2-2.88 1.248-5.09 1.248-3.31 0-4.94-.288-5.61-.96-.77-.72-.87-3.168-.87-9.168v-7.296zM1056.14 37.672c2.31 0 4.95-.288 6.72-1.44 3.03-1.968 3.94-4.56 3.94-6.96 0-3.504-1.78-6.336-6.91-9.84l-1.2-.816c-4.18-2.832-5.48-4.32-5.48-6.912 0-2.88 2.55-4.416 5.62-4.416 3.79 0 5.18 1.536 5.47 2.016.24.432.58 1.536.63 2.016.04.336.09.528.38.528.29 0 .34-.288.34-.912 0-2.784.19-4.128.19-4.32 0-.24-.1-.288-.43-.288-.34 0-.68 0-1.49-.192-1.01-.24-2.69-.48-4.37-.48-5.57 0-9.36 2.88-9.36 7.68 0 2.832 1.49 5.328 6.05 8.736l1.92 1.44c3.74 2.784 5.33 4.176 5.33 7.104 0 3.072-2.16 5.424-6.34 5.424-2.83 0-6-1.056-6.67-4.032-.15-.576-.15-1.152-.15-1.488 0-.336-.14-.48-.38-.48s-.34.24-.34.672c-.04.672-.24 2.304-.24 4.32 0 1.104.05 1.248.63 1.536 1.73.816 4.17 1.104 6.14 1.104z" fill="#2C6BAC"/></svg>