<svg width="251" height="67" viewBox="0 0 251 67" fill="none" xmlns="http://www.w3.org/2000/svg">
<path d="M1.90362 50.768C1.90362 60.448 8.59162 64.056 15.9836 64.056C23.6396 64.056 32.5276 59.832 35.0796 46.72L43.8796 1.4H25.4876L24.7836 4.92H39.3916L31.4716 46.192C29.4476 56.928 21.9676 60.448 15.9836 60.448C8.41562 60.448 5.77562 56.136 5.77562 50.152C5.77562 48.832 5.95162 47.512 6.21562 46.192L6.56762 44.256H2.78362L2.43162 46.192C2.07962 48.128 1.90362 49.36 1.90362 50.768ZM49.403 31.76C49.403 49.624 62.339 64.056 80.291 64.056C95.251 64.056 103.523 54.728 103.523 54.728L101.147 52.088C101.147 52.088 93.491 60.448 80.291 60.448C64.803 60.448 53.363 47.776 53.363 31.76C53.363 15.832 64.891 3.952 80.027 3.952C92.347 3.952 99.651 10.904 99.651 10.904L101.939 8.088C101.939 8.088 94.547 0.343999 79.939 0.343999C62.603 0.343999 49.403 13.896 49.403 31.76ZM114.644 63H150.02V59.48H118.428V33.696H142.98V30.176H118.428V4.92H148.348V1.4H114.644V63ZM161.397 63H165.181V37.48H181.637C192.373 37.48 200.381 30.528 200.381 19.352C200.381 8.176 192.373 1.4 181.637 1.4H161.397V63ZM165.181 33.96V4.92H181.461C190.437 4.92 196.421 10.112 196.421 19.352C196.421 28.592 190.437 33.96 181.461 33.96H165.181ZM224.124 63H227.908V4.92H250.876V1.4H201.156V4.92H224.124V63Z" fill="white"/>
</svg>
