<svg width="621" height="38" viewBox="0 0 621 38" fill="none" xmlns="http://www.w3.org/2000/svg">
<path d="M17.792 28.612C20.096 28.612 22.832 28.36 24.272 27.784C24.884 27.532 25.028 27.352 25.208 26.74C25.568 25.516 26 22.384 26 21.952C26 21.664 25.928 21.412 25.676 21.412C25.388 21.412 25.316 21.556 25.208 22.132C25.064 22.78 24.596 23.824 23.984 24.508C22.544 26.164 20.6 26.524 17.396 26.524C12.572 26.524 6.056 22.276 6.056 13.708C6.056 10.216 6.74 6.796 9.368 4.384C10.952 2.944 13.004 2.152 16.136 2.152C19.448 2.152 22.256 3.124 23.444 4.384C24.344 5.32 24.812 6.58 24.848 7.696C24.848 8.2 24.92 8.488 25.208 8.488C25.532 8.488 25.604 8.2 25.64 7.66C25.712 6.94 25.676 4.96 25.748 3.772C25.82 2.512 25.928 2.08 25.928 1.792C25.928 1.576 25.784 1.396 25.388 1.36C24.308 1.252 23.156 0.927999 21.788 0.747999C20.132 0.532 18.8 0.387999 16.568 0.387999C11.204 0.387999 7.784 1.828 5.192 4.204C1.736 7.372 0.98 11.62 0.98 14.068C0.98 17.56 1.916 21.592 5.444 24.688C8.72 27.532 12.86 28.612 17.792 28.612ZM42.481 28.504C50.653 28.504 55.765 22.996 55.765 15.976C55.765 8.956 50.797 4.528 42.805 4.528C33.193 4.528 29.521 11.296 29.521 16.516C29.521 21.952 33.265 28.504 42.481 28.504ZM43.777 26.848C37.801 26.848 34.201 21.88 34.201 15.58C34.201 8.02 38.341 6.148 41.869 6.148C46.981 6.148 51.049 10.324 51.049 17.092C51.049 25.804 46.009 26.848 43.777 26.848ZM65.9125 13.816C65.9125 9.172 65.9125 8.308 65.9845 7.336C66.0565 6.256 66.3085 5.824 67.1725 5.68C67.5325 5.608 68.0365 5.572 68.3965 5.572C68.7925 5.572 68.9725 5.464 68.9725 5.248C68.9725 5.032 68.7565 4.96 68.2885 4.96C67.0645 4.96 64.4725 5.032 63.7165 5.032C62.8525 5.032 60.8365 4.96 59.3605 4.96C58.8925 4.96 58.6765 5.032 58.6765 5.248C58.6765 5.464 58.8565 5.572 59.2165 5.572C59.6125 5.572 60.0085 5.608 60.2605 5.68C61.2685 5.968 61.5565 6.292 61.6285 7.336C61.6645 8.308 61.6645 9.172 61.6645 13.816V19.216C61.6645 22.024 61.6645 24.436 61.5205 25.732C61.4125 26.632 61.2325 27.208 60.5845 27.352C60.2965 27.424 59.9365 27.46 59.4685 27.46C59.0725 27.46 58.9645 27.64 58.9645 27.784C58.9645 28 59.1805 28.108 59.5765 28.108C60.2245 28.108 61.0165 28.072 61.7725 28.036C62.5285 28.036 63.2125 28 63.5725 28C64.8685 28 66.2005 28.036 67.7845 28.072C69.3685 28.144 71.2045 28.18 73.4725 28.18C75.1285 28.18 75.2725 28.036 75.4885 27.352C75.7405 26.452 75.9565 24.184 75.9565 23.824C75.9565 23.464 75.8845 23.14 75.6685 23.14C75.4165 23.14 75.3445 23.32 75.3085 23.608C75.2365 24.184 74.9125 25.048 74.5165 25.444C73.7245 26.272 72.5005 26.308 70.8085 26.308C68.3605 26.308 67.1365 26.128 66.5965 25.66C65.9125 25.084 65.9125 23.14 65.9125 19.216V13.816ZM79.4566 18.316C79.4566 22.744 80.7166 25.012 82.3366 26.416C84.6406 28.432 87.9166 28.504 89.5726 28.504C91.6246 28.504 94.0366 28.18 96.2686 26.308C98.9326 24.112 99.2926 20.512 99.2926 17.092V13.816C99.2926 9.172 99.3286 8.308 99.3646 7.336C99.4366 6.256 99.6526 5.824 100.517 5.68C100.913 5.608 101.093 5.572 101.453 5.572C101.813 5.572 101.993 5.464 101.993 5.248C101.993 5.032 101.777 4.96 101.345 4.96C100.121 4.96 97.9966 5.032 97.6366 5.032C97.6006 5.032 95.4766 4.96 93.8566 4.96C93.4246 4.96 93.2086 5.032 93.2086 5.248C93.2086 5.464 93.3886 5.572 93.7486 5.572C94.1086 5.572 94.6486 5.608 94.9006 5.68C95.9086 5.968 96.1606 6.292 96.2326 7.336C96.2686 8.308 96.3046 9.172 96.3046 13.816V17.668C96.3046 20.8 96.2326 23.464 94.4686 25.12C93.2086 26.344 91.5886 26.74 90.2206 26.74C89.1406 26.74 87.6286 26.632 86.2246 25.516C84.6766 24.292 83.8126 22.564 83.8126 18.1V13.816C83.8126 9.172 83.8126 8.308 83.8846 7.336C83.9566 6.256 84.2086 5.824 85.0366 5.68C85.4326 5.608 85.6126 5.572 85.9726 5.572C86.2966 5.572 86.4766 5.464 86.4766 5.248C86.4766 5.032 86.2606 4.96 85.7926 4.96C84.6406 4.96 82.5166 5.032 81.7246 5.032C80.7886 5.032 78.6646 4.96 76.9726 4.96C76.5046 4.96 76.2886 5.032 76.2886 5.248C76.2886 5.464 76.4686 5.572 76.8286 5.572C77.2606 5.572 77.8006 5.608 78.0526 5.68C79.0606 5.968 79.3486 6.256 79.4206 7.336C79.4926 8.308 79.4566 9.172 79.4566 13.816V18.316ZM105.67 25.048C105.526 26.056 105.238 27.28 104.374 27.388C103.87 27.46 103.654 27.46 103.402 27.46C103.078 27.46 102.898 27.604 102.898 27.748C102.898 28.036 103.15 28.108 103.474 28.108C104.482 28.108 105.994 28 106.606 28C107.182 28 108.622 28.108 109.954 28.108C110.422 28.108 110.71 28.036 110.71 27.748C110.71 27.604 110.494 27.46 110.206 27.46C109.918 27.46 109.63 27.424 109.09 27.316C108.55 27.208 108.118 26.992 108.118 26.416C108.118 25.912 108.154 25.516 108.226 24.976L109.738 13.024H109.846C110.89 15.148 112.762 19 113.014 19.576C113.374 20.44 115.894 25.12 116.65 26.524C117.154 27.46 117.514 28.072 117.91 28.072C118.27 28.072 118.45 27.784 119.17 26.344L125.974 12.664H126.082L127.846 25.912C127.954 26.776 127.882 27.136 127.702 27.208C127.486 27.28 127.342 27.388 127.342 27.532C127.342 27.712 127.522 27.856 128.278 27.892C129.538 27.964 134.038 28.108 134.83 28.108C135.298 28.108 135.658 28 135.658 27.748C135.658 27.568 135.442 27.46 135.154 27.46C134.758 27.46 134.254 27.424 133.354 27.172C132.382 26.884 132.094 26.056 131.806 24.148L128.926 5.248C128.818 4.6 128.458 4.276 128.206 4.276C127.918 4.276 127.63 4.528 127.378 5.032L118.882 22.312L110.386 5.248C109.954 4.42 109.738 4.276 109.414 4.276C109.162 4.276 108.874 4.564 108.802 5.068L105.67 25.048ZM140.836 19.216C140.836 22.024 140.836 24.436 140.692 25.732C140.584 26.632 140.404 27.208 139.756 27.352C139.468 27.424 139.108 27.46 138.64 27.46C138.244 27.46 138.136 27.64 138.136 27.784C138.136 28 138.352 28.108 138.748 28.108C139.396 28.108 140.188 28.072 140.944 28.036C141.7 28.036 142.384 28 142.744 28C143.248 28 144.364 28.036 145.444 28.072C146.524 28.144 147.604 28.18 147.964 28.18C153.796 28.18 156.388 24.796 156.388 21.52C156.388 17.92 153.148 15.724 150.556 14.896C152.356 13.744 154.12 11.908 154.12 9.532C154.12 7.912 153.112 4.96 147.388 4.96C146.308 4.96 144.22 5.032 142.636 5.032C142.024 5.032 140.008 4.96 138.352 4.96C137.884 4.96 137.632 5.032 137.632 5.248C137.632 5.464 137.848 5.572 138.172 5.572C138.64 5.572 139.18 5.608 139.432 5.68C140.44 5.968 140.728 6.292 140.8 7.336C140.836 8.308 140.836 9.172 140.836 13.816V19.216ZM144.94 6.94C144.94 6.616 145.012 6.472 145.228 6.436C145.552 6.364 146.164 6.364 146.596 6.364C149.332 6.364 150.556 8.92 150.556 10.972C150.556 12.448 149.944 13.564 149.116 14.212C148.576 14.644 147.676 14.752 146.632 14.752C145.912 14.752 145.444 14.716 145.156 14.644C145.048 14.608 144.94 14.572 144.94 14.32V6.94ZM144.94 16.372C144.94 16.192 145.012 16.156 145.12 16.156H146.488C147.712 16.156 148.576 16.48 149.224 16.948C151.6 18.568 152.212 20.98 152.212 22.384C152.212 25.768 150.016 26.704 148.324 26.704C147.604 26.704 146.884 26.668 146.056 26.344C145.048 25.948 144.94 25.336 144.94 23.32V16.372ZM162.422 19.216C162.422 22.168 162.422 24.616 162.278 25.876C162.17 26.776 161.99 27.208 161.342 27.352C161.054 27.424 160.694 27.46 160.226 27.46C159.83 27.46 159.722 27.64 159.722 27.784C159.722 28 159.938 28.108 160.334 28.108C161.594 28.108 163.754 28 164.474 28C165.338 28 167.498 28.108 169.586 28.108C169.946 28.108 170.198 28 170.198 27.784C170.198 27.64 170.054 27.46 169.694 27.46C169.226 27.46 168.506 27.424 168.074 27.352C167.138 27.208 166.922 26.74 166.814 25.912C166.67 24.616 166.67 22.168 166.67 19.216V13.816C166.67 9.172 166.67 8.308 166.742 7.336C166.814 6.256 167.066 5.824 167.93 5.68C168.29 5.608 168.542 5.572 168.866 5.572C169.19 5.572 169.37 5.5 169.37 5.212C169.37 5.032 169.118 4.96 168.722 4.96C167.498 4.96 165.446 5.032 164.654 5.032C163.754 5.032 161.594 4.96 160.406 4.96C159.902 4.96 159.65 5.032 159.65 5.212C159.65 5.5 159.83 5.572 160.154 5.572C160.55 5.572 160.946 5.608 161.306 5.716C161.99 5.932 162.314 6.292 162.386 7.336C162.422 8.308 162.422 9.172 162.422 13.816V19.216ZM185.902 20.404C186.046 20.404 186.154 20.44 186.226 20.62L188.674 26.776C188.818 27.136 188.602 27.424 188.386 27.46C188.062 27.496 187.99 27.604 187.99 27.784C187.99 28 188.35 28 188.926 28.036C191.59 28.108 193.894 28.108 195.01 28.108C196.198 28.108 196.378 28.036 196.378 27.784C196.378 27.568 196.234 27.46 195.946 27.46C195.586 27.46 195.226 27.424 194.758 27.352C194.182 27.244 193.282 26.848 192.058 24.076C190.042 19.432 184.75 6.904 183.994 5.212C183.67 4.528 183.526 4.24 183.058 4.24C182.734 4.24 182.482 4.6 182.122 5.464L173.842 24.724C173.194 26.272 172.654 27.208 171.214 27.424C170.926 27.424 170.566 27.46 170.278 27.46C170.026 27.46 169.918 27.604 169.918 27.784C169.918 28.036 170.098 28.108 170.494 28.108C172.15 28.108 173.842 28 174.166 28C175.174 28 176.65 28.108 177.694 28.108C178.018 28.108 178.198 28.036 178.198 27.784C178.198 27.604 178.126 27.46 177.73 27.46H177.262C176.29 27.46 176.002 27.136 176.002 26.596C176.002 26.236 176.146 25.48 176.47 24.724L178.162 20.62C178.234 20.44 178.27 20.404 178.45 20.404H185.902ZM179.098 18.712C178.99 18.712 178.918 18.64 178.99 18.496L182.05 10.756C182.086 10.648 182.122 10.468 182.23 10.468C182.302 10.468 182.338 10.648 182.374 10.756L185.362 18.532C185.398 18.64 185.362 18.712 185.218 18.712H179.098ZM209.794 16.588C209.794 21.808 211.162 24.472 212.998 26.128C215.626 28.504 219.082 28.612 220.99 28.612C223.33 28.612 225.922 28.216 228.478 26.02C231.502 23.428 231.898 19.18 231.898 15.184V11.332C231.898 5.86 231.898 4.852 231.97 3.7C232.042 2.44 232.33 1.828 233.302 1.648C233.734 1.576 233.95 1.54 234.346 1.54C234.778 1.54 234.994 1.468 234.994 1.216C234.994 0.963998 234.742 0.891999 234.238 0.891999C232.834 0.891999 230.566 0.999998 230.134 0.999998C230.098 0.999998 227.83 0.891999 225.994 0.891999C225.49 0.891999 225.238 0.963998 225.238 1.216C225.238 1.468 225.454 1.54 225.85 1.54C226.246 1.54 226.858 1.576 227.146 1.648C228.334 1.9 228.622 2.476 228.694 3.7C228.766 4.852 228.766 5.86 228.766 11.332V15.832C228.766 19.54 228.658 22.78 226.678 24.76C225.238 26.2 223.294 26.704 221.71 26.704C220.486 26.704 218.83 26.56 217.21 25.228C215.446 23.788 214.402 21.592 214.402 16.372V11.332C214.402 5.86 214.402 4.852 214.474 3.7C214.546 2.44 214.834 1.828 215.806 1.648C216.238 1.576 216.454 1.54 216.85 1.54C217.21 1.54 217.426 1.468 217.426 1.216C217.426 0.963998 217.174 0.891999 216.634 0.891999C215.338 0.891999 213.07 0.999998 212.206 0.999998C211.126 0.999998 208.858 0.891999 206.95 0.891999C206.41 0.891999 206.158 0.963998 206.158 1.216C206.158 1.468 206.374 1.54 206.77 1.54C207.274 1.54 207.886 1.576 208.174 1.648C209.362 1.9 209.65 2.476 209.722 3.7C209.794 4.852 209.794 5.86 209.794 11.332V16.588ZM241.456 11.44H241.564C242.176 11.98 245.524 15.688 248.98 19C252.292 22.204 256.252 25.984 258.232 27.82C258.556 28.144 258.988 28.468 259.528 28.468C259.78 28.468 260.032 28.18 260.032 27.496L260.392 8.2C260.428 6.472 260.68 5.932 261.544 5.68C261.94 5.572 262.192 5.572 262.516 5.572C262.876 5.572 263.056 5.428 263.056 5.248C263.056 4.996 262.768 4.96 262.336 4.96C260.788 4.96 259.6 5.032 259.24 5.032C258.556 5.032 256.864 4.96 255.208 4.96C254.74 4.96 254.416 4.996 254.416 5.248C254.416 5.428 254.524 5.572 254.92 5.572C255.352 5.572 256.108 5.572 256.576 5.752C257.332 6.04 257.62 6.58 257.656 8.452L257.98 22.06H257.836C257.368 21.628 253.156 17.308 250.996 15.184C246.388 10.684 241.636 5.824 241.24 5.428C240.7 4.888 240.268 4.42 239.872 4.42C239.548 4.42 239.332 4.852 239.332 5.464L239.044 23.608C239.008 26.272 238.9 27.1 238.072 27.316C237.64 27.424 237.064 27.46 236.632 27.46C236.344 27.46 236.128 27.604 236.128 27.784C236.128 28.072 236.416 28.108 236.848 28.108C238.468 28.108 239.98 28 240.268 28C240.844 28 242.32 28.108 244.372 28.108C244.804 28.108 245.092 28.036 245.092 27.784C245.092 27.604 244.912 27.46 244.552 27.46C244.048 27.46 243.436 27.424 242.896 27.244C242.284 27.028 241.888 26.308 241.816 23.932L241.456 11.44ZM270.106 19.216C270.106 22.168 270.106 24.616 269.962 25.876C269.854 26.776 269.674 27.208 269.026 27.352C268.738 27.424 268.378 27.46 267.91 27.46C267.514 27.46 267.406 27.64 267.406 27.784C267.406 28 267.622 28.108 268.018 28.108C269.278 28.108 271.438 28 272.158 28C273.022 28 275.182 28.108 277.27 28.108C277.63 28.108 277.882 28 277.882 27.784C277.882 27.64 277.738 27.46 277.378 27.46C276.91 27.46 276.19 27.424 275.758 27.352C274.822 27.208 274.606 26.74 274.498 25.912C274.354 24.616 274.354 22.168 274.354 19.216V13.816C274.354 9.172 274.354 8.308 274.426 7.336C274.498 6.256 274.75 5.824 275.614 5.68C275.974 5.608 276.226 5.572 276.55 5.572C276.874 5.572 277.054 5.5 277.054 5.212C277.054 5.032 276.802 4.96 276.406 4.96C275.182 4.96 273.13 5.032 272.338 5.032C271.438 5.032 269.278 4.96 268.09 4.96C267.586 4.96 267.334 5.032 267.334 5.212C267.334 5.5 267.514 5.572 267.838 5.572C268.234 5.572 268.63 5.608 268.99 5.716C269.674 5.932 269.998 6.292 270.07 7.336C270.106 8.308 270.106 9.172 270.106 13.816V19.216ZM289.77 26.668C290.382 28.108 290.634 28.504 291.066 28.504C291.498 28.504 291.786 28.036 292.578 26.272C293.298 24.724 294.774 21.376 296.79 16.912C298.518 13.168 299.346 11.512 300.606 8.632C301.434 6.688 301.866 6.22 302.262 5.932C302.802 5.536 303.486 5.572 303.81 5.572C304.134 5.572 304.314 5.464 304.314 5.248C304.314 5.032 304.062 4.96 303.666 4.96C302.694 4.96 301.218 5.032 300.678 5.032C300.282 5.032 298.878 4.96 297.294 4.96C296.682 4.96 296.394 5.032 296.394 5.248C296.394 5.464 296.646 5.572 296.934 5.572C297.33 5.572 297.834 5.608 298.194 5.716C298.482 5.824 298.626 5.932 298.626 6.256C298.626 6.508 298.482 6.976 298.338 7.372C297.582 9.388 293.514 19.252 292.146 22.42H292.038L286.71 8.704C286.278 7.624 285.99 6.796 285.99 6.4C285.99 6.112 286.098 5.932 286.314 5.788C286.566 5.608 287.034 5.572 287.538 5.572C287.826 5.572 288.042 5.464 288.042 5.248C288.042 5.032 287.682 4.96 287.286 4.96C285.702 4.96 284.046 5.032 283.254 5.032C282.138 5.032 280.338 4.96 278.646 4.96C278.178 4.96 277.854 4.996 277.854 5.248C277.854 5.428 277.926 5.572 278.214 5.572C278.466 5.572 278.97 5.572 279.438 5.68C280.59 5.968 281.058 6.256 281.778 7.948L289.77 26.668ZM307.688 19.216C307.688 22.024 307.688 24.436 307.544 25.732C307.436 26.632 307.256 27.208 306.608 27.352C306.32 27.424 305.96 27.46 305.492 27.46C305.096 27.46 304.988 27.64 304.988 27.784C304.988 28 305.204 28.108 305.6 28.108C306.248 28.108 307.04 28.072 307.796 28.036C308.552 28.036 309.236 28 309.596 28C310.532 28 311.72 28.036 313.268 28.072C314.816 28.144 316.724 28.18 319.1 28.18C320.288 28.18 320.576 28.18 320.792 27.388C320.972 26.776 321.224 24.688 321.224 24.004C321.224 23.68 321.188 23.284 320.936 23.284C320.72 23.284 320.648 23.428 320.576 23.752C320.36 25.012 320 25.66 319.208 26.02C318.38 26.38 317.048 26.416 316.22 26.416C312.98 26.416 312.008 25.948 311.936 23.86C311.9 22.96 311.936 20.368 311.936 19.324V16.876C311.936 16.696 311.972 16.552 312.116 16.552C312.908 16.552 316.508 16.624 317.084 16.696C318.272 16.804 318.668 17.272 318.848 17.884C318.92 18.28 318.92 18.676 318.956 19C318.956 19.144 319.028 19.252 319.244 19.252C319.532 19.252 319.568 18.82 319.568 18.568C319.568 18.352 319.64 17.128 319.712 16.516C319.892 14.968 319.964 14.464 319.964 14.284C319.964 14.104 319.856 13.96 319.712 13.96C319.568 13.96 319.46 14.14 319.208 14.356C318.92 14.68 318.452 14.752 317.696 14.824C316.976 14.896 312.872 14.896 312.152 14.896C311.972 14.896 311.936 14.752 311.936 14.572V7.012C311.936 6.832 312.008 6.724 312.152 6.724C312.8 6.724 316.58 6.796 317.12 6.868C318.704 7.012 318.956 7.444 319.208 7.984C319.388 8.344 319.424 8.884 319.424 9.1C319.424 9.352 319.46 9.496 319.676 9.496C319.928 9.496 320 9.136 320.036 8.992C320.108 8.632 320.18 7.3 320.216 6.976C320.288 5.572 320.468 5.212 320.468 4.996C320.468 4.852 320.432 4.708 320.252 4.708C320.108 4.708 319.928 4.816 319.748 4.852C319.496 4.888 318.992 4.996 318.416 5.032C317.804 5.068 310.784 5.032 309.776 5.032C308.876 5.032 306.86 4.96 305.204 4.96C304.736 4.96 304.484 5.032 304.484 5.248C304.484 5.464 304.7 5.572 305.024 5.572C305.492 5.572 306.032 5.608 306.284 5.68C307.292 5.968 307.58 6.292 307.652 7.336C307.688 8.308 307.688 9.172 307.688 13.816V19.216ZM327.727 19.216C327.727 22.024 327.727 24.436 327.583 25.732C327.475 26.632 327.295 27.208 326.647 27.352C326.359 27.424 325.999 27.46 325.531 27.46C325.135 27.46 325.027 27.64 325.027 27.784C325.027 28 325.243 28.108 325.639 28.108C326.899 28.108 328.915 28 329.527 28C329.995 28 332.623 28.108 334.459 28.108C334.855 28.108 335.107 28 335.107 27.784C335.107 27.64 334.963 27.46 334.711 27.46C334.315 27.46 333.631 27.424 333.163 27.352C332.191 27.208 332.047 26.632 331.939 25.732C331.795 24.436 331.759 22.06 331.759 19.216V18.784C331.759 18.604 331.867 18.532 332.011 18.532L334.855 18.604C335.071 18.604 335.251 18.64 335.431 18.82C335.827 19.288 337.159 21.34 338.419 22.996C340.183 25.372 341.371 26.812 342.739 27.496C343.567 27.928 344.431 28.108 346.195 28.108H349.219C349.615 28.108 349.831 28.036 349.831 27.784C349.831 27.64 349.687 27.46 349.435 27.46C349.183 27.46 349.003 27.46 348.679 27.388C348.175 27.28 347.059 27.136 345.295 25.372C343.387 23.464 341.155 20.692 338.347 17.236C341.443 14.752 342.739 12.736 342.739 10.468C342.739 8.416 341.407 6.868 340.507 6.256C338.815 5.14 336.511 4.96 334.495 4.96C333.523 4.96 330.643 5.032 329.563 5.032C328.915 5.032 326.899 4.96 325.243 4.96C324.775 4.96 324.523 5.032 324.523 5.248C324.523 5.464 324.739 5.572 325.063 5.572C325.531 5.572 326.071 5.608 326.323 5.68C327.331 5.968 327.619 6.292 327.691 7.336C327.727 8.308 327.727 9.172 327.727 13.816V19.216ZM331.759 7.084C331.759 6.832 331.831 6.724 332.047 6.652C332.371 6.58 333.127 6.544 333.919 6.544C335.791 6.544 338.743 7.66 338.743 11.98C338.743 14.5 337.663 15.832 336.691 16.516C336.151 16.912 335.719 17.02 334.459 17.02C333.667 17.02 332.731 16.948 332.047 16.732C331.831 16.624 331.759 16.516 331.759 16.192V7.084ZM355.299 28.504C356.991 28.504 359.079 28.324 360.591 27.244C362.895 25.624 363.759 23.788 363.759 21.52C363.759 18.748 362.463 16.408 358.287 14.104L356.991 13.384C354.147 11.8 353.643 10.72 353.643 9.352C353.643 7.264 355.695 6.076 357.963 6.076C360.015 6.076 361.023 6.94 361.491 7.516C362.175 8.308 362.319 9.244 362.319 9.532C362.319 9.892 362.427 10.072 362.643 10.072C362.895 10.072 363.039 9.748 363.039 9.1C363.039 6.688 363.147 5.824 363.147 5.428C363.147 5.212 363.003 5.104 362.715 5.032C361.887 4.816 360.267 4.528 358.215 4.528C353.823 4.528 350.223 6.94 350.223 10.684C350.223 13.384 351.447 15.436 355.191 17.632L357.027 18.712C359.835 20.368 360.159 21.7 360.159 23.032C360.159 25.192 358.503 26.92 355.767 26.92C353.787 26.92 351.411 26.164 350.727 23.896C350.547 23.356 350.439 22.708 350.439 22.312C350.439 22.096 350.403 21.808 350.115 21.808C349.863 21.808 349.719 22.132 349.719 22.6C349.683 23.104 349.539 25.012 349.539 26.668C349.539 27.352 349.647 27.496 350.151 27.712C351.519 28.324 353.463 28.504 355.299 28.504ZM370.618 19.216C370.618 22.168 370.618 24.616 370.474 25.876C370.366 26.776 370.186 27.208 369.538 27.352C369.25 27.424 368.89 27.46 368.422 27.46C368.026 27.46 367.918 27.64 367.918 27.784C367.918 28 368.134 28.108 368.53 28.108C369.79 28.108 371.95 28 372.67 28C373.534 28 375.694 28.108 377.782 28.108C378.142 28.108 378.394 28 378.394 27.784C378.394 27.64 378.25 27.46 377.89 27.46C377.422 27.46 376.702 27.424 376.27 27.352C375.334 27.208 375.118 26.74 375.01 25.912C374.866 24.616 374.866 22.168 374.866 19.216V13.816C374.866 9.172 374.866 8.308 374.938 7.336C375.01 6.256 375.262 5.824 376.126 5.68C376.486 5.608 376.738 5.572 377.062 5.572C377.386 5.572 377.566 5.5 377.566 5.212C377.566 5.032 377.314 4.96 376.918 4.96C375.694 4.96 373.642 5.032 372.85 5.032C371.95 5.032 369.79 4.96 368.602 4.96C368.098 4.96 367.846 5.032 367.846 5.212C367.846 5.5 368.026 5.572 368.35 5.572C368.746 5.572 369.142 5.608 369.502 5.716C370.186 5.932 370.51 6.292 370.582 7.336C370.618 8.308 370.618 9.172 370.618 13.816V19.216ZM389.49 19.216C389.49 22.024 389.49 24.436 389.346 25.732C389.238 26.632 389.058 27.208 388.41 27.352C388.158 27.424 387.762 27.46 387.294 27.46C386.898 27.46 386.79 27.64 386.79 27.784C386.79 28 387.006 28.108 387.402 28.108C388.662 28.108 390.822 28 391.542 28C392.442 28 394.566 28.108 396.654 28.108C397.014 28.108 397.266 28 397.266 27.784C397.266 27.64 397.122 27.46 396.762 27.46C396.294 27.46 395.574 27.424 395.142 27.352C394.206 27.208 394.026 26.632 393.918 25.768C393.774 24.436 393.738 22.024 393.738 19.216V6.832L397.734 6.904C400.578 6.94 401.406 7.876 401.478 8.668L401.514 8.992C401.55 9.46 401.622 9.604 401.874 9.604C402.054 9.604 402.126 9.424 402.162 9.1C402.162 8.308 402.234 6.04 402.234 5.392C402.234 4.924 402.198 4.744 401.982 4.744C401.874 4.744 401.622 4.816 401.118 4.888C400.65 4.96 399.966 5.032 398.958 5.032H386.106C385.062 5.032 383.874 4.996 382.938 4.888C382.146 4.78 381.822 4.528 381.57 4.528C381.39 4.528 381.282 4.708 381.21 5.104C381.138 5.356 380.526 8.308 380.526 8.812C380.526 9.136 380.598 9.316 380.814 9.316C381.03 9.316 381.102 9.172 381.174 8.92C381.246 8.704 381.39 8.308 381.714 7.876C382.182 7.192 382.938 6.976 384.774 6.94L389.49 6.832V19.216ZM411.655 22.672C411.655 23.176 411.655 24.436 411.547 25.732C411.475 26.632 411.223 27.208 410.575 27.352C410.287 27.424 409.891 27.46 409.459 27.46C409.099 27.46 408.955 27.64 408.955 27.784C408.955 28.036 409.207 28.108 409.639 28.108C410.827 28.108 412.951 28 413.743 28C414.607 28 416.731 28.108 418.711 28.108C419.143 28.108 419.395 28 419.395 27.784C419.395 27.64 419.215 27.46 418.855 27.46C418.423 27.46 417.739 27.424 417.271 27.352C416.335 27.208 416.047 26.632 415.975 25.732C415.903 24.436 415.903 23.176 415.903 22.672V20.224C415.903 19.216 415.831 18.28 416.299 17.164C416.875 15.868 421.411 8.596 422.455 7.372C423.139 6.544 423.427 6.256 424.111 5.932C424.579 5.716 425.155 5.572 425.479 5.572C425.839 5.572 426.091 5.428 426.091 5.212C426.091 5.032 425.875 4.96 425.515 4.96C424.903 4.96 422.815 5.032 422.131 5.032C421.195 5.032 420.079 4.96 419.035 4.96C418.675 4.96 418.495 5.032 418.495 5.248C418.495 5.5 418.783 5.536 419.071 5.608C419.611 5.716 419.755 6.004 419.755 6.292C419.755 6.688 419.611 7.228 419.287 7.912C418.819 8.848 414.967 15.4 414.571 16.12C414.031 15.256 409.891 8.092 409.315 7.156C409.063 6.724 408.919 6.364 408.919 6.112C408.919 5.86 409.099 5.716 409.351 5.644C409.855 5.5 410.071 5.5 410.071 5.248C410.071 5.032 409.891 4.96 409.603 4.96C408.163 4.96 406.687 5.032 406.003 5.032C404.959 5.032 402.583 4.96 402.043 4.96C401.647 4.96 401.431 5.032 401.431 5.248C401.431 5.464 401.647 5.572 401.899 5.572C402.295 5.572 402.835 5.752 403.231 5.968C403.843 6.292 404.491 7.012 405.283 8.128C406.399 9.748 410.719 16.48 410.935 16.948C411.367 17.848 411.655 18.496 411.655 20.152V22.672ZM440.982 21.664C440.982 28.72 441.018 32.32 438.282 35.092C437.562 35.812 437.022 36.208 436.554 36.46C435.942 36.784 435.762 36.928 435.762 37.108C435.762 37.288 435.906 37.396 436.05 37.396C436.23 37.396 436.518 37.324 436.77 37.18C437.526 36.82 438.102 36.532 438.57 36.244C442.026 34.12 443.934 31.636 444.69 29.44C445.41 27.424 445.554 25.12 445.554 23.068C445.554 21.268 445.446 19.54 445.446 17.992V11.332C445.446 5.86 445.446 4.852 445.518 3.7C445.59 2.44 445.878 1.828 446.85 1.648C447.282 1.576 447.498 1.54 447.894 1.54C448.326 1.54 448.542 1.468 448.542 1.216C448.542 0.963998 448.29 0.891999 447.786 0.891999C446.382 0.891999 444.114 0.999998 443.25 0.999998C442.314 0.999998 440.046 0.891999 438.138 0.891999C437.598 0.891999 437.346 0.963998 437.346 1.216C437.346 1.468 437.562 1.54 437.958 1.54C438.462 1.54 439.074 1.576 439.362 1.648C440.55 1.9 440.838 2.476 440.91 3.7C440.982 4.852 440.982 5.86 440.982 11.332V21.664ZM464.391 28.504C472.563 28.504 477.675 22.996 477.675 15.976C477.675 8.956 472.707 4.528 464.715 4.528C455.103 4.528 451.431 11.296 451.431 16.516C451.431 21.952 455.175 28.504 464.391 28.504ZM465.687 26.848C459.711 26.848 456.111 21.88 456.111 15.58C456.111 8.02 460.251 6.148 463.779 6.148C468.891 6.148 472.959 10.324 472.959 17.092C472.959 25.804 467.919 26.848 465.687 26.848ZM483.296 18.316C483.296 22.744 484.556 25.012 486.176 26.416C488.48 28.432 491.756 28.504 493.412 28.504C495.464 28.504 497.876 28.18 500.108 26.308C502.772 24.112 503.132 20.512 503.132 17.092V13.816C503.132 9.172 503.168 8.308 503.204 7.336C503.276 6.256 503.492 5.824 504.356 5.68C504.752 5.608 504.932 5.572 505.292 5.572C505.652 5.572 505.832 5.464 505.832 5.248C505.832 5.032 505.616 4.96 505.184 4.96C503.96 4.96 501.836 5.032 501.476 5.032C501.44 5.032 499.316 4.96 497.696 4.96C497.264 4.96 497.048 5.032 497.048 5.248C497.048 5.464 497.228 5.572 497.588 5.572C497.948 5.572 498.488 5.608 498.74 5.68C499.748 5.968 500 6.292 500.072 7.336C500.108 8.308 500.144 9.172 500.144 13.816V17.668C500.144 20.8 500.072 23.464 498.308 25.12C497.048 26.344 495.428 26.74 494.06 26.74C492.98 26.74 491.468 26.632 490.064 25.516C488.516 24.292 487.652 22.564 487.652 18.1V13.816C487.652 9.172 487.652 8.308 487.724 7.336C487.796 6.256 488.048 5.824 488.876 5.68C489.272 5.608 489.452 5.572 489.812 5.572C490.136 5.572 490.316 5.464 490.316 5.248C490.316 5.032 490.1 4.96 489.632 4.96C488.48 4.96 486.356 5.032 485.564 5.032C484.628 5.032 482.504 4.96 480.812 4.96C480.344 4.96 480.128 5.032 480.128 5.248C480.128 5.464 480.308 5.572 480.668 5.572C481.1 5.572 481.64 5.608 481.892 5.68C482.9 5.968 483.188 6.256 483.26 7.336C483.332 8.308 483.296 9.172 483.296 13.816V18.316ZM511.313 19.216C511.313 22.024 511.313 24.436 511.169 25.732C511.061 26.632 510.881 27.208 510.233 27.352C509.945 27.424 509.585 27.46 509.117 27.46C508.721 27.46 508.613 27.64 508.613 27.784C508.613 28 508.829 28.108 509.225 28.108C510.485 28.108 512.501 28 513.113 28C513.581 28 516.209 28.108 518.045 28.108C518.441 28.108 518.693 28 518.693 27.784C518.693 27.64 518.549 27.46 518.297 27.46C517.901 27.46 517.217 27.424 516.749 27.352C515.777 27.208 515.633 26.632 515.525 25.732C515.381 24.436 515.345 22.06 515.345 19.216V18.784C515.345 18.604 515.453 18.532 515.597 18.532L518.441 18.604C518.657 18.604 518.837 18.64 519.017 18.82C519.413 19.288 520.745 21.34 522.005 22.996C523.769 25.372 524.957 26.812 526.325 27.496C527.153 27.928 528.017 28.108 529.781 28.108H532.805C533.201 28.108 533.417 28.036 533.417 27.784C533.417 27.64 533.273 27.46 533.021 27.46C532.769 27.46 532.589 27.46 532.265 27.388C531.761 27.28 530.645 27.136 528.881 25.372C526.973 23.464 524.741 20.692 521.933 17.236C525.029 14.752 526.325 12.736 526.325 10.468C526.325 8.416 524.993 6.868 524.093 6.256C522.401 5.14 520.097 4.96 518.081 4.96C517.109 4.96 514.229 5.032 513.149 5.032C512.501 5.032 510.485 4.96 508.829 4.96C508.361 4.96 508.109 5.032 508.109 5.248C508.109 5.464 508.325 5.572 508.649 5.572C509.117 5.572 509.657 5.608 509.909 5.68C510.917 5.968 511.205 6.292 511.277 7.336C511.313 8.308 511.313 9.172 511.313 13.816V19.216ZM515.345 7.084C515.345 6.832 515.417 6.724 515.633 6.652C515.957 6.58 516.713 6.544 517.505 6.544C519.377 6.544 522.329 7.66 522.329 11.98C522.329 14.5 521.249 15.832 520.277 16.516C519.737 16.912 519.305 17.02 518.045 17.02C517.253 17.02 516.317 16.948 515.633 16.732C515.417 16.624 515.345 16.516 515.345 16.192V7.084ZM537.613 11.44H537.721C538.333 11.98 541.681 15.688 545.137 19C548.449 22.204 552.409 25.984 554.389 27.82C554.713 28.144 555.145 28.468 555.685 28.468C555.937 28.468 556.189 28.18 556.189 27.496L556.549 8.2C556.585 6.472 556.837 5.932 557.701 5.68C558.097 5.572 558.349 5.572 558.673 5.572C559.033 5.572 559.213 5.428 559.213 5.248C559.213 4.996 558.925 4.96 558.493 4.96C556.945 4.96 555.757 5.032 555.397 5.032C554.713 5.032 553.021 4.96 551.365 4.96C550.897 4.96 550.573 4.996 550.573 5.248C550.573 5.428 550.681 5.572 551.077 5.572C551.509 5.572 552.265 5.572 552.733 5.752C553.489 6.04 553.777 6.58 553.813 8.452L554.137 22.06H553.993C553.525 21.628 549.313 17.308 547.153 15.184C542.545 10.684 537.793 5.824 537.397 5.428C536.857 4.888 536.425 4.42 536.029 4.42C535.705 4.42 535.489 4.852 535.489 5.464L535.201 23.608C535.165 26.272 535.057 27.1 534.229 27.316C533.797 27.424 533.221 27.46 532.789 27.46C532.501 27.46 532.285 27.604 532.285 27.784C532.285 28.072 532.573 28.108 533.005 28.108C534.625 28.108 536.137 28 536.425 28C537.001 28 538.477 28.108 540.529 28.108C540.961 28.108 541.249 28.036 541.249 27.784C541.249 27.604 541.069 27.46 540.709 27.46C540.205 27.46 539.593 27.424 539.053 27.244C538.441 27.028 538.045 26.308 537.973 23.932L537.613 11.44ZM575.082 20.404C575.226 20.404 575.334 20.44 575.406 20.62L577.854 26.776C577.998 27.136 577.782 27.424 577.566 27.46C577.242 27.496 577.17 27.604 577.17 27.784C577.17 28 577.53 28 578.106 28.036C580.77 28.108 583.074 28.108 584.19 28.108C585.378 28.108 585.558 28.036 585.558 27.784C585.558 27.568 585.414 27.46 585.126 27.46C584.766 27.46 584.406 27.424 583.938 27.352C583.362 27.244 582.462 26.848 581.238 24.076C579.222 19.432 573.93 6.904 573.174 5.212C572.85 4.528 572.706 4.24 572.238 4.24C571.914 4.24 571.662 4.6 571.302 5.464L563.022 24.724C562.374 26.272 561.834 27.208 560.394 27.424C560.106 27.424 559.746 27.46 559.458 27.46C559.206 27.46 559.098 27.604 559.098 27.784C559.098 28.036 559.278 28.108 559.674 28.108C561.33 28.108 563.022 28 563.346 28C564.354 28 565.83 28.108 566.874 28.108C567.198 28.108 567.378 28.036 567.378 27.784C567.378 27.604 567.306 27.46 566.91 27.46H566.442C565.47 27.46 565.182 27.136 565.182 26.596C565.182 26.236 565.326 25.48 565.65 24.724L567.342 20.62C567.414 20.44 567.45 20.404 567.63 20.404H575.082ZM568.278 18.712C568.17 18.712 568.098 18.64 568.17 18.496L571.23 10.756C571.266 10.648 571.302 10.468 571.41 10.468C571.482 10.468 571.518 10.648 571.554 10.756L574.542 18.532C574.578 18.64 574.542 18.712 574.398 18.712H568.278ZM593.256 13.816C593.256 9.172 593.256 8.308 593.328 7.336C593.4 6.256 593.652 5.824 594.516 5.68C594.876 5.608 595.38 5.572 595.74 5.572C596.136 5.572 596.316 5.464 596.316 5.248C596.316 5.032 596.1 4.96 595.632 4.96C594.408 4.96 591.816 5.032 591.06 5.032C590.196 5.032 588.18 4.96 586.704 4.96C586.236 4.96 586.02 5.032 586.02 5.248C586.02 5.464 586.2 5.572 586.56 5.572C586.956 5.572 587.352 5.608 587.604 5.68C588.612 5.968 588.9 6.292 588.972 7.336C589.008 8.308 589.008 9.172 589.008 13.816V19.216C589.008 22.024 589.008 24.436 588.864 25.732C588.756 26.632 588.576 27.208 587.928 27.352C587.64 27.424 587.28 27.46 586.812 27.46C586.416 27.46 586.308 27.64 586.308 27.784C586.308 28 586.524 28.108 586.92 28.108C587.568 28.108 588.36 28.072 589.116 28.036C589.872 28.036 590.556 28 590.916 28C592.212 28 593.544 28.036 595.128 28.072C596.712 28.144 598.548 28.18 600.816 28.18C602.472 28.18 602.616 28.036 602.832 27.352C603.084 26.452 603.3 24.184 603.3 23.824C603.3 23.464 603.228 23.14 603.012 23.14C602.76 23.14 602.688 23.32 602.652 23.608C602.58 24.184 602.256 25.048 601.86 25.444C601.068 26.272 599.844 26.308 598.152 26.308C595.704 26.308 594.48 26.128 593.94 25.66C593.256 25.084 593.256 23.14 593.256 19.216V13.816ZM612.292 28.504C613.984 28.504 616.072 28.324 617.584 27.244C619.888 25.624 620.752 23.788 620.752 21.52C620.752 18.748 619.456 16.408 615.28 14.104L613.984 13.384C611.14 11.8 610.636 10.72 610.636 9.352C610.636 7.264 612.688 6.076 614.956 6.076C617.008 6.076 618.016 6.94 618.484 7.516C619.168 8.308 619.312 9.244 619.312 9.532C619.312 9.892 619.42 10.072 619.636 10.072C619.888 10.072 620.032 9.748 620.032 9.1C620.032 6.688 620.14 5.824 620.14 5.428C620.14 5.212 619.996 5.104 619.708 5.032C618.88 4.816 617.26 4.528 615.208 4.528C610.816 4.528 607.216 6.94 607.216 10.684C607.216 13.384 608.439 15.436 612.184 17.632L614.02 18.712C616.828 20.368 617.152 21.7 617.152 23.032C617.152 25.192 615.496 26.92 612.76 26.92C610.78 26.92 608.404 26.164 607.72 23.896C607.54 23.356 607.432 22.708 607.432 22.312C607.432 22.096 607.396 21.808 607.108 21.808C606.856 21.808 606.712 22.132 606.712 22.6C606.676 23.104 606.532 25.012 606.532 26.668C606.532 27.352 606.64 27.496 607.144 27.712C608.512 28.324 610.456 28.504 612.292 28.504Z" fill="black"/>
</svg>
